<svg width="321" height="205" viewBox="0 0 321 205" fill="none" xmlns="http://www.w3.org/2000/svg">
<path fill-rule="evenodd" clip-rule="evenodd" d="M292.281 0.793335L292.503 0.797181C298.533 0.957446 303.85 4.83361 307.974 8.9358C310.013 10.9641 311.872 13.35 312.747 16.1262C313.758 19.3332 313.425 22.8608 312.657 26.0794C310.958 33.1924 308.882 40.342 306.548 47.2742C305.399 50.6843 303.734 54.028 302.867 57.5182C302.152 60.3937 305.162 62.4881 305.277 65.4431C305.393 68.4241 303.386 71.2247 300.627 72.29C299.452 72.7438 298.03 72.3647 296.947 72.8297C295.957 73.2547 295.61 74.5091 295.42 75.472C295.16 76.7853 295.207 78.0976 295.281 79.4225C295.326 80.2331 295.124 81.556 295.52 82.2789C295.791 82.7754 296.287 82.9378 296.714 83.2775C297.296 83.7411 297.684 84.3182 298.195 84.851C299.036 85.7304 299.846 86.2068 300.075 87.4896C300.197 87.1982 300.318 86.9067 300.44 86.6156C301.067 87.7625 301.533 88.3125 300.936 89.4011C302.787 89.2196 303.884 92.5749 304.369 93.8475C305.258 96.1761 305.869 98.5958 306.76 100.926C307.98 104.121 309.585 107.273 310.364 110.616C311.018 113.425 311.536 116.311 312.118 119.14C312.445 120.732 312.731 122.35 313.331 123.869C313.564 124.459 313.996 124.856 314.264 125.381C314.631 126.101 314.487 126.481 314.505 127.269C314.536 128.674 315.423 129.586 315.702 130.95C316 132.408 316.243 133.882 316.544 135.343C317.149 138.286 318.271 141.224 318.541 144.205C318.855 147.666 319.528 151.085 319.866 154.547C320.162 157.572 319.659 160.82 320.292 163.747C320.852 166.344 320.157 168.719 319.91 171.298C319.847 171.953 320.856 175.851 319.234 175.103C319.539 176.022 319.966 176.46 319.989 177.468C320.01 178.411 319.767 179.381 319.568 180.295C319.184 182.062 318.928 183.988 318.176 185.643C317.326 187.516 316.03 187.74 314.268 188.383C313.075 188.818 310.927 190.369 309.987 188.709C309.427 190.414 308.333 189.236 307.106 189.14C307.115 189.141 306.404 189.403 306.271 189.421C305.84 189.479 305.331 189.276 304.901 189.24C303.832 189.152 302.782 189.295 301.736 189.511C299.324 190.01 296.991 190.701 294.544 191.049C289.764 191.728 285.08 191.407 280.293 191.704C270.925 192.286 261.402 191.798 252.027 191.546C251.02 191.519 249.936 191.659 248.943 191.505C247.872 191.338 247.639 190.832 246.805 190.325C245.419 189.484 243.88 190.302 242.442 190.61C238.219 191.513 233.809 191.58 229.552 192.453C220.904 194.227 212.936 197.729 204.652 200.683C201.061 201.963 196.846 204.037 192.973 204.128C188.28 204.228 189.388 199.61 190.251 196.641C187.539 197.36 183.281 200.646 180.525 198.739C177.24 196.467 181.419 192.689 181.616 190.018C175.745 191.235 169.086 193.905 163.127 191.735C161.981 191.317 160.983 190.435 159.752 190.291C158.472 190.142 157.12 190.593 155.826 190.586C152.879 190.567 150.017 190.175 147.071 190.538C140.502 191.346 134.027 191.788 127.405 191.963C120.739 192.138 114.073 192.532 107.403 192.516C104.018 192.507 100.57 192.106 97.1916 192.286C95.8651 192.357 93.0101 193.319 92.0781 191.972C91.1423 193.093 90.3474 192.344 89.147 192.469C89.3695 192.446 88.5218 192.935 88.3943 192.983C87.7633 193.217 87.1733 193.146 86.5145 193.139C84.7595 193.121 83.12 193.942 81.374 193.862C80.9325 193.842 80.5986 193.714 80.224 193.562C80.1352 193.527 80.1564 193.145 80.0142 193.113C79.16 192.922 79.3807 193.445 78.8385 193.708C78.2373 194 77.3477 193.528 77.6898 194.426C76.0586 194.354 74.513 194.903 73.0288 193.937C73.7305 195.486 71.2793 194.199 70.6386 194.174C69.574 194.131 68.6416 194.663 67.5797 194.786C66.3063 194.932 65.0268 194.342 63.7808 194.702C62.8046 194.984 62.4703 195.663 61.4544 195.316C60.5913 195.021 60.0521 194.381 59.6332 193.682C59.0553 192.716 58.9813 192.285 57.5875 192.268C56.5541 192.256 55.5151 192.478 54.4717 192.476C53.2761 192.473 51.9623 192.347 50.8709 192.915C49.6952 193.526 49.0045 194.457 47.7006 194.936C41.8371 197.09 35.4005 196.52 29.2827 196.484C26.7016 196.468 24.8074 196.705 24.0828 193.764C23.4706 191.279 23.2252 188.68 22.6411 186.174C21.9254 183.104 21.1387 180.256 19.5507 177.511C18.0102 174.849 16.7142 172.099 15.3729 169.334C12.5834 163.584 8.7005 158.691 4.37127 154.018C2.72664 152.243 0.841733 150.265 0.762868 147.708C0.709079 145.5 1.68256 143.213 2.95939 141.454C4.09945 139.884 5.97785 138.114 8.1027 138.48C9.38228 138.7 10.221 139.731 11.176 140.505C12.2198 141.35 13.3567 141.926 14.6147 142.387C17.5482 143.462 20.0083 144.638 22.5485 146.494C25.119 148.371 27.5219 150.474 29.7447 152.751C34.0119 157.122 38.3843 161.663 40.8362 167.324C41.8025 169.554 42.4198 171.704 43.0786 174.017C43.7258 176.287 45.4876 175.661 47.4689 175.335C49.8834 174.937 52.3099 174.724 54.7405 174.472C55.6553 174.377 56.9452 174.349 57.496 173.485C58.1034 172.533 57.4076 171.299 57.3524 170.311C57.3229 169.783 57.4981 169.394 57.542 168.88C57.5923 168.294 57.4192 167.76 57.4186 167.177C57.4179 165.923 58.005 164.807 58.9809 164.048C60.8069 162.627 63.4702 161.78 65.6321 160.998C68.5837 159.93 71.7465 159.405 74.7862 158.643C78.2088 157.785 81.652 157.012 85.0931 156.233C88.4742 155.467 91.8502 154.679 95.2676 154.09C97.2721 153.744 99.4467 153.87 101.39 153.238C103.455 152.566 103.113 150.49 103.106 148.651C103.097 145.613 103.473 142.486 103.918 139.483C104.866 133.099 107.122 126.852 109.174 120.751C111.15 114.875 113.599 109.236 117.641 104.467C121.575 99.8256 126.405 95.6248 131.414 92.1753C136.634 88.5809 142.442 85.9842 147.891 82.7754C146.7 81.8656 145.28 81.0892 144.596 79.6879C143.823 78.1062 144.151 76.2148 144.183 74.5242C144.22 72.616 144.279 70.9411 144.961 69.1234C145.334 68.1279 146.777 66.2396 146.556 65.1572C146.186 63.3395 142.205 62.0118 140.74 61.2639C138.441 60.0907 136.138 58.8989 134.02 57.4179C131.987 55.997 130.074 54.2869 128.842 52.1058C128.493 51.487 128.205 50.837 127.982 50.1624C127.734 49.4097 127.908 49.1532 127.154 49.0981C125.952 49.0097 124.15 50.2152 123.137 50.7477C117.915 53.4931 112.18 57.1877 106.018 56.9425C103.782 56.8538 101.269 56.1522 100.479 53.8228C99.4381 50.7562 101.611 47.5882 103.517 45.3733C99.7987 45.9572 92.9412 47.7821 90.0067 44.4672C88.0512 42.2584 89.5261 38.7524 91.166 36.8371C93.3326 34.3071 96.4214 32.7667 99.2746 31.1569C95.7735 29.8234 91.8978 28.9707 88.819 26.7393C85.8742 24.6055 86.2383 21.3273 88.564 18.8103C91.0505 16.1197 95.3982 14.7417 98.8177 13.7427C103.012 12.5175 107.179 12.6157 111.501 12.6979C119.258 12.8452 125.921 15.7019 132.283 20.0208C135.647 22.3046 138.963 24.7692 141.946 27.5352C144.745 30.1292 147.73 32.5414 150.487 35.1635C153.159 37.7042 155.26 40.8519 158.08 43.2254C160.478 45.2435 163.106 48.104 166.152 48.9998C169.382 49.9498 172.29 51.5209 175.547 52.4561C179.242 53.5167 182.416 55.2902 185.84 56.9823C200.211 64.0833 215.638 68.7046 230.789 73.8026C238.538 76.41 246.339 78.2479 254.251 80.2393C258.224 81.2392 261.913 81.7727 266.013 81.5919C266.958 81.5505 267.861 81.5258 268.794 81.657C269.477 81.7529 269.997 82.0111 270.608 81.6029C271.486 81.0166 271.816 79.4907 272.34 78.6219C269.422 77.7182 266.566 76.7405 265.234 73.7533C264.395 71.8709 263.96 69.6754 263.592 67.6557C263.395 66.5687 263.39 65.4719 263.222 64.3843C263.129 63.7836 262.843 63.1559 262.865 62.5422C262.8 62.8837 260.626 61.7608 260.31 61.5522C259.094 60.7471 258.872 59.1243 258.882 57.7545C258.894 56.2073 259.362 54.5067 260.413 53.3335C260.911 52.778 261.503 52.3616 262.227 52.1524C262.74 52.0038 263.418 52.1983 263.87 52.0486C265.879 51.3853 266.104 46.4195 266.389 44.6117C267.017 40.6283 267.642 36.8254 268.998 33.0071C271.469 26.0459 274.649 19.2805 278.437 12.9424C281.682 7.51144 284.925 0.870797 292.061 0.793335H292.281ZM230.59 168.018C227.701 168.517 224.934 169.538 222.144 170.403C219.538 171.211 216.897 171.726 214.224 172.251C208.904 173.297 203.466 174.254 198.223 175.618C196.747 176.001 195.97 176.868 194.682 177.47C193.727 177.917 192.831 177.464 191.838 177.426C189.675 177.344 187.276 178.049 185.196 178.574C180.285 179.813 175.929 181.966 171.485 184.345C171.088 184.558 168.399 185.787 168.527 186.296C168.63 186.711 172.048 185.596 172.591 185.514C175.343 185.095 178.031 184.228 180.763 183.69C183.005 183.248 185.272 182.948 187.505 182.458C189.989 181.912 195.282 180.013 195.492 184.113C195.719 188.543 190.822 189.906 187.878 191.972C188.207 192.538 192.929 190.674 193.515 190.485C195.523 189.838 197.386 188.672 199.431 188.176C202.988 187.312 202.557 191.237 200.593 192.983C198.411 194.923 194.803 195.509 193.594 198.494C195.181 199.066 197.255 197.992 198.713 197.458C200.627 196.757 202.548 196.067 204.474 195.398C208.797 193.898 212.902 191.83 217.248 190.401C226.164 187.468 235.589 186.627 244.909 186.106C244.079 182.887 243.171 179.687 242.424 176.447C242.105 175.061 241.813 173.668 241.571 172.265C241.402 171.29 241.546 168.956 240.873 168.187C240.054 167.25 237.921 168.566 236.761 168.541C235.624 168.517 234.794 167.93 233.744 167.745C232.746 167.57 231.566 167.849 230.59 168.018ZM63.0575 186.649C63.0575 188.187 62.7905 190.054 64.8163 190.234C66.4547 190.379 69.66 190.566 70.967 189.402C69.7145 188.792 68.291 188.686 66.9607 188.334C65.5745 187.967 64.2946 187.365 63.0575 186.649ZM96.4937 158.614C95.8774 158.618 94.8378 159.303 94.2756 159.494C93.2469 159.843 92.2015 160.138 91.1512 160.416C87.9957 161.251 83.9328 161.381 82.4839 164.765C81.7606 166.454 81.2591 170.797 78.7459 170.781C76.5121 170.767 75.1742 167.546 73.5807 166.4C71.9336 165.216 69.3224 166.022 67.5461 166.536C65.7411 167.058 62.9399 167.729 63.1425 170.014C63.2882 171.657 63.585 173.153 63.571 174.831C63.5535 176.967 63.3729 179.1 63.3729 181.236C64.6401 179.502 65.7455 176.014 67.9907 175.317C70.2589 174.612 71.5418 178.571 72.1318 180.089C72.8629 181.969 73.7819 184.101 73.8377 186.138C73.8552 186.778 73.4665 188.535 73.9118 189.061C74.307 189.528 75.8272 189.19 76.3184 189.139C79.3585 188.823 82.3824 188.429 85.4321 188.165C86.9982 188.03 87.4246 187.687 87.2714 186.004C87.1511 184.682 87.1137 183.422 87.2796 182.095C88.02 176.17 91.6719 170.751 97.8466 169.722C101.567 169.102 105.913 169.555 109.627 170.151C111.059 170.38 112.614 171.073 114.068 171.013C115.143 170.968 114.797 170.907 115.017 169.897C115.171 169.19 115.5 168.587 116.038 168.098C116.463 167.711 117.003 167.929 117.403 167.423C117.693 167.057 117.65 166.559 117.786 166.137C118.053 165.316 118.536 164.208 119.497 164.001C121.043 163.667 122.687 165.735 123.467 166.802C124.273 167.905 124.517 171.198 125.814 171.629C127.31 172.126 129.09 170.167 129.402 168.933C129.822 167.273 129.293 165.477 129.04 163.833C129.023 163.715 128.949 162.622 128.868 162.551C128.649 162.359 127.004 162.413 126.713 162.398C125.28 162.33 123.844 162.327 122.41 162.323C116.786 162.309 111.277 161.757 105.69 161.168C106.502 162.489 107.891 164.659 106.465 166.054C105.408 167.087 103.501 166.569 102.174 166.782C100.299 167.083 97.1381 168.86 95.3512 167.561C92.8332 165.729 95.6817 162.581 96.6168 160.849C96.8169 160.478 97.5594 159.172 97.2447 158.737C96.9722 158.36 96.8927 158.611 96.4937 158.614ZM54.5567 178.976C53.271 179.367 51.9757 179.744 50.6621 180.034C49.1214 180.375 46.7322 180.044 45.9826 181.738C45.4122 183.025 45.6954 185.103 46.1588 186.385C46.6894 187.854 47.9347 188.232 49.4045 188.344C51.1197 188.474 52.8576 188.198 54.5526 187.964C55.2207 187.871 55.933 187.705 56.6117 187.704C57.0144 187.702 57.8275 188.071 58.1857 187.77C58.6495 187.38 58.344 185.164 58.3077 184.633C58.2176 183.317 57.9677 182.02 57.8995 180.702C57.8508 179.756 58.208 178.47 57.0977 178.268C56.4063 178.143 55.1576 178.793 54.5567 178.976ZM158.383 152.937C157.422 153.103 156.467 153.222 155.491 153.207C154.89 153.198 154.17 152.994 153.615 153.323C152.588 153.932 152.741 155.535 152.776 156.535C152.819 157.749 152.925 158.98 153.055 160.188C153.178 161.343 153.813 163.244 152.917 164.234C152.285 163.543 151.974 161.284 150.754 161.367C149.414 161.457 150.034 163.598 150.152 164.364C150.81 168.6 151.559 172.839 152.146 177.088C152.425 179.108 152.785 181.113 152.972 183.142C153.097 184.505 153.139 185.731 154.663 186.014C156.076 186.275 157.663 185.829 159.09 185.794C160.56 185.759 161.402 185.659 162.248 184.332C160.223 183.889 157.016 184.16 155.875 182.021C154.545 179.525 157.35 177.279 158.73 175.573C159.79 174.262 161.956 169.907 163.923 172.494C164.631 173.425 164.759 174.847 165.117 175.93C165.698 177.691 166.409 179.426 167.106 181.143C173.485 177.853 180.03 174.888 186.987 173.041C185.213 170.046 183.018 167.349 181.69 164.103C180.202 160.466 178.97 156.728 177.449 153.102C175.038 154.508 172.46 151.1 170.059 150.962C166.266 150.746 162.102 152.293 158.383 152.937ZM120.599 177.462C119.276 178.249 117.331 179.779 117.013 181.361C116.465 184.096 119.589 182.268 120.554 181.669C122.573 180.416 124.552 180.016 126.871 180.788C129.845 181.778 132.585 183.45 135.777 182.18C137.365 181.548 140.888 180.197 139.937 177.774C139.282 176.103 137.364 177.536 136.35 178.135C133.697 179.703 131.499 178.709 128.847 177.578C126.195 176.446 123.209 175.909 120.599 177.462ZM26.4198 163.426C25.3583 164.929 27.5164 164.604 28.4638 164.751C30.445 165.057 32.4856 166.635 31.9395 168.869C31.4072 171.046 29.3214 172.407 28.9241 174.693C28.5827 176.656 28.9118 179.141 30.809 180.218C31.8747 180.823 34.2039 181.073 35.2764 180.378C36.9142 179.316 34.8802 177.735 33.7967 177.21C32.3608 176.513 31.2012 176.135 31.9118 174.305C32.7779 172.073 34.4603 170.36 34.3108 167.807C34.1874 165.691 33.0696 163.287 31.0332 162.408C29.5751 161.779 27.4142 162.017 26.4198 163.426ZM171.367 156.94C173.203 156.862 173.276 159.077 173.183 160.167C173.057 161.657 173.327 163.245 173.359 164.74C173.4 166.719 173.815 173.203 170.311 172.24C168.057 171.62 166.203 169.463 164.392 168.077C162.725 166.801 158.488 165.27 158.214 162.851C157.904 160.119 161.245 159.608 163.159 159.173C165.891 158.554 168.544 157.061 171.367 156.94ZM162.427 84.9267C159.517 85.2072 156.623 85.639 153.853 86.6047C151.979 87.2581 149.101 87.7265 147.773 89.3299C146.625 90.7165 147.122 92.6931 146.749 94.3313C146.244 96.5477 144.713 96.2446 143.227 94.8608C141.45 93.204 140.936 92.0044 138.461 93.5591C133.338 96.7774 129.277 101.529 125.213 105.931C128.356 106.881 134.52 107.111 135.563 111.034C136.134 113.178 134.414 114.738 132.869 115.908C130.874 117.419 128.791 118.817 126.839 120.389C125.018 121.855 120.934 127.695 119.779 122.561C119.064 119.382 120.404 116.098 119.835 112.958C117.365 116.938 114.856 120.909 112.59 125.011C110.662 128.502 109.541 132.238 108.616 136.098C110.058 136.193 111.559 135.461 112.984 135.893C114.356 136.309 114.999 137.606 115.095 138.95C115.259 141.228 114.206 143.547 113.676 145.735C113.312 147.238 112.895 150.648 111.063 151.137C108.974 151.694 107.664 148.485 106.733 147.181C105.847 148.543 105.861 150.534 105.732 152.094C105.643 153.167 105.044 155.173 106.252 155.766C107.382 156.322 109.766 155.626 110.975 155.575C113.218 155.48 115.505 155.298 117.748 155.364C119.868 155.427 122.988 156.559 123.816 153.956C124.38 152.184 124.876 145.815 127.884 149.27C129.22 150.805 130.265 152.554 131.555 154.118C132.857 155.695 134.041 155.798 135.985 155.718C139.834 155.561 143.592 156.299 147.358 156.895C150.662 157.418 150.228 154.616 150.179 152.122C150.104 148.255 150.872 144.212 151.29 140.367C152.286 131.223 154.329 122.189 157.471 113.541C154.842 112.647 150.129 116.256 148.185 113.515C146.587 111.262 148.64 108.158 149.476 106.052C150.518 103.425 151.045 100.68 152.746 98.351C153.282 97.6158 154.045 96.6305 155.084 96.8781C155.975 97.0908 156.33 98.2263 156.832 98.8671C158.424 100.901 160.457 102.425 161.872 104.643C162.737 106 163.411 107.45 163.692 109.043C163.769 109.481 163.671 110.378 163.98 110.746C164.936 111.884 167.95 111.867 169.29 112.566C173.863 114.95 175.47 121.891 177.246 126.267C177.747 127.5 178.243 128.735 178.509 130.042C178.686 130.915 178.678 132.025 179.152 132.808C180.187 134.518 183.402 132.991 184.98 132.727C187.624 132.283 190.256 131.86 192.911 131.487C194.531 131.26 196.889 130.673 198.123 132.107C199.403 133.594 198.667 135.935 198.024 137.53C196.976 140.133 195.636 142.62 194.53 145.199C193.647 147.256 193.208 149.907 191.512 151.492C190.042 152.866 187.611 153.26 185.881 152.142C184.894 151.504 182.36 145.332 181.691 145.608C182.898 150.375 184.668 155.235 186.539 159.785C187.113 161.182 188.099 164.032 189.55 164.79C190.753 165.418 193.482 164.231 194.712 164.001C195.879 163.782 198.183 162.836 199.298 163.529C200.651 164.37 200.815 166.613 200.967 168.006C201.08 169.038 200.875 169.809 202.133 169.757C203.018 169.721 203.912 169.29 204.762 169.073C206.736 168.57 208.784 168.237 210.793 167.913C215.439 167.163 220.084 166.416 224.728 165.647C228.721 164.987 232.661 164.99 236.269 163.098C238.098 162.139 240.194 161.847 242.141 161.205C244.072 160.569 245.997 160.157 248.019 159.918C252.437 159.396 256.736 158.884 261.102 157.99C263.492 157.501 265.877 156.988 268.253 156.44C270.369 155.952 272.414 155.177 274.52 154.698C276.271 154.3 277.71 154.599 278.46 152.613C278.998 151.189 278.873 149.593 279.011 148.102C279.643 141.291 277.256 134.442 276.767 127.668C276.609 125.474 276.56 123.274 276.395 121.082C276.32 120.077 276.365 117.153 275.193 116.611C275.086 117.415 275.169 118.766 274.255 119.164C274.702 118.97 274.116 121.343 274.084 121.581C273.96 122.528 274.271 123.542 274.107 124.471C274.237 124.798 274.18 125.044 273.937 125.21C273.771 125.344 273.65 125.514 273.574 125.719C273.563 126.382 273.757 125.992 273.766 126.22C273.858 128.5 273.472 130.863 273.637 133.197C273.812 135.665 274.363 138.087 274.782 140.521C275.158 142.706 275.563 144.895 275.877 147.09C276.097 148.63 276.26 150.398 275.431 151.8C273.856 154.462 269.296 154.172 266.64 154.608C262.226 155.332 257.805 155.985 253.375 156.6C251.674 156.836 249.953 157.375 248.232 157.402C246.394 157.43 245.41 156.689 244.251 155.333C241.916 152.603 240.41 149.502 238.465 146.532C237.373 144.863 236.464 144.424 234.625 143.914C232.917 143.441 231.546 142.196 230.157 141.161C227.238 138.986 223.468 136.62 221.553 133.417C219.537 130.046 222.378 128.926 225.098 128.007C224.436 126.249 223.138 124.838 222.068 123.326C220.852 121.607 219.75 119.821 218.441 118.167C215.773 114.795 213.108 111.44 210.518 108.005C208.305 105.069 206.068 102.288 203.243 99.9098C200.406 97.5209 197.248 95.5631 194.132 93.5632C192.505 92.5184 189.648 89.849 187.591 90.122C185.595 90.387 184.806 94.0998 184.308 95.6604C183.736 97.451 183.534 99.9478 182.201 101.358C180.243 103.429 178.209 100.166 177.274 98.6619C175.563 95.9069 173.811 93.1766 172.102 90.4192C171.323 89.1621 170.198 87.9659 169.736 86.5406C169.73 86.5235 169.514 85.298 169.732 85.4694L169.747 85.4831L169.732 85.4666C169.244 84.9828 167.438 84.8823 166.763 84.824L166.701 84.8185C165.281 84.6846 163.844 84.7901 162.427 84.9267ZM143.35 162.178C141.714 162.168 140.083 162.358 138.454 162.491C137.024 162.608 135.713 162.389 134.285 162.303C132.518 162.197 131.644 162.382 132.051 164.205C132.347 165.531 132.703 167.298 134.066 167.859C135.907 168.616 138.387 168.514 140.35 168.801C141.79 169.012 143.226 169.202 144.661 169.442C145.613 169.601 146.102 169.768 146.548 168.69C146.921 167.786 146.681 166.579 146.554 165.645C146.456 164.929 146.514 163.669 146.176 163.032C145.67 162.08 144.346 162.184 143.35 162.178ZM219.622 144.001C222.026 146.196 223.644 149.003 225.458 151.664C226.567 153.289 228.735 155.88 227.16 157.85C225.819 159.529 222.7 159.145 220.824 159.226C217.875 159.353 215.467 160.684 212.661 161.37C205.594 163.1 211.463 151.232 212.442 148.756C213.129 147.018 213.838 145.288 214.669 143.613C215.043 142.858 215.791 140.656 216.723 140.368C218.073 139.95 218.768 143.22 219.622 144.001ZM158.903 119.049C157.78 121.194 157.598 124.163 157.065 126.506C155.437 133.669 154.485 140.965 153.737 148.266C157.459 146.791 161.388 146.689 165.318 146.328C168.166 146.066 170.78 145.767 173.628 145.888C174.114 145.909 175.51 146.155 175.91 145.743C176.447 145.189 175.796 143.645 175.638 143.063C174.775 139.901 174.395 136.634 173.414 133.492C172.414 130.287 171.198 127.087 169.904 123.989C168.958 121.723 167.659 119.513 165.366 118.402C163.359 117.429 160.149 116.67 158.903 119.049ZM143.574 132.991C145.108 135.301 147.05 137.321 148.548 139.653C149.61 141.306 150.853 144.365 148.303 145.416C147.407 145.785 146.35 145.626 145.412 145.642C143.961 145.667 142.524 145.792 141.071 145.757C139.696 145.724 138.335 145.558 136.964 145.486C136.099 145.441 135.014 145.508 134.253 145.012C132.212 143.682 133.688 140.967 134.345 139.23C135.043 137.384 135.985 135.639 136.894 133.89C137.525 132.677 138.467 130.206 139.901 129.711C141.599 129.126 142.867 131.926 143.574 132.991ZM217.938 106.82C221.309 110.736 224.235 115.007 226.991 119.369C228.336 121.497 229.642 123.651 230.946 125.805C231.799 127.215 232.44 129.018 233.479 130.294C235.85 133.206 236.51 126.853 236.859 125.471C238.148 120.379 239.745 115.327 241.165 110.267L239.709 110.267C233.908 110.264 228.346 110.178 222.697 108.47C221.098 107.987 219.64 106.938 217.938 106.82ZM205.685 107.807C207.52 109.161 219.267 117.111 214.326 120.179C213.303 120.814 211.632 120.526 210.477 120.617C208.996 120.734 207.492 120.877 206.029 121.139C204.135 121.479 202.295 122.071 200.392 122.371C198.879 122.609 196.875 122.888 195.523 121.947C193.294 120.394 194.647 117.345 195.383 115.371C196.43 112.566 197.421 108.812 200.016 107.141C200.62 106.753 201.36 105.365 202.01 105.238C203.028 105.038 204.94 107.258 205.685 107.807ZM270.495 41.8625C269.609 42.5395 269.569 43.9456 269.339 44.938C268.566 48.2762 267.488 51.5257 266.848 54.8995C266.224 58.1901 266.028 61.4296 266.334 64.7644C266.538 66.9886 266.562 69.7254 267.915 71.6195C269.535 73.8858 272.742 73.7697 275.167 74.4409C277.501 75.0868 279.815 77.087 277.269 79.1664C276.365 79.905 275.177 80.0252 274.283 80.7368C273.18 81.6152 272.546 83.1891 272.078 84.476C271.692 85.5356 271.703 85.738 272.856 86.1122C273.382 86.2831 273.914 86.3917 274.468 86.3458C275.73 86.241 276.855 85.4089 277.911 84.7835C280.605 83.1888 283.716 81.0598 286.931 80.819C287.959 80.7423 289.128 81.1625 290.127 80.829C291.059 80.5177 290.773 80.3273 290.935 79.4619C291.575 76.0319 291.836 72.6653 293.586 69.5624C294.45 68.0313 296.734 64.8993 298.266 67.2831C298.905 68.2786 299.136 68.7649 300.555 68.4594C301.709 68.2111 302.977 67.2992 302.748 65.9674C302.532 64.711 300.878 63.8555 299.876 63.3049C298.541 62.572 297.605 62.6566 296.151 62.483C292.157 62.006 294.957 56.1696 295.533 53.9797C295.895 52.6034 296.318 50.8244 295.368 49.5816C293.922 47.6913 290.772 48.3129 288.787 48.581C286.042 48.9519 283.046 49.1495 280.477 47.905C277.76 46.5886 276.602 43.6196 274.053 42.1762C273.112 41.6427 271.462 41.1221 270.495 41.8625ZM282.421 65.9732C284.309 65.9478 283.391 68.6377 282.874 69.5422C281.785 71.4496 279.452 72.1872 277.403 71.4838C275.782 70.9274 274.03 68.4693 276.568 68.0617C277.785 67.8666 278.99 67.946 280.143 67.3676C280.8 67.0382 281.65 65.9834 282.421 65.9732ZM277.684 51.6693C278.857 52.3809 276.854 56.9258 276.517 57.8456C275.968 59.3469 275.479 60.3161 276.876 61.4732C277.848 62.2779 279.764 62.9724 278.849 64.5761C278.002 66.0599 275.097 65.4377 273.916 64.7117C272.199 63.656 272.705 61.6338 273.084 59.9743C273.331 58.887 275.594 50.4022 277.684 51.6693ZM92.9292 21.8276C96.5475 23.3717 100.247 24.7665 104.076 25.6969C107.422 26.5102 110.712 27.3872 114.16 27.1961C117.35 27.0198 117.731 30.1508 115.908 32.3192C114.918 33.4972 113.77 33.4677 112.327 33.5133C110.638 33.5667 109.104 34.0348 107.475 34.454C104.995 35.0923 102.483 35.6344 100.079 36.5354C98.839 37.0004 97.6149 37.5473 96.5084 38.2822C95.813 38.7445 94.2609 39.5773 95.0818 40.2232C96.2685 41.1564 99.7908 39.878 101.203 39.7938C104.491 39.5979 107.773 39.3013 111.043 38.8901C112.644 38.6884 114.364 38.489 115.88 37.9079C116.873 37.5278 117.971 36.584 119.095 36.8237C121.465 37.3295 120.291 40.88 119.214 42.0351C117.616 43.7504 115.19 44.5079 113.125 45.4825C111.682 46.164 110.248 46.8855 108.847 47.6482C108.185 48.0084 105.1 49.358 105.197 50.3826C105.3 51.4596 107.735 50.9165 108.337 50.8185C112.357 50.1655 115.983 48.6128 119.697 47.0239C121.323 46.3284 122.971 45.6609 124.562 44.8897C125.674 44.3507 126.767 43.5295 127.995 43.2847C130.891 42.707 130.764 45.938 131.904 47.6834C135.293 52.8708 141.84 55.0837 146.934 58.0815C148.861 59.2154 150.7 60.5211 152.468 61.8871C153.731 62.8624 154.236 64.2048 155.646 62.9186C156.822 61.8464 157.389 60.2739 158.142 58.9102C159.019 57.3227 160.191 55.921 161.09 54.3464C162.419 52.0202 162.817 49.8015 159.899 48.9454C156.836 48.0468 154.412 46.7068 151.808 44.7949C145.419 40.1027 140.118 34.1109 133.748 29.3827C127.846 25.0021 121.587 20.8913 114.189 19.715C107.176 18.5997 99.4827 18.8743 92.9292 21.8276ZM284.338 55.522C284.189 56.8137 283.87 59.5687 282.074 59.6718C279.893 59.7968 281.358 53.1763 282.593 52.4311C284.572 51.238 284.465 54.4276 284.338 55.522ZM264.04 54.9947C261.317 55.22 260.541 58.1997 263.263 59.2547L264.04 54.9947ZM274.137 52.3796C273.787 53.7319 273.912 55.902 272.825 56.94C271.294 58.4026 270.628 56.2561 270.639 55.0322C270.65 53.8216 271.25 50.7937 272.872 50.6341C274.257 50.4978 273.104 52.1026 274.137 52.3796ZM303.523 22.2926C302.528 24.362 303.598 26.4044 304.194 28.4385C302.972 28.832 301.325 28.5344 300.579 29.8248C300.109 30.6381 300.191 31.8627 300.332 32.7435C300.447 33.466 301.04 34.4389 300.546 35.1094C299.9 35.9871 298.296 35.5813 297.584 36.5576C296.501 38.0425 297.108 41.4341 298.628 42.5518C300.764 44.122 299.49 40.2687 299.359 39.5671C299.031 37.8093 300.854 38.0483 302.099 37.3384C302.767 36.9576 302.887 36.884 303.04 36.071C303.181 35.3221 303.106 34.7279 302.928 33.9208C302.322 31.1822 303.381 31.6295 305.559 31.0261C307.437 30.5052 307.287 29.0056 306.81 27.4294C306.435 26.1938 305.32 24.1669 306.528 23.1135C307.008 22.6954 307.736 22.9597 307.84 22.0872C307.91 21.4982 307.118 20.5325 306.703 20.1938C305.271 19.026 304.105 21.0824 303.523 22.2926Z" fill="#24243B"/>
</svg>
