<svg width="304" height="189" viewBox="0 0 304 189" fill="none" xmlns="http://www.w3.org/2000/svg">
<path fill-rule="evenodd" clip-rule="evenodd" d="M61.3185 52.8787C61.0212 52.7275 58.6997 53.6743 58.31 53.8191C56.7536 54.3978 55.2875 55.3593 53.8212 56.1415C54.945 57.512 56.0691 58.8828 57.1926 60.2536C58.2941 57.5461 59.7099 55.3121 61.3185 52.8787ZM62.0848 69.724C61.7025 69.7671 64.9306 77.5404 65.3076 78.4132C66.6794 81.5877 68.1196 84.7312 69.5096 87.8977C70.8563 90.9663 72.5646 93.7892 74.2856 96.6558C75.7577 99.1074 77.2718 102.912 79.4924 104.728C78.0903 98.4949 78.275 91.3284 74.2535 86.095C70.0849 80.6696 65.9634 75.3718 62.0848 69.724ZM224.051 152.845C217.822 142.961 210.024 134.216 203.528 124.508C199.891 119.072 196.351 113.567 193.289 107.781C191.062 103.572 189.678 97.5663 186.239 94.3484C184.723 92.9308 183.103 91.5431 181.069 90.9079C178.286 90.0389 174.454 90.9003 171.657 91.5874C166.447 92.8676 161.357 94.8557 156.421 96.9436C151.415 99.0612 147.144 102.865 142.62 105.921C137.768 109.2 132.516 111.588 127.08 113.679C122.346 115.5 118.135 118.113 113.427 119.946C112.489 120.311 110.574 120.258 109.787 120.734C108.939 121.246 109.273 122.76 108.244 123.319C107.779 123.571 107.625 122.657 107.268 122.672C106.832 122.691 106.434 123.204 106.014 123.528C104.303 124.851 105.351 125.733 106.029 127.554C108.237 133.485 109.424 139.519 112.525 145.118C115.074 149.721 118.723 153.845 123.019 156.892C123.672 157.356 125.803 159.152 126.569 159.033C127.26 158.925 128.665 157.086 129.142 156.586C131.305 154.32 133.282 151.881 135.444 149.611C138.785 146.102 142.001 142.499 145.243 138.942C149.007 134.813 152.338 130.135 155.728 125.723C157.287 123.694 159.295 122.041 161.028 120.159C163.358 117.629 165.498 114.908 167.709 112.273C168.378 111.475 169.499 109.435 170.538 109.459C171.266 109.476 172.551 111.195 172.932 111.733C174.348 113.735 174.342 117.35 175.046 119.849C176.764 125.942 179.863 131.893 184.113 136.595C188.339 141.271 193.752 144.596 198.75 148.354C204.165 152.426 209.294 156.593 213.589 161.852C215.293 160.271 217.15 158.872 218.861 157.272C220.49 155.748 222.614 154.512 224.051 152.845ZM143.867 180.81C145.078 180.822 147.128 181.569 148.212 181.119C144.998 177.556 142.047 174.499 137.981 171.888C133.762 169.178 129.557 166.493 125.459 163.603C117.2 157.778 111.126 150.871 107.676 141.171C106.788 138.673 106.193 136.053 105.542 133.486C105.192 132.103 104.495 125.633 103.311 125.075C102.609 124.743 97.331 128.461 96.4947 128.924C94.5393 130.008 92.5766 130.848 90.5551 131.696C86.2098 133.519 81.7301 134.91 77.1222 136.071C71.5977 137.462 67.8347 135.159 64.4123 130.808C60.5296 125.872 57.3031 120.303 53.753 115.119C52.1386 112.761 50.8012 110.407 49.6089 107.806C48.8286 106.105 45.7339 101.514 46.8032 99.7008C49.8541 102.028 50.9518 106.656 53.03 109.773C55.6202 113.657 58.5392 117.318 61.1428 121.199C63.3321 124.462 65.5658 128.416 68.8003 130.762C71.6455 132.825 74.3483 132.19 77.4103 131.263C81.1214 130.14 84.9682 129.586 88.6051 128.192C92.541 126.684 96.2648 124.545 100.105 122.8C101.895 121.987 104.039 121.525 105.726 120.51C107.179 119.637 106.963 119.176 107.069 117.316C107.194 115.145 107.338 112.974 107.434 110.801C107.498 109.342 106.71 107.363 107.245 106.274C102.885 107.031 98.6242 108.045 94.2951 108.943C91.9249 109.434 89.6395 110.042 87.2451 110.428C86.3323 110.575 85.0847 110.57 84.2675 110.969C83.6155 110.781 83.2831 110.901 83.2704 111.327C83.2392 111.558 83.1898 111.786 83.122 112.01C81.7852 112.619 81.0078 111.312 79.8483 110.059C78.4176 108.512 77.3463 106.769 76.2967 104.951C73.9498 100.886 71.2446 97.0632 69.0728 92.8839C66.8592 88.6235 65.0615 84.0619 63.1847 79.6417C61.4631 75.5865 60.3606 71.2007 58.4581 67.2415C57.609 65.4742 56.5329 64.0128 55.2764 62.5198C54.2395 61.2878 52.6442 58.6301 51.0957 58.0642C50.6863 57.9146 49.614 58.1659 49.1489 58.1328C48.2219 58.0664 47.3957 57.7254 46.447 57.8C44.3929 57.9611 42.1536 59.2627 40.5121 60.407C41.5729 61.3545 44.2264 62.5061 42.3204 64.2128C40.4708 65.8697 39.4491 62.8975 38.7433 61.5953C35.4197 64.3302 35.9001 68.1012 35.5161 71.9654C35.3156 73.9828 34.788 75.9696 34.4477 77.9567C34.2026 79.3868 34.3745 80.8661 34.3045 82.3262C34.1259 86.0366 33.7537 89.5882 33.7712 93.2466C33.7909 97.157 34.0568 100.933 34.3691 104.815C34.8947 111.351 36.099 117.89 37.1318 124.373C37.7128 128.018 38.5081 131.559 39.2801 135.145C40.1562 139.214 41.777 143.069 42.6859 147.128C43.612 145.948 44.3086 145.943 45.8065 146.099C46.9586 146.219 47.7325 145.945 47.665 147.547C47.6214 148.586 46.7065 149.38 45.6941 149.562C44.3738 149.798 43.9253 149.138 43.2449 148.136C43.0858 150.033 44.3592 152.017 44.8628 153.87C45.3394 155.627 45.6552 157.348 46.4562 159.029C47.2378 160.668 47.907 162.286 48.6978 163.91C49.062 164.657 49.4026 165.416 49.771 166.161C49.9572 166.539 50.1766 167.059 50.4545 167.377C51.1065 168.122 51.0027 167.761 51.7658 168.186C53.4283 169.111 52.804 168.88 52.8428 170.791C52.8807 172.676 53.8454 174.061 55.3923 175.121C58.6742 177.369 61.9113 177.994 65.6425 179.13C69.119 180.189 72.7807 181.097 76.4619 181.076C80.9705 181.051 85.4193 180.459 89.9279 180.399C94.9019 180.333 99.9237 180.36 104.888 180.532C106.932 180.603 108.831 180.694 110.806 181.217C113.098 181.825 115.316 181.584 117.679 181.492C122.72 181.295 127.934 180.905 132.909 180.87C136.491 180.844 140.271 180.594 143.867 180.81ZM274.581 182.768C275.477 183.242 277.486 183.048 278.387 182.916C279.974 182.684 280.144 182.054 281.151 180.636C282.884 178.194 284.291 175.855 285.311 173.026C287.263 167.612 288.059 162.074 288.916 156.41C289.868 150.118 288.13 143.595 287.507 137.345C287.365 135.911 287.169 134.49 286.943 133.067C286.808 132.216 286.772 129.322 286.214 128.585C285.14 127.17 280.148 128.311 278.186 128.439C272.707 128.798 267.193 128.882 261.717 128.944C258.797 128.977 255.862 129.1 252.971 129.123C251.643 129.133 250.345 129.067 249.013 128.937C248.567 128.894 248.132 128.792 247.683 128.767C246.146 128.682 246.262 128.458 245.864 129.822C245.169 132.211 245.704 135.251 245.521 137.731C245.277 141.045 245.145 144.406 245.205 147.727C245.261 150.796 245.157 153.858 245.271 156.933C245.319 158.207 245.458 159.245 245.793 160.462C246.172 161.837 246.589 165.05 247.533 166.002C247.641 166.11 248.443 165.858 248.656 166.127C248.984 166.543 248.924 167.423 249.15 167.691C249.879 168.561 251.386 168.63 252.48 169.02C255.48 170.093 258.233 171.257 261.061 172.703C263.588 173.994 267.662 175.094 269.181 177.642C269.878 178.81 269.972 180.35 270.612 181.556C271.341 182.929 269.882 182.211 271.669 182.768C272.474 183.019 273.756 182.768 274.581 182.768ZM8.1923 167.239C7.96499 170.41 6.1825 173.43 5.56202 176.547C5.27167 178.007 4.77917 179.442 4.43789 180.893C4.11062 182.285 2.92823 183.934 3.04793 185.311C7.412 183.753 11.8324 183.362 16.3936 182.941C20.7166 182.543 25.2834 182.385 29.5701 182.383C33.9383 182.38 38.609 181.953 43.1068 181.887C47.8105 181.817 52.5853 181.695 57.2209 181.206C54.7969 179.407 51.7639 177.718 49.9741 175.215C48.0283 172.494 47.0178 169.085 45.3057 166.214C41.8699 160.453 39.6857 153.303 37.8847 146.83C34.2487 133.763 30.1855 120.937 29.2062 107.383C27.3426 108.339 25.8632 112.049 24.93 113.897C23.7391 116.256 23.1154 118.813 22.3411 121.321C20.7468 126.485 19.6434 131.84 17.6912 136.955C13.96 146.734 11.5618 157.27 8.1923 167.239ZM245.087 91.0795C245.894 96.9238 247.587 102.844 247.652 108.758C247.666 110.06 247.446 111.505 247.717 112.788C248.006 114.158 248.946 115.369 249.489 116.671C250.35 118.737 252.532 122.973 250.428 124.724C250.385 123.062 248.868 120.952 248.103 119.499C246.951 117.31 245.437 115.308 244.188 113.173C241.574 108.704 238.644 104.33 235.275 100.391C231.994 96.5528 228.211 93.1486 224.731 89.4944C223.686 88.3963 215.298 77.8285 214.965 77.9762C217.567 88.0295 221.989 96.7768 228.042 105.194C231.009 109.321 234.571 112.036 238.183 115.532C241.191 118.443 246.861 121.556 245.821 126.326C250.523 125.873 255.195 125.149 259.94 125.149C259.16 119.131 258.562 113.208 257.169 107.289C255.587 100.568 254.516 93.6457 253.178 86.8648C251.812 79.9423 249.495 73.2405 248.054 66.331C246.674 59.7147 245.488 53.1103 244.477 46.4203C243.641 50.1272 243.949 54.1987 243.652 57.9809C243.349 61.8451 243.379 65.6381 243.48 69.525C243.667 76.7445 244.434 83.8769 245.087 91.0795ZM265.464 56.6589C265.491 53.5687 266.088 50.5202 266.273 47.4373C266.329 46.4914 267.269 40.0382 266.393 39.7013C265.672 41.2766 265.503 43.2924 264.849 44.9452C264.194 46.5964 263.319 48.1694 262.691 49.8321C261.331 53.4341 260.862 57.5097 260.716 61.3391C260.384 70.0009 260.213 78.6432 260.794 87.305C261.043 91.0176 261.234 94.7367 261.166 98.4567C261.091 102.55 260.465 106.103 261.225 110.162C261.977 114.183 262.449 118.186 262.7 122.265C262.876 125.128 262.946 124.925 265.672 124.724C267.64 124.579 269.627 124.734 271.598 124.644C270.676 113.486 270.526 102.305 269.054 91.1902C268.303 85.5198 268.283 79.7674 267.35 74.1181C266.887 71.3117 266.109 68.5619 265.662 65.7523C265.182 62.7358 265.418 59.6988 265.464 56.6589ZM66.1369 49.6372C71.3844 50.0928 76.9662 51.6648 82.3449 50.6268C81.4583 50.2669 79.1381 49.7705 80.1823 48.3503C81.244 46.9061 83.0332 48.7379 84.092 48.5487C84.745 48.432 86.1878 45.6971 86.5902 45.1309C87.5036 43.844 87.6137 43.6197 89.2561 43.2898C90.8473 42.9708 91.208 43.3163 91.4095 41.7312C91.641 39.9083 91.0116 37.859 91.074 35.995C91.208 31.9822 92.4999 28.4632 93.7024 24.6877C88.5936 25.8014 83.5983 27.1221 78.3746 27.8399C76.1417 28.1467 72.6677 28.8546 70.6391 27.3336C70.1116 26.938 70.196 26.404 69.7643 25.9456C69.0403 25.1764 67.6975 24.3808 66.6708 24.1617C60.3523 22.8138 59.736 31.8396 62.9024 35.217C63.6954 36.0633 64.7988 36.4812 65.611 37.2567C66.695 38.291 66.7838 39.3804 66.942 40.9592C67.2387 43.9196 66.8357 46.8915 65.5753 49.5996L66.1369 49.6372ZM142.812 92.2474C144.677 92.6022 146.624 92.5212 148.494 92.8239C149.159 92.9314 151.151 93.3066 151.735 92.9174C152.627 92.323 152.944 90.1432 153.366 89.1282C154.108 87.3427 155.157 85.7852 155.865 83.9672C158.755 76.5413 161.451 69.0857 164.947 61.9134C163.607 61.5644 162.578 61.5506 161.228 61.3704C159.821 61.1825 158.545 60.3489 157.203 59.9907C155.928 59.6503 154.591 59.7371 153.327 59.3412C152.631 59.1233 152.033 58.6387 151.347 58.4693C150.253 58.1998 148.976 58.0422 148.325 58.7619C147.658 59.5 147.424 61.5242 147.061 62.4777C146.095 65.018 144.972 67.4696 144.162 70.0682C143.432 72.412 142.738 74.7309 142.095 77.096C141.415 79.5929 140.076 81.6509 139.261 84.0361C138.64 85.8516 138.055 87.7076 137.962 89.6434C137.872 91.5322 137.597 91.6525 139.482 91.9543C140.434 92.1064 141.917 92.673 142.812 92.2474ZM265.536 180.65C266.022 180.877 266.48 180.847 266.91 180.56C262.698 178.777 258.601 176.305 254.207 175.082C250.086 173.935 246.079 172.564 242.108 171.152C238.882 170.004 235.981 169.11 233.064 167.09C231.293 165.864 229.72 164.485 228.503 162.694C227.149 160.698 226.847 157.859 225.38 156.063C223.4 158.242 221.074 159.892 218.731 161.624C217.92 162.223 215.976 163.529 215.699 164.456C215.349 165.626 216.286 166.745 216.75 167.929C217.937 170.96 218.517 173.991 219.161 177.143C219.419 178.406 219.977 180.305 221.012 180.834C221.955 181.316 224.686 180.966 225.86 180.877C231.982 180.412 237.995 179.936 244.154 180.359C251.124 180.838 258.585 181.169 265.536 180.65ZM277.764 124.469C278.877 124.473 279.964 124.333 281.072 124.333C280.433 121.339 281.929 117.465 282.459 114.477C283.052 111.134 283.504 107.677 283.9 104.307C284.734 97.2097 285.112 90.1981 285.123 83.0485C285.133 76.1301 286.39 69.8079 288.15 63.1572C290.041 56.0145 293.136 49.5913 295.696 42.7029C292.888 44.1901 291.334 47.6702 289.859 50.3307C287.994 53.6947 286.752 57.4195 285.99 61.1959C284.521 68.4811 282.909 75.7884 281.214 83.0615C279.449 90.6345 278.411 98.2771 276.389 105.788C275.402 109.451 274.062 113.957 273.987 117.735C273.956 119.297 273.486 122.57 274.193 123.927C274.854 125.196 276.315 124.598 277.764 124.469ZM109.814 115.073C109.755 115.85 109.7 116.59 109.562 117.358C111.103 117.344 113.055 115.741 114.377 115.022C115.987 114.146 117.599 113.179 119.174 112.298C122.214 110.597 125.666 109.477 128.912 108.079C132.642 106.474 136.069 104.534 139.636 102.602C140.881 101.927 149.834 98.0381 149.684 96.9758C147.718 96.9101 145.753 96.8447 143.787 96.7793C142.102 96.7232 139.492 97.1047 137.878 96.5828C136.994 96.2966 136.002 95.2436 135.668 94.4189C135.338 93.6029 136.08 89.8498 135.649 89.6105C133.449 91.8611 132.066 94.8525 130.099 97.2805C127.926 99.964 125.117 101.531 122.022 102.957C118.603 104.532 115.066 105.751 111.572 107.101C110.099 107.67 110.128 107.996 110 109.615C109.856 111.424 109.872 113.259 109.814 115.073ZM287.441 183.137C291.147 183.535 294.944 183.308 298.678 183.619C300.037 183.732 301.921 183.9 300.554 185.727C299.693 186.878 296.935 186.509 295.685 186.589C292.326 186.803 288.77 186.688 285.404 186.638C284.696 186.628 283.913 186.417 283.196 186.464C282.369 186.519 281.379 187.115 280.626 187.11C280.161 187.107 279.995 186.616 279.594 186.572C278.722 186.473 277.849 186.401 276.969 186.402C263.665 186.405 250.544 186.137 237.273 186.122C230.927 186.116 224.479 186.006 218.136 185.707C216.804 185.644 209.218 185.918 209.428 183.514C209.536 182.276 212.012 182.102 212.915 181.97C213.585 181.873 214.279 181.888 214.95 181.852C216.732 181.757 217.513 182.186 217.137 180.232C215.711 172.821 213.156 166.696 207.697 161.367C203.233 157.01 197.857 153.058 192.801 149.419C186.662 145.001 181.682 140.354 178.037 133.593C175.908 129.645 174.126 125.609 173.033 121.243C172.639 119.673 172.63 117.887 172.148 116.373C171.777 115.207 170.931 114.391 170.433 113.184C164.325 123.407 156.23 131.96 148.807 141.177C145.26 145.581 141.214 149.763 136.976 153.594C135.719 154.731 134.545 155.918 133.372 157.142C132.39 158.166 130.831 159.076 130.002 160.212C129.207 161.302 129.403 161.25 130.613 162.115C132.213 163.259 133.976 164.209 135.602 165.324C138.199 167.107 141.035 168.614 143.358 170.759C145.87 173.08 148.065 175.768 150.26 178.384C151.724 180.128 153.644 182.366 154.012 184.571C154.134 185.301 154.597 187.105 153.986 187.64C153.464 188.096 153.517 187.923 152.868 187.644C152.019 187.279 151.769 186.442 150.732 186.043C148.077 185.022 144.864 185.373 142.102 185.36C139.339 185.348 136.552 185.659 133.79 185.647C127.483 185.622 121.31 186.133 115.004 186.408C108.307 186.699 101.528 186 94.8535 186.099C89.9081 186.172 84.831 185.802 79.749 186.077C77.1349 186.218 74.5677 185.891 72.0189 185.854C68.6819 185.806 65.2547 186.261 61.889 186.326C56.3649 186.432 50.9082 186.432 45.3503 186.565C33.3952 186.852 21.5048 187.148 9.54278 187.337C7.94716 187.363 6.20033 187.308 4.62349 187.488C2.94988 187.68 3.8139 188.036 2.66558 188.64C-0.54921 190.33 0.193204 184.066 0.270247 182.834C0.683477 176.231 2.35614 169.756 4.36626 163.488C6.27323 157.543 7.82141 151.321 9.43645 145.248C11.2043 138.601 13.5076 132.226 15.5993 125.644C17.7424 118.899 19.4874 111.892 23.38 105.914C24.2666 104.552 25.1828 103.087 26.6091 102.228C28.2079 101.266 28.2766 101.828 28.2754 100.067C28.2744 98.4078 28.3763 96.1917 27.9857 94.6088C27.6326 93.1786 27.687 94.0266 26.8921 92.9993C26.2452 92.1639 25.5684 91.5928 25.1042 90.5784C22.253 93.4753 15.7263 91.9466 12.9715 89.8606C9.59977 87.3072 7.03156 82.9996 6.09049 78.8972C5.33471 75.6027 6.26209 69.323 9.90094 67.7388C11.6748 66.9665 18.1904 66.3827 18.4511 63.8657C18.5855 62.5664 16.2923 60.7394 15.7632 59.6222C14.7827 57.5525 13.841 54.7994 13.5684 52.5306C13.0361 48.1021 15.0424 43.1501 18.2384 40.1588C24.1014 34.6711 34.4172 31.8549 41.9588 35.3366C40.3651 29.2362 39.403 23.9734 40.2056 17.6277C40.897 12.1608 44.116 9.10213 48.5453 6.37905C56.1038 1.73171 66.3823 -0.102601 75.0248 1.24873C76.9888 1.55593 78.8735 2.21469 80.692 2.73883C83.3337 3.5003 86.4963 3.24669 88.9906 4.48381C90.7992 5.38055 92.1726 7.16701 93.7609 8.35979C95.6154 9.75227 97.1562 11.8306 98.4446 13.7527C101.2 17.8628 100.123 25.491 97.8172 29.6167C97.3227 30.5017 96.7118 31.2466 95.8936 31.8505C95.0417 32.4789 93.7431 32.6745 93.3041 33.4895C92.1796 35.5775 93.2643 40.0975 93.4142 42.3542C93.589 44.9745 92.2669 46.9428 89.3017 47.1518C87.5863 47.273 87.5316 46.2758 86.7102 48.3277C86.1779 49.6576 85.6943 51.1066 84.9261 52.3258C83.3423 54.8387 80.4414 54.5933 77.799 54.5254C74.7402 54.4463 71.7273 53.962 68.6669 53.6564C69.4752 56.2516 71.6878 58.2658 73.0695 60.5777C74.9376 63.7046 76.0621 66.2966 76.3658 69.9397C76.5988 72.7387 76.0958 74.9491 74.1844 77.0322C73.3933 77.8945 72.6919 77.9369 72.8883 78.9316C73.008 79.5384 74.0551 80.5394 74.4257 81.0237C75.4059 82.3048 76.5441 83.4807 77.4068 84.849C80.7267 90.1133 81.7072 98.1383 81.7155 104.266C81.7158 104.548 81.8654 105.145 81.7416 105.436C81.6499 105.65 80.9533 106.33 80.9432 106.389C80.8069 107.176 81.5735 108.527 82.7766 108.661C84.0401 108.801 86.3543 107.744 87.5297 107.397C89.4106 106.842 91.3277 106.431 93.2044 105.861C96.2355 104.939 99.2526 104.204 102.334 103.482C103.727 103.156 105.127 102.884 106.524 102.579C108.115 102.232 108.854 101.561 109.675 103.183C110.38 104.575 109.942 104.828 111.649 104.126C113.343 103.429 114.999 102.565 116.654 101.779C119.572 100.391 123.047 99.155 125.564 97.1072C129.763 93.691 131.318 88.2506 135.336 84.6256C136.455 83.6163 137.123 83.5984 137.83 82.2002C138.588 80.7037 138.978 78.7846 139.376 77.1748C140.074 74.356 140.57 71.5274 141.203 68.7112C141.991 65.2027 143.694 62.0253 144.936 58.6789C145.42 57.3751 145.671 55.7179 146.452 54.5461C146.659 54.2354 147.055 54.0603 147.216 53.8032C147.772 52.9205 147.766 52.678 147.91 51.616C148.583 46.6538 151.539 49.2643 154.769 50.4022C156.13 50.8817 162.592 53.9911 160.125 56.0589C163.066 56.9141 167.778 56.4494 167.738 60.6737C167.718 62.8382 166.426 65.1535 165.733 67.1796C165.117 68.9785 164.521 70.7844 163.896 72.5804C162.525 76.5148 160.863 80.3314 159.525 84.2779C158.915 86.0765 158.412 87.9172 157.564 89.6146C156.815 91.1121 155.003 92.7626 154.704 94.4001C162.543 91.0489 169.795 86.2038 178.569 86.5126C182.411 86.6475 185.898 88.2659 188.02 91.6509C190.68 95.8937 192.43 100.644 195.03 104.926C204.489 120.503 215.771 134.654 226.154 149.587C226.952 150.734 227.977 151.819 228.254 153.237C228.435 154.162 228.084 155.088 228.301 155.976C228.75 157.824 231.02 160.13 232.559 161.191C235.509 163.226 240.304 166.096 243.985 165.842C241.675 160.278 241.706 154.182 241.813 148.247C241.915 142.61 242.523 137.018 243.245 131.439C243.408 130.177 243.551 129.007 243.913 127.783C244.328 126.38 244.899 126.513 243.654 125.251C241.739 123.308 239.461 121.71 237.53 119.743C233.354 115.489 229.074 112.155 225.787 107.075C222.661 102.244 219.364 97.2728 217.05 91.982C214.668 86.5356 213.716 80.719 212.533 74.951C212.054 72.6104 210.304 69.9974 210.656 67.5532C211.1 64.4642 212.529 66.7135 213.111 68.3759C214.887 73.4504 219.045 77.9921 222.489 82.0732C226.21 86.482 230.761 90.1707 234.645 94.4512C238.875 99.1132 241.772 104.471 245.533 109.448C245.533 103.271 243.428 96.9825 242.568 90.8728C241.81 85.4953 241.572 80.1008 241.094 74.6999C240.006 62.4314 240.946 49.8015 242.472 37.6207C243.197 31.8358 242.786 26.1871 242.808 20.3823C242.815 18.535 242.051 14.2771 243.024 12.6377C244.887 9.4977 245.973 16.3638 246.068 17.3875C246.631 23.4857 245.621 29.5159 246.137 35.588C246.676 41.929 247.846 48.0919 248.842 54.3595C249.921 61.1458 251.677 67.779 253.359 74.4352C255.125 81.4237 256.609 88.5581 258.572 95.4908C259.102 93.3117 258.359 90.6345 258.212 88.4152C258.003 85.2391 257.594 82.0624 257.558 78.878C257.502 73.8029 257.462 68.6336 257.749 63.5821C258.031 58.603 257.946 53.3856 259.47 48.5886C260.193 46.3118 261.254 44.0906 262.292 41.9459C263.572 39.3013 264.025 36.7371 264.734 33.9243C265.341 31.5155 266.23 29.1701 266.635 26.7131C266.886 25.185 267.588 20.6742 269.334 24.0918C270.348 26.0754 269.91 29.016 269.938 31.147C269.974 33.879 269.557 36.5354 269.493 39.256C269.369 44.5936 269.279 49.9249 268.882 55.2537C268.465 60.8444 268.829 65.8547 269.89 71.3634C271.052 77.3933 271.392 83.4364 271.994 89.54C272.305 92.6915 272.828 95.8255 273.081 98.9814C273.214 100.653 272.529 105.445 273.724 106.635C273.839 103.741 274.667 100.843 275.295 98.0228C276.038 94.6812 276.338 91.1682 276.886 87.7787C277.773 82.2873 279.495 77.0431 280.634 71.6132C282.982 60.4201 284.933 46.0343 294.773 38.7079C296.06 37.7493 297.475 37.0417 298.867 36.2528C299.655 35.8062 300.825 34.6507 301.727 34.4491C302.711 34.229 303.121 34.4 303.52 35.544C304.076 37.1387 303.059 37.8836 302.11 39.0419C298.823 43.05 297.419 48.1879 295.39 52.8886C290.743 63.6523 288.687 75.0052 288.664 86.6402C288.651 92.7311 288.232 98.6056 287.584 104.66C286.886 111.175 285.968 118.065 283.992 124.333C285.974 124.778 288.123 124.114 288.661 126.422C288.793 126.989 288.554 127.659 288.7 128.397C288.842 129.114 289.184 129.828 289.386 130.533C289.804 131.992 290.025 133.431 290.228 134.929C291.013 140.719 292.362 146.225 292.505 152.095C292.637 157.521 291.577 163.019 290.601 168.34C289.617 173.7 286.794 178.27 284.572 183.117C285.529 183.117 286.485 183.127 287.441 183.137Z" fill="#24243B"/>
</svg>
