<svg width="136" height="44" viewBox="0 0 136 44" fill="none" xmlns="http://www.w3.org/2000/svg">
<path d="M8.7115 43.9935C8.36112 43.9935 8.0192 43.989 7.67157 43.9812C6.95142 43.9718 6.23295 43.9091 5.52206 43.7936C4.85918 43.6794 4.21704 43.4671 3.6168 43.1635C3.02207 42.8625 2.47963 42.4677 2.01025 41.9944C1.53409 41.5267 1.13765 40.9842 0.836667 40.3885C0.532365 39.7888 0.32177 39.1461 0.212217 38.4827C0.0939103 37.7698 0.0299013 37.049 0.0207423 36.3264C0.0134513 36.0839 0.00390625 35.2764 0.00390625 35.2764V8.71072C0.00390625 8.71072 0.0140723 7.9156 0.0207998 7.682C0.0295695 6.96059 0.0932063 6.24088 0.211159 5.52912C0.320914 4.86387 0.531672 4.21929 0.836138 3.61771C1.13602 3.02237 1.53025 2.47947 2.00355 2.01006C2.47632 1.5362 3.0205 1.13943 3.61624 0.834223C4.2151 0.531639 4.85603 0.320774 5.51756 0.208692C6.23079 0.092043 6.95175 0.028977 7.6744 0.020023L8.71206 0.00598145H126.896L127.946 0.0205865C128.662 0.0290955 129.376 0.0915989 130.083 0.207565C130.751 0.321053 131.399 0.533389 132.005 0.837592C133.198 1.45267 134.169 2.42577 134.782 3.62051C135.082 4.21795 135.289 4.85726 135.397 5.51677C135.517 6.23437 135.584 6.95973 135.597 7.68706C135.601 8.01274 135.601 8.36257 135.601 8.71072C135.61 9.14197 135.61 9.55244 135.61 9.96628V34.0343C135.61 34.452 135.61 34.8597 135.601 35.2707C135.601 35.6447 135.601 35.9873 135.596 36.3399C135.583 37.0542 135.517 37.7667 135.4 38.4714C135.292 39.1396 135.083 39.7874 134.779 40.3919C134.475 40.9812 134.081 41.519 133.611 41.9855C133.141 42.4613 132.597 42.8584 132.001 43.1613C131.397 43.4672 130.751 43.6804 130.083 43.7936C129.372 43.9097 128.654 43.9724 127.934 43.9812C127.597 43.989 127.244 43.9935 126.902 43.9935L125.655 43.9958L8.7115 43.9935Z" fill="white"/>
</svg>
