<svg width="230" height="260" viewBox="0 0 230 260" fill="none" xmlns="http://www.w3.org/2000/svg">
<path fill-rule="evenodd" clip-rule="evenodd" d="M117.328 102.884C117.57 102.927 118.14 100.956 118.246 100.66C118.314 100.467 118.743 99.636 118.669 99.4653C118.611 99.3323 117.448 98.919 117.328 98.8655V102.884ZM21.9594 53.4689C22.1127 51.389 21.933 49.2689 22.2549 47.2047C22.3725 46.4493 23.76 41.7646 22.0335 43.3461C20.6802 44.5856 20.4968 46.911 20.5681 48.5824C20.6188 49.7745 20.0783 53.6842 21.9594 53.4689ZM130.195 107.697C128.424 105.959 126.372 104.268 124.063 103.298C122.716 102.732 122.705 102.907 122.119 104.204C121.594 105.367 121.103 106.491 120.685 107.697H130.195ZM105.896 107.432C103.842 104.159 100.353 101.259 97.0536 99.2621C97.3576 100.034 97.3693 100.835 97.5095 101.639C97.6503 102.448 98.0109 103.077 98.2334 103.846C98.6334 105.232 98.3222 106.862 98.3222 108.29C100.847 108.005 103.371 107.718 105.896 107.432ZM112.795 90.9735C112.733 88.281 113.817 85.7911 114.475 83.2299C110.914 83.8256 110.453 77.461 108.32 76.0152C108.747 78.9075 108.936 81.7535 109.256 84.6373C109.397 85.91 109.438 87.6609 109.87 88.8339C110.319 90.0552 111.683 90.4 112.795 90.9735ZM120.312 95.9793C121.031 95.3209 121.596 93.8524 122.117 92.9568C122.873 91.658 123.81 90.5878 124.772 89.4337C126.568 87.277 128.65 85.3434 130.393 83.1723C128.416 83.3701 126.442 83.829 124.473 84.3076C123.427 84.5615 122.358 84.8985 121.37 85.3242C120.552 85.6766 119.603 85.7122 118.846 86.0399C117.319 86.7018 117.63 90.7256 117.444 92.1601C117.346 92.9118 116.965 93.6762 117.453 94.3296C118 95.0617 119.536 95.5711 120.312 95.9793ZM50.9663 108.495C47.9993 107.976 45.2351 107.236 42.8371 105.313C40.7907 103.672 38.9809 101.681 37.2639 99.7162C36.8677 99.2631 36.5102 98.7945 35.8976 98.6341C35.4445 98.5152 34.9958 98.7695 34.5625 98.4912C34.18 98.2451 34.2043 97.7343 33.9195 97.4683C33.4519 97.032 34.1275 97.2729 33.3954 97.1273C32.9278 97.0344 32.1127 97.4419 31.6185 97.5588C30.4119 97.8447 29.1851 98.0305 27.9813 98.2972C26.8028 98.558 26.1485 99.479 25.0914 100.067C24.0356 100.654 23.0083 100.904 22.0712 101.69C21.1008 102.504 19.9443 102.963 18.9883 103.717C18.1913 104.346 18.2181 105.431 17.3457 106.042C16.9724 106.304 16.4607 106.33 16.1316 106.655C15.748 107.033 15.5808 107.667 15.2514 108.102C14.4023 109.222 13.7713 109.787 13.3092 111.172C12.843 112.57 13.3997 113.729 13.1841 115.161C12.9915 116.439 12.2538 117.577 12.4975 118.867C12.7258 120.075 13.3819 121.131 13.1591 122.419C13.0336 123.144 12.5873 123.677 12.698 124.41C12.7803 124.954 13.206 125.478 13.4161 125.983C13.8563 127.039 14.2409 128.424 14.0177 129.575C13.9094 130.136 13.4227 130.469 13.2883 130.924C13.0987 131.565 13.5656 132.358 13.7754 133.153C14.1583 134.601 14.3043 136.097 14.6337 137.556C14.8301 138.425 14.924 139.934 15.8327 140.318C16.92 140.777 17.8129 139.838 18.7775 141.026C20.3402 142.949 20.3529 145.834 21.9282 147.856C22.6076 148.728 23.5348 149.56 24.6845 149.679C25.3543 149.747 25.8321 149.429 26.4751 149.664C26.9643 149.844 27.3591 150.304 27.6121 150.737C28.1393 151.641 27.9672 152.782 28.4564 153.705C28.7748 154.305 29.9515 155.624 30.526 155.937C31.4159 156.423 31.8512 156.195 32.5696 157.127C33.3878 158.19 34.0103 159.563 35.0482 160.445C36.0505 161.297 36.7175 160.844 37.8665 160.938C39.0117 161.031 39.3895 162.08 40.0277 162.92C40.268 163.235 40.8017 164.167 41.1866 164.281C41.7358 164.443 41.5647 164.191 42.0586 163.969C43.0506 163.525 43.6872 163.234 44.4546 164.254C45.2314 165.287 45.413 166.704 46.1945 167.769C47.0398 168.921 47.6524 168.761 48.9405 168.924C50.0806 169.068 50.9286 169.943 51.7591 170.656C53.1354 171.837 53.5357 171.853 55.2057 171.419C56.1956 171.162 56.7355 171.235 57.3803 172.056C58.0699 172.935 58.7061 174.813 59.705 175.305C60.4855 175.689 61.3009 174.019 62.4053 174.318C63.3624 174.578 64.5401 176.075 65.4193 176.629C66.2629 177.16 67.5212 178.063 68.5694 178.101C69.049 178.118 69.426 177.784 69.874 177.78C70.4009 177.776 71.1831 178.079 71.6647 178.292C72.7064 178.752 73.2884 179.746 74.3068 180.298C75.8719 181.145 76.5019 180.363 77.9669 179.801C79.5156 179.207 80.2028 179.994 81.5149 180.54C82.5038 180.951 83.9932 181.408 85.0664 181.562C86.4111 181.754 87.5947 180.754 88.9583 180.746C89.6438 180.742 90.05 180.878 90.6019 181.291C90.8435 181.472 91.0588 181.727 91.2758 181.937C91.949 182.589 91.6333 182.499 92.3994 182.209C93.3242 181.859 94.3319 181.263 95.3942 181.489C96.1826 181.657 97.0001 183.266 97.6551 183.242C97.964 183.231 98.7979 182.201 99.0451 181.975C99.6336 181.439 100.014 180.992 100.871 181.18C101.518 181.322 101.851 181.864 102.388 181.709C102.846 181.578 103.485 180.658 103.633 180.258C104.03 179.176 103.77 177.702 103.904 176.554C104.088 174.966 104.475 173.402 104.734 171.825C104.981 170.328 105.012 168.817 105.224 167.321C105.382 166.204 106.085 164.763 104.655 164.224C103.534 163.802 102.846 164.04 101.813 163.216C100.645 162.285 99.842 162.357 98.3952 162.388C95.2866 162.453 93.1257 160.403 90.3174 159.398C87.7661 158.485 85.3321 157.316 82.7887 156.357C81.4101 155.836 80.3907 155.124 79.1399 154.444C78.0032 153.826 76.4961 153.981 75.2487 153.571C72.7331 152.742 70.3474 151.699 67.8318 150.95C66.4459 150.537 65.0121 150.379 63.6184 149.939C62.0396 149.441 60.9808 148.494 59.7975 147.352C58.4604 146.063 54.731 143.084 55.5547 140.899C56.4178 138.611 60.5821 143.259 61.6245 143.894C62.5195 144.438 63.5125 145.099 64.4685 145.366C65.7614 145.728 66.7867 145.227 68.0577 145.762C70.6967 146.872 73.2486 148.55 75.9829 149.362C77.2056 149.726 78.6634 149.656 79.7552 150.302C80.8836 150.97 81.9208 151.744 83.1065 152.365C85.5765 153.656 88.0516 154.839 90.6656 155.8C89.8118 151.191 88.9007 146.512 87.785 141.949C86.6154 137.166 87.0223 132.183 86.4646 127.312C84.3757 128.656 82.2224 129.736 80.0924 130.901C78.0351 132.027 75.8602 132.568 73.6606 133.297C71.2434 134.099 68.7072 135.215 66.1748 135.534C63.6331 135.854 60.7888 136.147 58.2269 135.996C53.2536 135.703 48.3338 135.037 43.4387 133.987C42.6767 133.823 42.0045 133.525 41.2103 133.562C40.7143 133.584 40.0109 133.948 39.5609 133.675C38.6148 133.103 39.3857 131.571 39.9372 131.007C40.6793 130.249 41.4818 129.968 42.1913 129.076C43.2131 127.789 44.2411 126.521 45.3373 125.296C47.4045 122.985 49.7889 120.694 51.2477 117.931C52.8231 114.948 54.0002 111.809 55.2606 108.688C53.8549 108.707 52.3775 108.54 50.9663 108.495ZM120.372 111.877C118.903 112.007 117.638 111.909 116.273 112.019C114.301 112.177 112.039 111.995 110.084 111.727C108.248 111.475 106.451 111.928 104.645 111.762C102.771 111.59 100.813 111.574 98.8665 111.395C97.6503 111.282 97.7275 111.58 97.3957 112.702C97.0553 113.852 96.6251 114.845 96.0561 115.902C94.9914 117.881 93.7444 119.687 92.3096 121.414C91.647 122.211 90.9638 122.99 90.2838 123.772C89.4783 124.699 88.8733 125.069 89.1437 126.341C89.6013 128.492 90.2906 130.611 90.5813 132.791C90.8596 134.878 90.8538 136.99 91.2305 139.061C91.6357 141.287 92.1546 143.494 92.5303 145.723C92.8858 147.833 93.1542 149.974 93.4147 152.096C93.6303 153.852 93.4911 157.111 95.1608 158.24C95.9481 158.772 97.3682 158.852 98.2536 158.766C99.1671 158.678 100.069 158.018 100.97 158.04C101.789 158.061 102.123 158.612 102.637 159.175C103.485 160.104 103.509 160.329 104.654 160.336C105.388 160.34 105.489 160.095 106.205 160.612C106.94 161.142 107.422 162.122 108.384 162.35C109.955 162.723 112.542 160.66 113.897 159.982C117.999 157.929 122.672 157.412 126.84 155.695C128.797 154.888 130.776 153.822 132.596 152.705C133.516 152.14 134.406 151.548 135.198 150.81C135.938 150.121 137.463 149.033 137.805 148.123C135.494 148.123 133.292 149.099 130.954 148.507C128.698 147.936 129.275 144.955 129.521 143.273C126.313 143.751 120.227 145.489 120.979 140.086C121.249 138.148 122.682 136.652 124.178 135.517C125.328 134.643 127.339 133.929 127.971 132.549C125.462 132.216 119.333 133.195 118.96 129.534C118.562 125.646 122.422 123.604 125.437 122.308C129.112 120.728 133.004 119.265 136.972 118.616C138.716 118.331 140.487 117.96 142.241 117.873C143.891 117.791 146.18 118.065 147.295 116.564C145.037 116.158 143.045 115.686 140.968 114.701C140.122 114.3 139.209 113.702 138.412 113.21C137.516 112.657 137.109 111.43 136.215 110.971C135.432 110.569 134.294 111.104 133.42 111.191C132.024 111.328 130.63 111.472 129.23 111.564C126.303 111.757 123.302 111.995 120.372 111.877ZM44.769 78.4352C46.054 78.8972 47.3435 79.3476 48.6279 79.8117C49.7179 80.2056 51.3046 80.5045 52.1969 81.2696C54.8304 83.5267 50.5423 83.5302 49.2134 83.611C49.7854 85.5981 50.5351 87.5896 50.9968 89.6003C51.1493 90.2643 51.5195 91.8109 50.9207 92.3332C50.1961 92.9653 49.5835 92.1091 49.0773 91.5246C46.2946 94.5301 42.4641 96.09 38.8804 97.9136C41.5482 100.34 44.1095 103.069 47.762 103.886C49.4941 104.274 51.1391 104.703 52.8906 104.999C53.5655 105.113 54.2364 105.403 54.8972 105.59C55.1906 105.674 55.7754 105.966 56.0712 105.923C56.6241 105.842 56.6152 105.485 56.9073 104.842C58.373 101.623 59.8037 98.3314 62.2055 95.6965C63.4278 94.3563 64.7986 93.3383 66.4319 92.5351C68.1225 91.7039 70.077 91.7649 71.8179 91.0259C69.7743 88.0644 67.6162 85.1011 66.4271 81.6689C66.074 80.6491 66.2663 80.271 65.3491 80.1223C64.7132 80.0188 64.3975 80.4023 63.8302 79.8899C62.4681 78.6607 64.0918 77.23 64.9251 76.372C66.9296 74.3092 69.122 72.1004 70.5116 69.5488C71.0967 68.4745 71.5965 67.2111 71.1862 66.0401C70.552 64.2303 69.572 62.4379 68.6842 60.7429C67.041 57.6045 65.5187 54.112 63.4412 51.2388C62.3738 49.7622 61.1792 48.352 60.2414 46.7835C59.4825 45.5145 59.4503 44.2816 57.7426 44.8924C57.0827 45.1286 56.9186 45.2091 56.4198 45.6359C55.8799 46.0972 55.8937 46.4404 55.0981 46.6549C54.3985 46.8438 53.6046 46.7307 52.892 46.8767C51.899 47.0807 51.4486 47.6058 50.6544 48.2434C49.225 49.3906 47.7946 48.9988 46.1692 49.4228C45.5693 49.5795 45.4768 49.8458 44.9945 50.1951C44.2202 50.7559 43.2241 50.8608 42.3171 51.0774C41.4163 51.2927 40.3828 51.4452 39.5756 51.8863C38.8218 52.298 38.2737 52.9507 37.4624 53.3058C36.7323 53.6249 35.5535 53.616 35.2848 54.149C34.9115 54.8914 35.4387 56.4339 35.6059 57.1798C35.9826 58.8566 39.3572 67.9336 35.9333 67.8853C36.1821 69.1114 36.2565 70.1452 34.7041 69.6358C33.3899 69.205 31.6208 68.2815 30.2306 68.7947C29.0908 69.2152 27.7393 70.9181 27.4311 72.0918C26.9608 73.8852 27.7149 74.4172 29.182 75.125C30.8829 75.9459 32.1124 76.0865 33.9263 75.4537C34.6349 75.2066 35.365 74.9416 35.9748 74.497C36.6493 74.0055 36.9297 73.3851 37.8367 73.3655C38.4736 73.3522 39.1632 73.6525 39.4656 74.2266C39.6411 74.5605 39.5132 74.9152 39.614 75.2457C39.7898 75.8229 39.7072 75.6971 40.1244 76.1828C41.429 77.7009 42.9084 78.1825 44.769 78.4352ZM57.9366 189.773C59.3752 190.062 60.7648 189.613 62.2086 189.9C63.4844 190.154 64.8867 190.989 66.0394 191.578C68.4525 192.813 71.3939 192.557 74.0881 192.91C75.4821 193.093 77.0596 192.852 78.3734 193.34C79.6465 193.813 80.7345 194.484 82.0901 194.674C84.7206 195.04 87.5015 194.719 90.0994 194.675C92.7874 194.63 95.2907 195.253 98.0771 194.732C98.6372 194.627 99.2274 194.847 99.7052 194.751C100.065 194.679 100.419 194.274 100.773 194.13C101.93 193.657 103.442 193.69 104.661 193.608C107.501 193.419 110.166 193.519 112.922 192.79C113.952 192.517 121.649 191.521 121.605 191.161C117.824 191.377 113.92 191.2 110.249 190.184C107.517 189.428 105.351 188.073 102.875 186.747C102.21 186.391 101.519 186.166 100.751 186.128C99.7039 186.077 99.7916 186.217 99.0009 186.957C97.5029 188.359 96.391 188.223 94.9034 186.889C93.4116 185.552 93.2717 187.113 91.6065 187.245C89.8845 187.38 89.6808 185.28 87.9512 185.554C87.1502 185.681 86.5153 186.273 85.6893 186.213C84.9252 186.158 84.4532 185.624 83.7653 185.378C82.9621 185.092 82.0288 185.175 81.1938 184.957C80.2556 184.712 79.5008 184.093 78.5171 184.211C76.9873 184.395 75.9668 185.586 74.2817 185.229C72.4866 184.848 71.4899 183.031 69.6008 183.082C67.5085 183.138 65.9479 183.271 63.9958 182.328C63.3363 182.009 62.9082 181.49 62.2888 181.151C61.5066 180.724 60.6805 181.101 59.8616 180.892C58.2907 180.491 57.3292 178.445 56.4404 177.226C55.7096 176.223 55.605 176.235 54.3916 176.046C53.4994 175.908 52.6133 175.661 51.7776 175.32C50.8357 174.936 50.0014 174.231 49.0409 173.912C48.1905 173.63 47.3185 173.836 46.5154 173.393C45.7325 172.962 45.1457 171.96 44.5914 171.286C44.3134 170.948 44.0378 170.608 43.7609 170.269C43.1377 169.505 43.2241 169.457 42.3867 169.312C41.5699 169.171 40.9367 169.277 40.1802 168.82C39.349 168.319 38.8369 167.445 38.0708 166.883C37.4062 166.396 36.6905 166.339 35.9209 166.06C34.9091 165.692 34.1203 165.077 33.235 164.486C33.14 166.248 33.5088 168.782 32.2605 170.134C31.9345 170.488 31.4998 170.676 31.2301 171.114C30.756 171.882 30.8561 171.436 31.0285 172.434C31.2273 173.587 31.1938 174.103 30.7752 175.121C30.696 175.313 30.221 175.353 30.1442 175.559C30.0355 175.85 30.3677 176.662 30.4417 176.989C30.5822 177.611 30.6679 178.404 31.0299 178.912C31.517 179.596 32.5816 180.302 33.1743 180.954C33.8691 181.718 34.568 182.413 35.3962 183.036C36.7659 184.066 38.6666 185.573 40.3365 186.023C41.2829 186.279 42.278 186.168 43.2368 186.466C44.2106 186.768 44.9352 187.409 45.8432 187.787C49.6596 189.374 53.8699 189.481 57.9366 189.773ZM109.385 180.783C109.997 181.138 110.205 180.853 110.774 180.88C111.281 180.905 111.868 180.974 112.421 180.976C113.463 180.98 114.739 180.717 115.752 180.447C117.664 179.938 119.587 179.611 121.489 179.246C123.107 178.936 124.691 178.231 126.315 177.624C128.448 176.827 130.712 176.655 132.966 176.53C135.027 176.416 137.047 176.186 139.102 176.018C141.167 175.849 143.173 176.111 145.212 175.651C146.162 175.437 147.208 175.285 148.077 174.853C149.08 174.354 150.013 173.551 150.999 172.99C152.174 172.321 155.198 171.399 155.665 169.99C154.724 170.216 152.633 171.011 151.81 170.373C150.964 169.719 151.275 168.014 151.609 167.196C152.112 165.967 153.197 165.609 154.158 164.796C154.852 164.209 155.452 163.51 156.066 162.844C156.379 162.5 156.693 162.157 157.008 161.815C156.877 161.462 156.622 161.453 156.242 161.791C154.449 161.867 149.537 165.735 149.349 162.261C149.249 160.401 150.363 159.526 151.47 158.235C152.566 156.958 153.422 155.51 154.346 154.111C152.544 154.403 150.952 155.344 149.19 155.843C147.318 156.374 145.289 156.98 143.383 157.197C142.655 157.279 140.751 157.971 140.142 157.604C139.648 157.307 139.543 155.942 139.528 155.444C139.469 153.545 140.969 152.023 141.864 150.448C139.773 151.722 138.319 153.524 136.41 154.993C134.518 156.45 132.863 157.787 130.716 158.882C128.753 159.883 126.539 160.374 124.435 161.001C122.289 161.642 120.206 162.287 118.019 162.763C115.612 163.286 113.214 164.143 110.789 164.542C110.195 164.64 108.879 164.315 108.542 164.71C108.261 165.039 108.466 167.358 108.422 167.885C108.204 170.483 107.687 173.064 107.266 175.634C107.054 176.925 106.483 178.62 106.58 179.927C106.647 180.819 106.66 180.83 107.796 180.875C108.341 180.896 108.849 180.744 109.385 180.783ZM134.439 143.443C134.145 143.504 134.065 143.641 134.198 143.853C138.33 142.946 142.371 141.233 146.625 140.788C147.75 140.67 148.719 140.222 149.833 140.135C150.347 140.094 150.869 140.164 151.383 140.171C151.743 140.175 152.567 140.412 152.817 140.375C153.762 140.237 154.776 139.188 155.515 138.632C156.396 137.97 157.507 137.303 158.216 136.442C160.99 133.074 161.691 128.806 159.887 124.872C159.455 123.929 159.056 122.827 158.453 121.979C157.924 121.235 156.611 120.75 156.367 120.037C156.259 119.721 156.555 119.05 156.367 118.775C156.195 118.524 154.95 118.47 154.673 118.411C153.435 118.147 152.193 117.866 151.07 117.256C150.754 118.159 150.854 118.702 149.968 119.237C148.966 119.843 147.441 119.717 146.34 120.036C143.944 120.729 141.363 120.911 138.91 121.594C133.352 123.143 127.544 124.991 122.567 127.971C124.82 128.854 127.645 128.392 130.004 128.408C131.683 128.419 136.101 127.369 136.991 129.223C138.127 131.59 135.072 133.14 133.54 134.112C131.14 135.634 128.651 137.022 126.46 138.835C127.732 138.882 128.908 138.587 130.133 138.292C131.454 137.973 132.804 137.953 134.119 137.63C136.137 137.135 138.795 135.025 140.979 135.88C142.895 136.63 142.26 139.534 140.943 140.523C140.086 141.167 138.984 141.154 137.991 141.44C136.632 141.832 135.603 142.68 134.439 143.443ZM84.2033 28.248C80.0657 25.172 76.0769 21.8858 71.7521 19.0692C71.7901 20.4222 73.6264 22.158 74.2841 23.3587C75.2333 25.0921 76.1183 26.8646 77.0054 28.6305C78.5931 31.7909 80.3115 34.8817 81.9115 38.0373C85.1963 44.5157 90.0048 49.7509 94.6744 55.2037C97.1581 58.1043 99.2408 61.2369 101.59 64.2378C102.062 64.8404 102.54 65.6597 103.133 66.1598C104.292 67.1363 103.649 65.961 103.411 65.1359C102.858 63.2075 102.317 61.2759 101.784 59.342C101.319 57.6569 100.577 55.8766 100.92 54.1106C101.249 52.4156 102.25 50.954 103.076 49.4722C103.867 48.0521 104.725 46.6978 105.612 45.3322C106.014 44.7121 106.508 44.2439 106.204 43.6814C105.877 43.0774 104.575 42.4093 104.019 42.0028C100.964 39.7686 98.3705 36.9541 95.2081 34.82C93.2892 33.525 91.0859 32.6033 89.0392 31.5321C87.2934 30.6186 85.7743 29.4292 84.2033 28.248ZM187.809 87.4655C187.092 87.0045 186.549 86.6103 185.735 86.4029C185.256 86.2809 184.754 86.2915 184.277 86.1356C182.835 85.6629 181.597 84.9095 180.073 84.5835C177.48 84.0292 174.821 83.3036 172.192 83.3248C169.266 83.3488 166.407 83.428 163.489 83.7557C161.946 83.9295 160.425 84.1842 158.885 84.3994C157.421 84.604 156.001 84.4765 154.637 85.1816C155.618 85.7421 156.808 85.717 157.895 85.9683C158.764 86.1692 159.551 86.5764 160.376 86.8108C162.679 87.4645 165.027 88.1692 167.357 88.7629C169.301 89.2582 171.227 89.8845 173.136 90.401C174.933 90.8874 176.936 92.0498 178.513 93.0544C180.363 94.2326 181.717 95.651 183.242 97.2222C184.856 98.885 186.547 100.413 187.966 102.255C190.977 106.164 192.479 111.005 194.53 115.468C195.556 112.542 196.341 109.694 197.459 106.859C198.091 105.257 198.921 103.758 199.542 102.123C199.797 101.453 200.051 100.783 200.306 100.112C200.734 98.9841 200.857 98.7592 200.225 97.7182C199.478 96.487 198.6 95.4114 197.413 94.5866C196.307 93.8181 195.668 92.8447 194.52 92.1698C192.203 90.8059 190.191 88.8239 187.809 87.4655ZM167.414 62.756C171.653 61.168 175.674 58.8714 179.818 57.1812C180.184 57.0321 180.533 57.1531 180.919 56.9858C181.433 56.7619 181.884 56.2951 182.41 56.0493C183.432 55.5715 184.518 55.2167 185.544 54.73C188.058 53.5371 190.574 52.3494 193.091 51.1648C197.097 49.2802 200.712 46.718 204.494 44.4245C206.111 43.4438 207.67 42.2609 209.084 41.1887C210.678 39.9805 211.942 38.0781 213.71 37.0922C213.092 36.7927 211.279 37.5594 210.624 37.7548C209.667 38.0407 208.643 38.413 207.634 38.7417C205.056 39.5808 202.328 40.0716 199.803 41.0167C197.073 42.0385 194.102 42.6589 191.312 43.5388C188.233 44.5099 185.089 45.2455 182.003 46.1833C179.323 46.9977 176.766 48.0349 174.087 48.8686C172.652 49.3152 171.114 49.6888 169.784 50.4141C168.622 51.0479 168.596 51.7513 168.231 52.9503C167.441 55.5461 166.75 58.1769 165.727 60.697C165.631 60.9359 163.86 64.061 163.898 64.1144C164.148 64.4637 167.058 62.9949 167.414 62.756ZM82.4449 81.8279C83.7056 81.8547 84.7936 82.206 86.0337 82.4062C87.3592 82.6201 88.7358 82.3582 90.0349 82.6965C91.0698 82.9659 92.0542 83.429 93.0891 83.7115C94.3487 84.0556 95.7318 83.8057 96.9569 84.2692C98.1741 84.7295 99.3868 85.8024 100.522 86.4684C101.314 86.9335 102.286 88.4349 103.263 87.4837C103.816 86.9445 103.182 84.8296 103.015 83.901C102.83 82.8713 103.052 81.1616 102.336 80.3208C101.378 79.1961 99.5819 79.2064 98.2985 79.1985C96.9535 79.1906 95.6674 78.9305 94.3669 78.6066C91.3207 77.8483 88.2213 76.9225 85.4263 75.4801C82.9913 74.2238 80.6645 72.6231 78.5842 70.8342C76.3737 68.9335 75.0197 66.675 73.6319 64.1614C73.3 65.3913 74.0737 67.0249 74.0668 68.3004C74.0579 69.9635 73.6312 71.5845 72.9161 73.08C72.3026 74.3627 71.4827 75.6707 70.5692 76.7676C70.0602 77.3787 69.4637 77.9076 68.9194 78.4862C68.1451 79.3099 68.057 79.4268 68.553 80.4651C69.2193 81.8595 70.2195 83.0527 71.0223 84.3648C71.1351 84.5492 71.6726 85.7918 71.833 85.8802C72.4908 86.2439 73.1341 85.5367 73.6863 85.3475C75.4506 84.7436 76.9801 85.4418 78.5136 84.0971C79.6581 83.0938 80.7626 81.7662 82.4449 81.8279ZM101.214 70.7786C99.2562 66.1454 95.4857 62.018 92.4371 58.0295C91.0602 56.2282 89.2815 54.9271 87.8319 53.2146C86.2764 51.3773 84.7432 49.5877 83.2439 47.7042C81.7155 45.7839 80.3526 43.8363 79.2489 41.6316C78.176 39.4875 76.8838 37.4936 75.7879 35.3534C73.5671 31.0142 71.5553 26.5873 69.2491 22.2851C68.1759 20.283 67.233 18.3398 66.4487 16.2026C66.2105 15.5537 65.3645 12.1839 65.1883 14.1888C65.0814 15.4029 65.6915 16.9238 65.8622 18.13C66.2108 20.5887 66.5615 23.0485 66.8758 25.512C67.2186 28.2028 67.9651 30.8383 68.2551 33.5322C68.7686 38.3057 69.5769 43.4113 71.2462 47.9348C73.0522 52.83 75.1438 57.5486 77.4404 62.2244C78.4783 64.3379 79.4518 66.7024 81.2407 68.2826C83.1973 70.0105 85.2011 71.469 87.5995 72.5333C89.7782 73.4999 92.3291 74.5923 94.6966 74.8782C97.6572 75.2354 99.9469 75.4709 102.582 77.0627C102.289 75.9655 102.48 75.3337 102.362 74.2523C102.236 73.0965 101.593 71.8639 101.214 70.7786ZM104.574 96.4205C104.564 95.3027 104.343 94.2925 104.202 93.2032C104.086 92.3038 103.867 91.8914 103.318 91.1928C103.215 91.0612 103.111 90.9299 103.008 90.7987C102.831 90.3136 102.581 90.2876 102.258 90.7198C101.993 90.6825 101.767 90.8089 101.453 90.7356C101.093 90.6516 100.456 90.1549 100.031 90.0164C98.9326 89.6576 98.2361 88.8212 97.1447 88.4541C96.9648 88.3934 96.5555 88.6135 96.3056 88.5645C96.0533 88.271 95.7363 88.1408 95.3537 88.1737C95.0696 88.2069 94.7851 88.2193 94.4996 88.2114C92.9643 88.1243 91.9366 87.3342 90.5265 86.9215C88.9871 86.4715 87.4772 86.9455 85.9391 86.8359C84.7422 86.7505 83.8438 86.1291 82.5944 86.1716C80.9604 86.2271 81.3946 86.9421 81.5914 88.3848C81.7628 89.6397 81.626 90.4154 83.0475 90.6204C84.3562 90.8089 85.4946 90.2091 86.8036 90.6328C88.1905 91.0811 89.3353 92.0508 90.3331 93.0747C90.8723 93.6283 91.1777 94.1558 91.9397 94.309C92.4837 94.4183 93.2573 94.1328 93.8017 94.0948C95.2855 93.9916 96.5658 94.4201 97.8351 95.1807C100.439 96.742 102.71 98.8579 104.893 100.944C104.931 99.4383 105.075 97.8728 104.574 96.4205ZM144.43 83.9079C146.755 81.3995 150.94 80.4887 154.069 79.5091C153.162 78.4897 151.426 77.4497 150.069 77.4616C148.666 77.4744 146.816 78.2747 145.492 78.7447C142.734 79.723 140.627 81.891 138.499 83.7982C133.384 88.3831 129.185 93.5796 124.813 98.8525C126.767 100.081 128.871 101.527 130.495 103.164C131.251 103.925 132.142 104.746 132.771 105.621C133.017 105.963 133.143 106.357 133.351 106.711C133.762 107.409 133.336 107.49 134.284 107.435C132.411 103.151 131.549 97.4176 132.549 92.8337C133.123 90.205 134.999 88.0105 137.201 86.5592C138.315 85.8247 139.523 85.1669 140.8 84.7631C141.59 84.5132 144.041 84.6222 144.43 83.9079ZM224.908 41.8424C225.116 40.3181 225.126 38.7855 225.261 37.2544C225.389 35.7924 225.706 34.433 225.41 32.9536C224.337 33.3625 224.071 33.6128 223.285 34.4028C222.359 35.3345 221.483 36.1918 220.395 36.9078C217.985 38.4952 215.762 40.4415 213.583 42.3285C209.132 46.184 204.524 50.3775 199.193 53.0247C194.191 55.5088 189.348 58.2304 184.165 60.4008C181.747 61.4134 179.42 62.3139 176.974 63.3357C174.116 64.5292 171.364 65.9709 168.458 67.0332C167.053 67.5466 165.658 68.0913 164.25 68.5945C162.76 69.1268 160.77 69.3602 159.468 70.1822C158.386 70.8647 157.434 72.0983 156.505 72.9779C154.867 74.5289 156.974 74.12 158.1 74.2701C159.525 74.4604 160.701 74.8415 161.938 75.4544C163.042 76.0011 164.316 75.6494 165.503 75.7694C166.88 75.9082 168.014 75.6296 169.359 75.6063C171.02 75.5775 172.661 75.4575 174.324 75.4781C177.172 75.5137 180.055 75.6625 182.885 75.5264C184.116 75.4674 185.355 75.5418 186.588 75.4791C188.028 75.4061 189.283 74.896 190.683 74.6533C196.116 73.7107 201.579 72.7362 206.569 70.3097C211.87 67.7317 216.341 64.667 220.512 60.4502C222.906 58.0309 223.479 55.7131 223.752 52.3371C224.036 48.8172 224.558 45.3551 224.908 41.8424ZM126.906 185.753C130.273 185.291 133.722 184.661 136.976 183.646C138.58 183.146 140.179 182.644 141.798 182.191C143.615 181.681 143.94 181.347 144.529 179.566C142.27 180.101 140.111 180.717 137.781 181.076C136.61 181.257 135.541 181.7 134.398 181.871C133.078 182.069 131.706 181.652 130.395 181.803C129.157 181.944 127.933 182.753 126.721 183.091C125.669 183.384 124.617 183.482 123.579 183.805C122.57 184.12 121.48 184.45 120.439 184.651C119.456 184.841 118.505 184.545 117.639 185.186C118.963 185.744 120.981 185.925 122.346 185.783C123.178 185.697 124.049 185.653 124.883 185.753C125.554 185.834 126.276 186.156 126.906 185.753ZM148.804 149.773C148.806 147.903 149.056 146.118 149.313 144.266C147.289 143.932 145.679 145.324 143.866 145.923C145.332 148.552 145.507 150.27 144.643 153.259C145.581 152.845 146.528 152.509 147.469 152.117C147.783 151.986 148.219 151.833 148.47 151.596C149.114 150.989 148.889 150.702 148.804 149.773ZM112.874 106.462C112.839 104.215 112.827 101.97 112.719 99.7252C112.672 98.728 112.722 97.6565 112.558 96.6752C112.364 95.5262 111.541 95.0768 110.646 94.2809C110.339 96.4856 110.786 99.1441 110.983 101.396C111.099 102.728 111.096 103.759 111.469 105.011C111.905 106.475 111.465 107.132 113.067 107.585C113.002 107.211 112.938 106.836 112.874 106.462ZM85.837 122.013C88.0239 120.759 89.3946 118.884 90.9858 116.988C93.0757 114.497 94.4725 112.573 95.2944 109.375C95.8748 107.115 96.4931 103.519 95.2197 101.385C94.6483 100.427 93.573 98.765 92.5348 98.3235C91.4496 97.8622 89.9002 98.6578 88.9106 99.0807C86.2846 100.203 83.9888 101.904 81.455 103.252C78.672 104.732 76.008 106.675 73.4814 108.556C68.493 112.269 63.9434 115.928 59.2175 119.931C57.3625 117.761 61.6663 113.869 63.2739 112.54C65.636 110.586 67.8688 108.351 70.3573 106.448C73.2901 104.207 76.2938 102.099 79.4497 100.181C80.9096 99.2939 82.4117 98.1162 83.9798 97.4437C84.6256 97.1667 85.2149 97.0693 85.8216 96.6851C86.3481 96.3512 86.7916 95.9193 87.399 95.7233C86.9644 94.9222 84.3086 93.7599 83.3958 93.6584C81.6171 93.4606 79.3301 94.0437 77.6032 94.4296C74.3983 95.1467 70.9716 95.7075 67.9908 97.0196C66.6163 97.6246 65.6702 98.4514 64.5487 99.4845C63.1399 100.782 62.5507 102.333 61.7637 104.07C60.1173 107.704 58.3346 111.29 56.7571 114.953C55.3089 118.315 53.8614 121.154 51.2988 123.821C50.2191 124.945 49.1163 126.072 47.9468 127.103C47.3089 127.665 44.252 129.688 44.7744 130.434C44.9811 130.729 47.3096 130.613 47.7514 130.656C48.6793 130.747 49.5952 130.898 50.5255 130.965C52.3778 131.1 54.0218 131.383 55.8717 131.334C57.6984 131.285 59.4777 131.496 61.3002 131.336C63.0244 131.185 64.7307 130.971 66.4463 130.745C70.2908 130.241 73.9167 128.466 77.5001 127.074C79.095 126.454 80.4907 125.66 82.0027 124.958C83.2521 124.378 85.1298 123.13 85.837 122.013ZM75.125 87.8381C74.5854 87.8244 73.5657 87.554 73.3456 88.0445C73.2229 88.3183 73.675 89.2024 73.7881 89.5424C73.9918 90.1539 74.0168 90.6547 74.5402 90.8336C75.0664 91.0136 76.5098 90.5748 77.0764 90.5238C77.8236 90.4569 78.48 90.3208 79.2252 90.1892C78.9945 89.5554 78.843 88.5518 78.2617 88.1504C77.6049 87.6965 75.8493 87.8909 75.125 87.8381ZM175.573 97.7186C175.029 97.0899 174.454 97.1876 173.748 96.9662C172.86 96.6871 172.043 96.1442 171.201 95.7517C169.465 94.9421 167.56 94.6634 165.779 93.9529C162.364 92.59 159.048 91.2998 155.615 90.1666C153.806 89.5695 151.972 89.0587 150.095 88.7238C148.351 88.4133 145.892 87.6163 144.154 87.918C141.234 88.4249 137.227 91.6388 136.198 94.393C135.601 95.9934 136.046 97.4964 136.371 99.0948C136.77 101.059 137.119 103.085 137.9 104.944C139.251 108.162 142.92 109.042 145.878 109.969C149.161 110.997 152.456 111.455 155.736 112.454C157.392 112.959 159.096 113.194 160.74 113.689C162.321 114.166 163.818 114.37 165.493 114.714C169.87 115.613 174.317 116.252 178.72 116.965C181.021 117.338 183.305 117.74 185.6 118.132C186.571 118.297 187.569 118.266 188.513 118.556C189.593 118.888 190.28 119.319 191.482 119.052C189.417 115.016 188.073 110.689 185.25 107.084C182.424 103.475 179.428 100.121 175.573 97.7186ZM142.303 73.2394C144.063 72.8836 145.831 72.5919 147.55 72.1319C148.241 71.9468 148.988 71.6047 149.635 71.2931C150.353 70.948 150.532 70.5078 151.082 70.043C151.309 70.149 151.522 70.1301 151.719 69.9872C151.812 69.6787 151.998 69.438 152.28 69.2653C152.751 68.7659 153.35 68.409 153.871 67.9641C155.171 66.8532 156.374 65.6014 157.608 64.4178C158.884 63.1934 159.985 61.9173 160.796 60.3278C160.991 59.9463 161.494 59.2645 161.608 58.9392C161.762 58.5012 161.718 57.9887 161.928 57.5719C162.104 57.2216 162.572 57.0039 162.768 56.6163C163.064 56.0325 163.01 55.213 163.229 54.5771C163.723 53.143 164.329 51.7359 164.748 50.2774C165.707 46.9412 165.566 43.003 165.441 39.5558C165.375 37.7415 164.797 35.9676 164.325 34.228C163.874 32.5635 163.547 30.7722 162.887 29.1756C162.424 28.0543 161.698 27.0997 161.255 25.959C160.637 24.364 160 22.8466 159.524 21.1673C158.562 17.7691 157.113 14.6509 155.471 11.5337C154.78 9.37526 154.073 7.2624 153.109 5.19582C151.253 6.81782 149.239 8.35825 147.543 10.1369C146.155 11.592 144.552 13.2123 143.039 14.5261C141.317 16.0213 139.703 17.4548 137.865 18.7974C136.861 19.5306 136.076 20.4681 135.17 21.3058C134.226 22.1778 133.161 22.6875 132.289 23.637C131.465 24.5354 130.81 24.9217 129.917 25.5768C129.25 26.0669 128.759 26.8951 128.105 27.4428C126.272 28.9778 124.759 30.8339 123.059 32.5005C119.247 36.237 115.694 40.0096 112.357 44.2075C111.901 44.4752 111.365 45.4515 111.002 45.9478C110.343 46.8472 109.883 47.8776 109.27 48.8079C108.597 49.8307 107.831 50.8193 107.248 51.8987C106.948 52.455 106.831 53.1909 106.48 53.6965C106.282 53.9817 105.888 54.1442 105.674 54.4469C104.164 56.5803 104.661 58.4686 105.384 60.7933C106.122 63.1667 106.659 65.4941 107.722 67.7506C108.864 70.1747 109.873 72.6529 110.939 75.1099C111.44 76.2623 111.964 77.4041 112.493 78.5438C112.806 79.2198 113.245 80.9569 113.976 81.3604C115.301 82.0922 115.189 79.9132 115.404 79.0628C115.672 77.9974 116.108 76.9791 116.415 75.9247C117.09 73.6127 118.745 71.0364 118.945 68.6839C120.638 65.1201 121.066 61.0823 122.961 57.5592C123.771 56.0548 124.396 54.5703 125.372 53.1238C126.42 51.571 127.26 50.1255 127.911 48.4065C128.61 46.562 129.769 44.5136 130.884 42.8844C131.393 42.1399 131.952 41.5486 132.422 40.7939C133.042 39.796 133.626 38.7711 134.236 37.7658C136.634 33.8143 139.333 29.8594 142.084 26.1427C143.277 24.5296 144.462 22.8696 145.797 21.5351C146.462 20.8705 149.668 16.1245 150.504 16.3613C152.955 17.0551 146.449 26.7641 145.834 27.8079C143.56 31.6634 141.558 35.717 139.182 39.5047C136.701 43.4579 134.324 47.3981 132.235 51.5768C131.125 53.7994 130.442 56.2289 129.192 58.3747C127.997 60.4265 126.852 62.3745 125.909 64.5563C124.856 66.9903 124.054 69.583 123.157 72.0791C122.402 74.1786 120.65 76.5283 120.628 78.7954C122.385 78.3553 124.189 78.0653 125.978 77.7431C127.827 77.4103 129.662 76.7072 131.487 76.2003C135.149 75.1833 138.985 75.1805 142.303 73.2394ZM67.391 51.3993C67.5332 51.9234 67.6244 52.455 68.1903 52.6895C67.8993 51.824 67.6131 50.9646 67.2679 50.119C67.309 50.5461 67.3502 50.9725 67.391 51.3993ZM17.3985 224.166C16.8422 218.437 16.7095 212.543 17.6364 206.851C17.8482 205.55 17.8527 204.075 18.3223 202.845C18.8381 201.495 18.6894 200.334 19.028 198.941C19.6882 196.223 20.5318 193.511 21.194 190.792C21.8669 188.029 22.9528 186.04 24.412 183.64C25.1013 182.506 25.8787 181.54 26.6705 180.51C27.0901 179.964 27.2169 180.01 27.3283 179.273C27.4753 178.305 27.0517 177.449 26.9643 176.527C26.845 175.269 27.1912 173.877 27.6844 172.738C28.2428 171.446 28.4224 170.074 28.9945 168.805C29.5066 167.669 30.4064 167.11 30.585 165.862C30.7413 164.773 30.9315 163.454 30.9877 162.379C31.0446 161.287 30.3756 160.441 29.5292 159.876C29.1443 159.619 28.7875 159.581 28.4077 159.238C27.9943 158.866 27.5813 158.253 27.1912 157.827C26.4014 156.963 26.0227 155.148 25.2041 154.682C24.6718 154.378 23.7854 154.462 23.1917 154.272C22.4674 154.04 21.9265 153.675 21.3723 153.167C20.4584 152.331 19.6848 151.309 19.0777 150.233C18.7309 149.618 18.4422 148.972 18.1735 148.319C18.0169 147.939 17.7286 146.455 17.4125 146.259C16.6968 145.813 15.3418 146.776 14.3811 146.158C13.1968 145.397 12.5602 143.519 12.2363 142.226C11.873 140.773 11.849 139.258 11.5264 137.792C11.1593 136.125 10.771 134.467 10.4549 132.788C9.89244 129.797 9.30972 126.533 9.58874 123.511C9.64975 122.847 9.84788 122.091 9.80949 121.433C9.7735 120.819 9.43792 120.216 9.37691 119.58C9.25694 118.32 9.92294 116.831 9.58668 115.728C9.09446 114.113 8.47918 113.32 9.13422 111.557C9.58189 110.354 10.7237 109.5 11.0987 108.39C11.2824 107.847 11.1223 107.214 11.2783 106.655C11.4716 105.963 11.9439 105.695 12.2747 105.116C12.9212 103.986 12.9106 103.155 14.101 102.413C15.6092 101.473 15.8755 100.949 16.8086 99.4869C17.4403 98.4977 18.7723 97.697 19.8133 97.1725C21.0617 96.5442 22.198 95.7565 23.4741 95.1731C24.1148 94.8804 24.8504 94.674 25.4513 94.3224C25.7536 94.1455 25.9661 93.8438 26.3055 93.6845C27.3389 93.1981 29.4072 93.2988 30.4633 93.4243C31.9132 93.5967 33.3824 94.0488 33.8077 95.5968C34.6016 94.8482 35.8514 94.6062 36.794 94.1465C37.9059 93.6046 39.1595 93.4161 40.2834 92.8553C42.906 91.5473 45.3465 90.219 48.2289 89.4992C47.6945 87.6637 47.5272 85.6269 45.932 84.4508C44.4306 83.3437 42.8621 82.4257 41.4804 81.1599C40.7938 80.5305 40.0586 79.9396 39.4162 79.2636C38.9521 78.7752 38.4434 77.6965 37.7918 77.5727C37.3613 77.4908 36.2822 78.3368 35.8668 78.5041C34.9451 78.8746 34.0175 79.2273 33.0242 79.3421C29.5481 79.7442 25.9785 77.2022 25.2398 73.8232C24.2725 69.3973 25.6916 66.8254 28.9568 64.0164C28.4358 63.7096 27.9144 63.4028 27.3938 63.0957C27.2207 62.9939 27.0472 62.8921 26.8741 62.79C26.4714 62.3169 26.1855 62.3731 26.0155 62.9586C25.1277 63.5742 24.5988 64.6159 23.5986 65.1993C22.6676 65.7423 21.8508 65.9003 20.7683 65.8664C20.1379 65.8465 19.5916 65.865 18.9965 65.6137C18.6578 65.4657 18.3497 65.2692 18.0731 65.0245C17.8263 64.5357 17.5034 64.498 17.1044 64.9114C16.2437 65.0739 15.5815 65.6357 14.6896 65.7258C14.3581 65.7594 13.5605 65.8547 13.2235 65.7933C12.6864 65.6963 12.601 65.1561 12.1613 65.0019C11.0867 64.6248 9.85782 65.6861 8.89599 65.3364C8.15526 65.0673 7.11768 63.8598 6.7756 63.1756C6.30737 62.2398 6.47259 61.0675 5.76716 60.2706C5.17416 59.6005 4.32511 59.2734 3.75302 58.5365C3.02394 57.5963 2.85118 56.6094 2.58553 55.4909C2.25681 54.1072 1.46981 52.9297 1.00329 51.582C0.216627 49.3101 -0.00788918 46.8273 0.854872 44.55C1.25215 43.5007 1.85372 43.1035 2.43232 42.2112C3.09558 41.188 3.18847 39.8108 3.7825 38.7012C4.21268 37.8974 4.58802 37.2043 5.34143 36.7025C6.27001 36.0838 7.10329 36.0937 7.84985 35.1525C8.51106 34.3199 8.9361 33.5089 9.89004 32.9389C10.7233 32.4412 11.9179 32.6136 12.6528 32.1529C13.4518 31.6521 13.6455 30.7266 14.6285 30.3125C15.4975 29.9461 16.4812 29.907 17.406 29.9773C18.5375 30.0633 19.7533 30.5309 20.8924 30.4075C22.0228 30.2851 22.8075 29.4679 24.003 29.3113C25.2408 29.1495 26.4395 29.1495 27.573 29.7452C28.5246 30.245 29.2218 31.5455 30.2727 31.758C31.2061 31.9469 31.7569 31.5016 32.728 31.8488C33.5599 32.146 34.2688 32.4106 34.7185 33.2614C34.8508 33.5116 34.882 34.3117 35.0829 34.4752C35.5408 34.8481 35.2532 34.6054 35.8784 34.5163C37.084 34.3446 38.4242 33.5192 39.579 33.1061C40.7421 32.6897 42.0134 32.2639 43.2309 32.0446C43.6309 31.9726 44.2709 32.0555 44.636 31.9479C45.075 31.8183 45.3493 31.4924 45.7952 31.3134C48.0716 30.401 50.4682 31.7412 52.7162 31.9404C54.2501 32.0764 54.6785 32.3236 55.5975 33.5778C56.3852 34.6527 56.9535 34.5286 58.0103 35.0973C58.93 35.5923 59.8452 37.0837 60.3843 37.9636C61.0939 39.1211 60.7062 40.011 60.9362 41.1829C61.1354 42.1992 62.1993 42.505 62.9287 43.2402C63.9478 44.2668 64.8497 45.472 65.8204 46.5525C66.0137 45.0377 65.1424 43.4414 64.7427 42.0176C64.2707 40.338 64.2591 38.7098 63.9735 37.0189C63.4426 33.8763 62.8756 30.6954 62.6357 27.5021C62.3793 24.0898 62.1839 20.6323 61.813 17.2436C61.6516 15.7711 61.8099 14.3235 61.7136 12.8578C61.6694 12.1877 61.6122 11.5358 61.6077 10.8639C61.6036 10.1499 61.3208 8.49536 61.6101 7.88899C62.1129 6.83428 63.4001 8.30066 64.1816 8.6688C64.7259 8.92519 65.3432 8.95399 65.8763 9.24706C66.6897 9.69369 66.9964 10.4368 67.5421 11.1375C69.2968 13.3884 72.2193 14.9666 74.558 16.543C80.2217 20.3615 85.5151 24.8333 91.3258 28.4136C94.4547 30.3413 97.626 32.0216 100.552 34.2736C103.015 36.1705 106.503 38.6741 107.5 41.7687C108.993 40.798 109.654 39.0077 110.786 37.7024C112.076 36.2141 113.307 34.6774 114.578 33.1689C115.391 32.2026 116.373 31.6147 117.187 30.7115C118.428 29.3332 119.71 27.8987 121.078 26.6096C126.078 21.8968 131.298 17.5343 136.691 13.2561C138.256 12.0146 139.851 10.8094 141.392 9.5391C142.962 8.24513 144.324 6.66769 145.981 5.51323C147.417 4.51302 148.625 3.24304 150.096 2.28945C151.014 1.69405 153.24 -0.264215 154.497 0.578664C154.916 0.859395 154.893 1.36533 155.055 1.78728C155.428 2.75733 155.994 3.5697 156.54 4.4496C157.565 6.1028 158.371 7.88248 159.267 9.608C160.17 11.35 161.185 12.9847 161.845 14.8425C162.566 16.8717 163.166 18.9441 164.003 20.9315C165.711 24.9852 167.443 28.8657 168.338 33.1942C168.825 35.5498 169.109 37.9122 169.361 40.3047C169.506 41.6768 169.561 43.0027 169.442 44.3806C169.384 45.0545 168.787 46.8274 169.258 47.3761C172.955 45.3541 176.474 43.4637 180.517 42.3963C182.363 41.9086 184.175 40.9676 186.047 40.4271C188.302 39.7758 190.688 39.0454 192.86 38.1682C194.894 37.3462 197.03 36.8307 199.092 36.0746C201.331 35.254 203.759 34.5242 206.079 33.9439C210.818 32.7582 215.904 31.6394 220.45 29.857C221.723 29.3579 222.938 28.7371 224.226 28.2662C225.052 27.9635 226.373 27.1923 227.242 27.281C229.121 27.472 229.186 31.1856 229.178 32.6249C229.152 37.1375 229.073 41.6631 228.527 46.2217C227.94 51.1206 228.003 56.4216 226.107 61.0744C224.468 65.0948 220.525 68.4437 216.864 70.6168C214.483 72.0304 212.021 73.7429 209.483 74.8268C207.295 75.7608 205.08 76.4982 202.87 77.3366C198.133 79.1334 193.161 80.4942 188.106 81.0317C189.132 81.7011 190.272 82.3198 191.358 82.8981C192.64 83.5809 193.54 84.3459 194.682 85.182C196.593 86.5815 198.527 88.0609 200.093 89.868C202.189 92.2856 203.669 94.4348 204.104 97.7076C204.531 100.913 202.733 104.001 201.658 106.919C200.386 110.372 199.134 113.807 198.071 117.332C197.727 118.473 196.826 120.292 197.013 121.515C197.103 122.106 197.566 122.468 197.559 123.115C197.541 124.569 196.849 124.459 195.74 124.316C194.262 124.125 192.749 124.066 191.28 123.813C189.886 123.572 188.548 123.625 187.176 123.423C185.77 123.216 184.45 123.034 183.019 122.959C182.286 122.921 181.553 122.889 180.819 122.878C180.088 122.867 179.795 122.63 179.155 122.524C178.504 122.416 177.816 122.684 177.122 122.587C176.391 122.485 175.629 122.063 174.902 122.059C173.98 122.053 173.981 122.151 173.08 121.89C172.408 121.696 171.755 121.815 171.069 121.754C169.562 121.62 168.029 121.329 166.548 121.013C165.576 120.806 164.633 120.755 163.656 120.621C162.954 120.524 162.25 120.054 161.545 120.074C163.461 123.13 164.145 125.567 164.119 129.145C164.093 132.495 162.772 135.474 160.89 138.217C159.201 140.676 157.268 142.077 154.487 143.06C152.851 143.639 152.178 143.442 152.019 145.273C151.871 146.983 151.75 148.648 151.487 150.347C153.316 149.503 158.509 145.777 159.565 148.741C160.748 152.063 157.953 155.024 156.38 157.607C158.252 157.36 160.239 156.513 160.665 158.966C160.861 160.093 160.4 161.279 159.975 162.3C159.68 163.011 158.181 164.895 158.302 165.506C158.365 165.823 159.224 166.274 159.424 166.563C159.712 166.98 159.818 167.457 159.897 167.949C160.07 169.038 159.869 170.171 159.312 171.131C158.377 172.741 155.904 174.129 154.351 175.028C152.403 176.156 150.795 177.332 148.534 177.634C148.341 177.66 147.584 177.723 147.497 177.808C147.342 177.959 147.323 179.495 147.267 179.776C147.026 180.991 146.698 182.357 146.204 183.496C145.417 185.311 142.769 185.767 141.067 186.526C138.602 187.626 136.156 188.409 133.593 189.237C132.324 189.647 131.054 190.049 129.757 190.359C128.902 190.564 126.566 190.592 125.948 191.163C125.565 191.516 125.451 192.375 125.08 192.822C124.887 193.054 124.473 192.881 124.306 193.036C123.845 193.463 123.665 194.675 123.253 195.24C123.172 195.352 122.431 196.028 122.404 196.228C122.357 196.59 123.071 197.652 123.226 197.989C123.792 199.221 124.329 200.462 124.746 201.754C125.476 204.015 125.434 206.417 126.12 208.653C127.57 213.374 128.253 218.297 129.047 223.175C129.47 225.766 129.965 228.357 130.433 230.939C130.895 233.488 131.946 235.878 132.761 238.323C134.268 242.849 134.319 247.841 133.848 252.537C133.717 253.835 134.362 257.404 132.043 256.269C130.022 255.28 130.182 251.293 129.636 249.42C128.19 244.462 127.601 239.243 126.087 234.276C124.534 229.182 123.662 224.129 122.817 218.879C121.945 213.456 120.808 208.099 119.871 202.698C119.673 201.561 119.594 196.823 118.209 196.438C117.63 196.277 116.202 196.77 115.495 196.8C113.897 196.867 112.396 197.202 110.845 197.583C108.686 198.112 106.574 197.731 104.44 198.163C103.198 198.414 101.932 198.509 100.69 198.759C99.3443 199.03 98.1038 199.586 96.7451 199.826C94.3995 200.24 92.0604 199.818 89.6956 199.952C87.2677 200.091 84.7223 200.361 82.2927 200.202C79.7925 200.039 78.1098 198.549 75.6573 198.532C73.3107 198.514 70.8605 198.836 68.5447 198.422C67.5188 198.238 66.3208 197.98 65.3412 197.694C64.3259 197.397 63.4683 196.65 62.4379 196.302C59.7999 195.411 57.0574 196.098 54.2967 195.579C53.1734 195.367 51.4959 195.172 50.4744 194.7C49.8595 194.416 49.8029 194.318 49.2168 194.211C48.7108 194.118 48.306 194.059 47.7998 193.899C46.5661 193.507 45.5409 193.298 44.3432 192.717C43.3379 192.229 42.6129 191.443 41.4694 191.217C40.9196 191.109 40.3448 191.223 39.8035 191.079C39.1416 190.904 38.4681 190.433 37.8274 190.168C36.589 189.654 35.4932 189.016 34.4621 188.153C32.412 186.437 31.1776 184.51 30.0362 182.126C28.5054 185.9 27.5319 189.908 26.2228 193.774C25.5987 195.618 25.515 197.452 25.1914 199.359C24.8305 201.485 24.4226 203.571 23.9804 205.65C23.8241 206.386 24.0651 207.145 24.0034 207.898C23.9163 208.958 23.5787 210.001 23.4903 211.081C23.3165 213.2 23.2466 215.393 23.1886 217.517C23.0769 221.617 24.0065 225.699 23.9472 229.805C23.9352 230.655 23.5811 231.507 23.7251 232.361C23.918 233.507 24.3636 234.265 24.4055 235.483C24.4781 237.585 24.6646 239.673 24.5381 241.776C24.3335 245.179 23.4704 248.664 22.1665 251.892C21.4689 253.619 20.9119 255.489 19.9583 257.096C19.2697 258.255 18.3545 260.213 16.7417 259.879C15.2863 259.579 15.0968 258.516 15.4035 257.276C15.8827 255.343 16.2005 253.442 16.5525 251.483C16.9368 249.346 16.8418 247.204 17.1418 245.063C17.4513 242.853 18.1094 240.623 18.1831 238.383C18.2657 235.864 17.2724 233.304 17.5106 230.782C17.6179 229.645 17.89 228.927 17.7149 227.751C17.6388 227.243 17.5853 226.73 17.5174 226.221C17.4297 225.558 17.7293 224.729 17.3985 224.166Z" fill="#24243B"/>
</svg>
