<svg width="311" height="238" viewBox="0 0 311 238" fill="none" xmlns="http://www.w3.org/2000/svg">
<path fill-rule="evenodd" clip-rule="evenodd" d="M26.0323 46.0692C26.6404 46.2095 26.9348 45.9678 27.0403 45.3394C26.642 45.6278 26.3371 45.8485 26.0323 46.0692ZM33.9945 194.934C33.4551 194.963 33.9889 196.33 34.0578 196.324C34.0365 195.861 34.0155 195.397 33.9945 194.934ZM181.054 25.8988C181.757 26.0169 185.714 27.099 184.382 24.8918C183.666 23.7057 182.222 25.8997 181.054 25.8988ZM167.979 52.5828C165.966 53.6968 172.176 57.6298 173.065 57.8762C173.933 58.117 180.478 58.9846 180.557 57.5433C178.272 57.0379 175.978 57.343 173.739 56.6679C171.001 55.8417 169.943 54.4813 167.979 52.5828ZM265.87 113.319C265.99 111.526 266.063 109.784 266.427 108.018C266.503 107.652 267.119 105.962 266.982 105.742C266.767 105.397 265.126 105.11 264.788 104.994C264.527 108.507 264.231 112.009 263.743 115.501C264.889 115.105 264.59 113.529 265.87 113.319ZM51.7661 31.0392C51.7661 29.1169 51.2538 26.2564 50.8706 24.3907C50.5571 22.8656 49.4404 21.3819 48.802 19.8479C48.603 20.9037 47.9053 22.5166 48.1284 23.5935C48.42 24.9975 49.0849 24.7669 49.0849 26.4948C49.0849 27.5454 48.9112 28.7419 49.1025 29.7752C49.4781 31.8107 50.0807 31.4852 51.7661 31.0392ZM199.708 16.2067C197.403 14.9298 193.463 17.3584 191.397 18.4751C188.944 19.8012 186.477 23.3657 185.481 25.9548C186.456 25.8466 187.28 25.8283 187.989 25.3035C188.354 25.0333 188.737 24.2702 189.082 23.9101C189.97 22.9809 191.089 22.1157 192.064 21.2703C194.387 19.2556 196.9 17.4727 199.708 16.2067ZM213.331 48.3911C215.246 48.0542 217.452 47.185 218 45.029C218.53 42.9454 217.002 41.9365 215.136 41.6775C210.853 41.0821 207.957 47.296 213.331 48.3911ZM198.388 41.9609C200.499 43.435 202.807 43.2486 204.898 41.6014C206.572 40.2828 208.206 38.0279 206.309 36.416C203.26 33.826 198.891 39.1255 198.388 41.9609ZM289.459 205.087C288.137 205.168 286.006 206.549 284.847 207.23C283.393 208.083 281.862 208.983 280.456 209.771C277.537 211.405 274.257 213.239 271.02 214.464C267.847 215.665 264.647 217.176 261.406 218.597C260.02 219.205 258.079 219.915 256.508 219.75C255.069 219.599 253.558 218.12 252.269 217.472C250.268 216.466 248.967 215.16 247.368 213.55C246.671 212.849 244.897 209.902 243.957 209.792C243.153 209.697 240.957 211.455 240.329 211.832C239.36 212.416 237.896 213.373 236.975 214.106C236.063 214.832 236.012 214.299 235.948 215.252C235.905 215.9 237.392 217.172 237.85 217.695C239.39 219.45 240.997 221.168 242.452 222.998C243.701 224.571 244.864 226.259 245.937 227.958C246.977 229.605 248.905 231.512 249.325 233.438C251.746 231.068 254.124 232.224 257.166 231.51C258.484 231.201 259.654 230.47 260.888 230.038C261.917 229.677 263.022 229.559 264.081 229.325C268.777 228.288 273.334 226.258 277.727 224.444C278.753 224.02 279.604 223.209 280.596 222.72C281.658 222.195 282.818 222.019 283.889 221.536C286.644 220.294 289.438 218.988 292.162 217.658C295.085 216.232 298.164 214.998 301.032 213.492C302.764 212.583 306.125 210.952 306.926 209.026C305.012 209.369 303.405 210.46 301.633 211.011C298.507 211.984 298.66 209.041 298.66 206.798C297.614 206.798 295.513 208.299 294.512 208.764C293.219 209.365 291.522 210.955 290.087 211.062C286.534 211.326 288.251 206.652 289.459 205.087ZM163.954 45.5588C161.969 44.9598 161.572 41.1665 160.732 39.5978C159.492 37.2839 157.117 35.4098 155.222 33.6016C153.478 31.9386 151.612 30.5316 149.656 29.1351C147.653 27.7043 146.267 25.8222 144.425 24.2445C136.731 17.656 127.336 15.4256 117.407 15.0812C107.432 14.7353 97.3654 15.837 87.3432 16.4774C86.066 16.559 84.9246 16.5949 83.6505 16.8103C83.3444 16.7179 83.0387 16.6255 82.7326 16.5331L82.0238 17.0434C81.5325 17.1157 80.8336 17.1908 80.3813 17.2786C78.0457 17.7314 75.7114 18.3339 73.3771 18.8618C68.4286 19.9805 63.644 21.0088 58.6567 22.0539C57.4674 22.303 54.575 22.4632 53.6422 23.2177C52.9186 23.8031 53.1889 24.0337 53.358 25.1091C53.5135 26.0982 53.6687 27.087 53.8245 28.0761C54.1266 29.9962 53.9955 30.659 56.0715 30.4602C57.8562 30.2893 59.5959 29.9728 61.4007 29.8908C63.9955 29.7725 66.6331 29.6219 69.2285 29.6732C71.7994 29.7242 74.7614 29.2977 77.2783 29.957C76.5023 28.3305 76.0453 23.4038 78.1047 26.8131C79.0727 28.4158 78.8329 30.3798 80.9139 30.952C82.6107 31.4184 84.4565 31.6907 86.2055 32.1334C93.0995 33.8786 100.285 35.0816 106.167 39.6254C111.931 44.0789 117.177 49.2056 124.555 50.8312C126.325 51.2213 128.477 51.4481 130.34 51.5381C131.426 51.5903 133.583 50.9332 134.32 51.9133C136.111 54.2922 129.479 57.0911 128.149 58.2762C125.447 60.6856 122.393 62.5686 120.053 65.3805C117.607 68.3192 115.506 71.5214 113.705 74.873C109.653 82.4129 106.791 90.4081 105.127 98.7999C104.34 102.773 103.45 107.323 104.158 111.388C104.444 113.028 105.363 114.661 106.777 115.596C107.237 115.9 107.813 116.111 108.344 116.271C108.847 116.435 109.362 116.533 109.89 116.563C109.948 116.266 110.061 115.992 110.227 115.742C110.601 115.548 111.388 115.647 111.65 115.472C112.403 114.968 113.094 113.999 113.834 113.415C115.118 112.4 116.506 111.436 117.919 110.617C121.483 108.551 125.363 107.337 129.177 106.037C137.029 103.363 145.252 101.17 153.589 100.353C157.988 99.9225 162.933 99.6576 167.293 100.474C170.105 101.001 175.81 103.47 175.956 106.883C178.506 102.569 176.889 98.0305 176.342 93.4194C175.73 88.2654 174.681 83.3977 176.411 78.3111C177.588 74.8511 179.613 70.286 183.055 68.5188C184.287 67.8861 186.918 68.2678 186.005 70.3589C185.981 70.4127 184.265 71.3898 184.021 71.6741C183.186 72.6466 182.553 73.9176 181.931 75.0338C176.984 83.9105 181.386 93.602 181.711 103.022C181.861 107.371 186.694 110.975 189.915 113.38C192.417 115.248 195.065 117.594 198.006 118.557C197.407 115.732 198.528 114.924 201.032 116.608C202.406 117.533 203.231 119.623 200.878 119.728C202.733 121.323 206.524 122.559 208.883 123.173C211.646 123.892 214.475 124.533 217.353 124.941C223.101 125.754 228.954 125.495 234.734 125.555C240.684 125.616 245.649 124.027 251.117 121.963C253.626 121.015 255.985 119.919 258.372 118.674C259.181 118.252 261.017 117.762 261.463 116.838C262.036 115.647 261.179 112.559 261.23 111.198C261.284 109.748 262.36 106.736 262.031 105.416C261.717 104.151 262.513 105.039 261.229 104.407C260.882 104.236 260.103 104.148 259.678 104.1C257.301 103.832 254.49 104.052 252.18 104.35C249.533 104.691 247.081 104.231 244.507 104.535C240.935 104.957 237.27 105.59 233.82 106.613C228.375 108.227 223.336 108.112 218.47 105.024C216.412 103.718 213.987 102.377 212.223 100.59C209.852 98.1872 208.114 94.7664 206.776 91.6986C203.83 84.9497 201.684 77.8642 197.652 71.6377C195.924 68.9692 193.52 66.7978 191.3 64.5256C190.25 63.4511 189.647 62.832 188.209 62.3696C187.048 61.9968 184.692 61.8828 184.465 60.3008C179.522 62.9767 172.708 65.0578 167.619 61.5053C162.953 58.2487 162.39 50.565 163.954 45.5588ZM163.697 110.051C157.255 110.762 151.017 111.296 144.682 112.762C138.29 114.242 131.623 116.497 125.556 118.725C123.176 119.598 120.16 120.214 118.005 121.567C116.406 122.571 116.606 122.533 117.753 124.382C118.522 125.621 119.168 127.007 119.99 128.195C123.332 133.028 127.909 137.162 131.75 141.546C135.993 146.39 140.965 151.186 145.827 155.431C150.505 159.513 155.116 163.887 160.089 167.555C170.454 175.201 180.952 182.741 191.724 189.801C197.707 193.723 203.547 197.74 209.546 201.69C212.665 203.743 215.576 206.01 218.89 207.726C222.309 209.496 226.486 211.974 229.301 214.588C231.266 211.113 235.421 208.864 238.53 206.616C239.151 206.168 239.819 205.561 240.414 205.058C241.545 204.101 241.603 204.26 240.998 203.165C240.333 201.96 238.518 200.989 237.568 199.993C236.699 199.081 236.126 198.157 235.337 197.181C232.712 193.936 229.332 191.242 226.394 188.29C223.566 185.449 220.937 182.563 218.173 179.537C216.803 178.038 215.248 176.96 213.935 175.444C212.112 173.337 210.314 171.18 208.514 169.053C205.284 165.235 202.57 161.183 199.427 157.346C193.708 150.364 189.37 142.471 184.364 134.981C181.292 130.385 177.493 126.094 174.7 121.316C173.162 118.684 171.681 116.061 170.578 113.185C169.95 111.547 170.102 111.419 168.57 110.939C167.091 110.477 165.224 110.156 163.697 110.051ZM83.6657 177.107C86.9269 176.792 90.2816 177.875 93.4463 178.008C96.5233 178.138 99.671 178.473 102.754 178.271C106.137 178.049 109.54 178.055 112.909 178.16C116.563 178.273 120.043 177.682 123.564 177.166C127.123 176.643 131 175.025 134.48 173.989C136.538 173.377 138.518 172.582 140.586 172.004C142.678 171.42 144.345 170.032 146.251 168.967C147.551 168.24 150.309 167.36 149.731 165.865C149.218 164.536 145.799 162.542 144.68 161.577C141.372 158.723 138.019 155.891 134.955 152.758C128.456 146.114 122.262 139.486 116.772 131.988C115.468 135.678 114.028 139.423 111.144 142.232C108.694 144.618 105.871 146.664 103.253 148.838C98.1711 153.059 92.0562 156.066 85.9855 158.497C82.9816 159.7 80.077 160.472 77.05 161.536C75.617 162.039 74.0912 161.941 72.7477 162.257C70.7117 162.736 68.5851 163.727 66.5229 164.309C63.6163 165.129 60.6775 165.705 57.6384 165.444C53.6832 165.103 50.3951 163.164 46.7932 161.762C46.9805 163.163 45.9042 168.13 46.7019 169.178C47.1441 169.759 49.9739 169.998 50.8506 170.194C54.4278 170.992 58.2355 171.475 61.8093 171.938C65.5994 172.429 69.1741 174.305 72.872 175.178C76.3619 176.002 80.2168 176.769 83.6657 177.107ZM19.9785 197.548C20.2062 200.207 20.5385 204.225 22.6911 206.138C23.5156 204.137 23.0583 201.433 23.423 199.301C23.6402 198.031 23.9349 196.781 24.2416 195.53C24.416 194.82 24.5227 192.773 24.8936 192.361C27.5563 189.4 28.0956 198.213 28.3971 199.237C29.3824 196.861 29.0574 194.222 29.9325 191.901C30.9792 189.123 32.6158 191.358 33.5082 193.102C33.7717 189.267 32.265 185.402 32.3184 181.494C32.3758 177.327 33.0842 174.555 36.2763 171.748C37.8025 170.407 41.8787 168.765 42.6131 167.078C42.738 166.792 42.7063 164.676 42.6248 164.381C42.2823 163.141 42.41 163.396 40.9048 163.035C39.586 162.718 38.3586 162.292 37.024 162.094C33.3888 161.556 30.5876 161.48 27.5066 163.743C24.3024 166.098 22.7793 170.286 21.9246 174.046C20.1784 181.727 19.3737 189.689 19.9785 197.548ZM271.647 112.727C277.092 112.033 282.483 109.805 287.853 109.435C291.082 109.213 294.682 108.473 297.845 107.795C299.925 107.35 304.271 106.983 305.433 104.97C304.03 105.402 302.18 106.386 300.714 106.424C299.636 106.452 299.26 106.656 299.047 105.176C298.945 104.468 299.176 103.618 299.605 103.062C300.345 102.104 301.93 101.635 303.006 101.025C304.457 100.204 305.806 99.3247 307.172 98.3687C306.755 97.3351 300.933 99.4082 300.022 99.7358C298.891 100.142 297.745 100.536 296.66 101.054C295.949 101.394 294.714 102.492 293.91 102.463C291.878 102.389 292.061 99.9364 293.046 98.5269C294.441 96.5308 297.222 95.0449 299.096 93.4929C297.093 93.5782 295.273 94.7488 293.432 95.4492C291.398 96.2235 289.337 97.1029 287.347 97.9669C282.462 100.088 277.259 101.541 272.292 103.587C273.785 106.134 272.088 107.387 269.649 106.451C269.282 108.599 269.138 110.787 269.138 112.961C269.975 112.883 270.811 112.805 271.647 112.727ZM45.2957 26.0453C45.3229 25.5749 45.6793 23.2798 45.2569 22.8826C45.1091 22.7438 42.7337 23.0783 42.4998 23.1126C40.9548 23.3395 39.6783 23.9178 38.2314 24.5341C34.6906 26.0425 31.11 27.4032 27.576 28.9218C20.9594 31.7649 14.4055 34.4053 8.22859 38.1018C12.8188 37.7136 17.5146 36.3838 21.6938 34.4461C23.4616 33.6266 30.0967 28.1166 30.292 32.9108C30.3784 35.0324 28.5514 35.7869 27.0089 36.8091C25.1201 38.0604 23.269 39.3014 21.5151 40.7338C20.5824 41.496 13.1462 46.497 13.506 47.2972C15.3947 46.8456 17.4254 45.4197 19.0889 44.4257C20.9403 43.3188 22.8824 42.3346 24.794 41.3288C25.8366 40.7798 28.2157 38.8733 29.3614 39.707C31.3464 41.1514 28.6258 43.8356 27.7318 44.8232C29.4694 44.6427 31.7975 42.113 33.1493 41.0586C34.8588 39.7252 36.6565 38.5339 38.3916 37.2215C40.205 35.8497 42.1039 34.5632 43.9451 33.2248C45.6648 31.9748 45.3862 31.9819 45.2177 29.9224C45.1118 28.6291 45.2214 27.3364 45.2957 26.0453ZM120.5 114.236C122.737 114.007 124.742 112.631 126.89 112.199C129.006 111.775 131.004 110.596 133.085 109.928C135.823 109.048 138.594 108.398 141.422 107.902C143.795 107.485 146.086 106.583 148.462 106.307C153.363 105.737 158.044 105.079 162.98 105.781C165.423 106.128 167.563 106.641 169.747 107.808C172.179 109.108 172.419 109.044 175.029 107.895C174.213 105.697 171.116 104.239 169.039 103.792C165.908 103.117 162.626 103.421 159.438 103.528C153.931 103.711 148.215 104.907 142.939 106.39C132.826 109.233 123.106 112.543 113.81 117.279C114.597 118.36 115.426 117.047 116.337 116.491C117.668 115.679 119.142 115.025 120.5 114.236ZM206.537 32.2348C204.773 31.8861 203.01 31.7458 201.248 31.3263C199.022 30.7962 198.047 31.6026 195.975 32.6384C196.804 33.0162 197.861 33.6702 198.743 33.8983C200.296 34.3002 199.776 33.9753 201.253 33.3843C202.562 32.8598 205.028 32.6486 206.376 32.9222C209.985 33.6548 209.406 37.9157 209.061 40.756C210.839 39.8918 211.065 38.2647 211.697 36.6091C212.381 34.8173 213.118 33.1902 213.645 31.3272C211.393 31.9164 208.877 32.2595 206.537 32.2348ZM234.871 99.7485C241.274 97.3576 248.466 97.9681 255.053 97.4108C257.588 97.1963 261.093 97.5805 263.588 98.3928C264.783 98.782 266.129 99.0669 267.263 99.594C267.871 99.8771 268.364 100.557 268.99 100.767C270.215 101.177 270.152 100.936 271.466 100.216C272.617 99.585 273.778 98.9829 274.962 98.4147C282.123 94.9794 289.35 91.9332 296.719 89.0685C298.632 88.3245 300.535 87.8234 302.501 87.1746C303.742 86.7647 305.913 85.9292 307.249 86.3542C311.905 87.8352 305.131 93.3984 303.604 94.831C305.504 94.7423 308.993 93.8558 310.093 95.9691C310.549 96.8454 310.388 98.127 309.98 99.0039C309.681 99.6459 309.029 100.017 308.7 100.623C308.079 101.765 308.318 101.355 308.413 102.499C308.674 105.677 308.052 107.084 305.404 109.123C302.901 111.05 299.664 111.871 296.68 112.714C291.46 114.19 285.983 114.608 280.696 115.881C278.21 116.48 275.614 116.867 273.121 117.319C270.352 117.821 267.095 117.432 264.751 118.969C260.067 122.041 255.771 125.876 250.572 128.098C245.983 130.06 241.705 131.019 236.775 131.866C232.133 132.663 227.326 132.097 222.844 132.211C217.603 132.345 212.741 131.987 207.745 130.477C202.664 128.94 197.762 126.974 193.44 124.036C190.997 122.376 188.565 120.776 186.267 118.907C183.465 116.627 181.556 113.925 179.46 110.996C178.256 112.295 177.294 113.016 175.718 113.847C180.53 119.133 184.593 125.265 189.159 130.77C191.062 133.064 192.641 135.537 194.446 137.88C196.232 140.199 197.419 143.068 199.38 145.226C201.211 147.239 202.45 149.573 204.003 151.807C205.905 154.547 208.466 156.945 210.492 159.612C212.583 162.364 214.722 165.079 216.993 167.661C219.098 170.053 221.338 172.41 223.307 174.895C227.312 179.952 232.057 184.522 236.612 189.089C237.545 190.025 238.571 190.932 239.399 191.964C240.011 192.724 240.606 193.228 241.342 194.021C241.958 194.684 242.712 195.844 243.216 196.647C244.105 198.064 244.639 198.686 245.808 199.911C246.579 200.719 248.117 202.328 247.787 203.582C247.584 204.351 246.653 204.377 246.391 205.02C246.245 205.378 246.546 205.835 246.535 206.194C246.48 207.959 247.336 208.448 248.743 209.741C250.161 211.045 251.993 212.087 253.663 213.06C254.923 213.793 256.229 214.79 257.624 214.121C258.594 213.655 259.601 212.768 260.621 212.242C263.202 210.91 265.99 209.714 268.622 208.641C274.506 206.241 280.403 203.629 286.05 200.555C289.235 198.821 292.71 197.104 296.217 196.267C297.797 195.891 299.463 194.943 300.626 196.35C301.781 197.745 301.036 199.648 300.389 201.058C302.022 200.823 304.188 200.362 305.245 201.981C305.645 202.594 305.385 204.212 305.823 204.569C306.016 204.726 307.576 204.383 307.884 204.464C311.866 205.512 310.478 211.414 308.475 213.636C303.899 218.714 297.072 221.217 291.116 224.142C289.558 224.908 287.979 225.562 286.374 226.192C284.317 226.998 282.435 228.017 280.347 228.769C276.869 230.023 273.507 231.845 270.117 233.229C266.655 234.643 262.801 235.349 259.164 236.398C256.08 237.287 249.533 239.316 249.466 234.332C246.554 236.6 242.831 229.198 241.349 227.45C240.012 225.873 238.681 224.272 237.413 222.639C236.255 221.149 235.117 217.526 233.601 216.555C232.674 215.961 231.648 217.149 230.222 217.432C227.746 217.923 226.52 217.227 224.432 216.077C220.607 213.97 217.08 211.379 213.158 209.443C209.275 207.525 205.962 204.745 202.321 202.414C198.832 200.181 195.057 198.32 191.781 195.84C185.356 190.976 177.886 187.616 171.858 182.213C168.751 179.428 165.105 177.109 161.789 174.527C160.278 173.35 158.68 172.349 157.111 171.26C156.228 170.647 155.378 169.736 154.411 169.27C153.451 168.807 153.939 168.626 153.041 168.975C152.53 169.174 151.943 170.103 151.522 170.477C145.295 176.009 138.262 178.625 130.403 181.093C128.624 181.652 126.968 182.26 125.162 182.732C123.44 183.183 122.179 183.96 120.304 184.231C116.845 184.731 113.439 184.758 109.955 184.779C106.525 184.799 102.997 184.851 99.6661 185.148C96.2385 185.453 92.6736 184.866 89.3093 184.588C87.6067 184.447 85.8469 184.195 84.1409 183.935C82.4774 183.683 81.0725 184.004 79.4355 183.825C74.8339 183.323 70.7377 182.28 66.3532 180.779C62.3524 179.41 58.2666 179.163 54.2182 178.019C52.0663 177.412 49.6289 176.911 47.6458 175.894C46.5192 175.316 44.861 173.238 44.3537 174.711C43.7526 173.936 43.3691 173.016 43.4348 172.019C41.895 172.396 41.1162 174.385 39.9869 175.427C38.7347 176.582 37.502 177.339 36.6485 178.903C34.7388 182.401 35.9795 187.181 36.7321 190.851C37.5211 194.7 38.2342 199.054 37.7781 202.983C37.6121 204.414 37.2326 206.508 35.4707 206.602C33.6776 206.698 32.6275 203.883 31.9928 202.649C30.6203 205.92 28.8195 207.072 26.2134 204.287C25.7178 206.142 27.0524 213.639 23.3298 212.771C20.5392 212.121 18.2119 206.015 17.3819 203.72C14.6492 196.166 15.0791 187.494 16.0251 179.641C16.9428 172.025 17.7941 163.646 23.967 158.187C26.6377 155.825 29.2435 155.437 32.6297 155.524C36.032 155.611 40.8101 157.133 43.0775 159.731C43.6394 158.77 42.5122 157.728 42.9651 156.732C43.5699 155.404 44.8341 155.96 46.0594 156.261C48.8279 156.94 51.4001 158.208 54.2506 158.687C55.7102 158.933 57.2132 158.858 58.6736 159.007C59.9588 159.137 60.3007 158.806 61.4162 158.609C62.2953 158.454 63.6301 158.675 64.4602 158.387C64.807 158.266 65.3865 157.641 65.8188 157.429C66.5242 157.084 67.5795 156.926 68.3537 156.816C73.0115 156.153 77.4644 154.352 81.9744 152.818C87.4545 150.955 92.7767 149.159 97.6366 145.847C102.086 142.816 106.876 139.827 110.55 135.862C112.198 134.084 113.152 132.043 114.044 129.831C114.829 127.888 113.816 127.638 112.865 125.834C112.03 124.248 111.883 122.753 110.443 121.795C108.339 120.396 105.851 120.127 103.785 118.485C101.243 116.467 101.331 113.253 100.771 110.18C99.6275 103.895 100.547 96.3095 102.107 90.1818C103.82 83.4512 106.326 76.9406 109.7 70.876C112.882 65.1586 117.184 60.8698 121.807 56.3789C120.645 55.5712 118.638 55.4507 117.253 54.8306C115.231 53.9253 113.577 52.5822 111.815 51.3344C108.524 49.0047 105.543 46.4568 102.011 44.4937C98.7302 42.6697 95.2696 41.1263 91.7717 39.949C89.9971 39.3515 87.8933 39.5029 86.0351 39.0071C84.5852 38.6202 82.9381 38.384 81.5335 37.8672C80.809 37.6007 80.1736 37.0153 79.4269 36.8493C71.3091 35.0454 62.3234 35.4046 53.8939 35.3588C52.0938 35.3489 49.2195 34.8213 47.548 35.6049C45.8036 36.4228 43.8486 38.4384 42.2866 39.5954C38.6094 42.3189 34.7252 44.6829 31.1545 47.5291C26.9262 50.8986 22.6072 54.2384 18.2243 57.4135C16.7206 58.5024 13.9766 61.1412 12.75 58.4675C11.6981 56.1734 13.8149 53.8712 14.5854 51.9158C12.4183 53.1562 7.89133 56.5974 6.76136 52.6172C5.66872 48.7685 9.13423 45.1601 11.4056 42.5482C8.85745 43.0681 3.9463 44.5085 1.64162 42.738C-0.72107 40.9226 1.3059 36.9581 2.98759 35.5653C8.11226 31.3211 14.9495 28.7067 21.0841 26.3121C27.3094 23.8819 33.5795 22.0623 39.9665 20.3613C41.2804 20.0111 42.4103 18.9002 43.7739 18.7778C45.3451 18.6365 44.769 19.6652 45.5161 17.9194C45.841 17.1599 45.7209 16.2317 46.1483 15.5041C48.2268 11.9692 50.8947 17.252 51.696 19.0986C56.1375 17.274 60.6657 16.4122 65.2041 15.0692C68.7906 14.0077 72.478 12.8486 76.1076 11.823C78.0627 11.2703 80.0397 10.9943 82.0167 10.6295C83.9051 10.2812 86.1499 9.7177 88.1599 9.52359C91.5881 9.19192 95.223 8.87046 98.6027 8.79256C115.11 8.41113 132.66 7.35988 146.033 19.1477C146.033 20.2225 149.477 23.1296 150.326 23.7218C152.693 25.373 154.794 26.9943 156.989 28.9552C159.361 31.075 161.259 32.908 162.666 35.7866C163.878 38.2672 164.174 41.0046 164.821 43.6668C166.546 41.7019 167.077 43.55 167.409 45.1672C167.766 46.9059 168.191 47.9507 169.301 49.3762C171.674 52.424 174.79 54.0217 178.603 54.3988C179.302 54.4681 181.619 54.6656 182.27 54.3976C183.452 53.912 183.098 53.6217 183.605 52.3155C183.992 51.3202 184.561 50.5916 185.065 49.6699C185.681 49.231 185.913 48.6443 185.763 47.9105C185.78 47.5875 185.797 47.2645 185.813 46.9415C187.095 46.1885 188.555 49.6575 189.026 50.2834C190.393 52.0991 191.868 52.4073 194.089 52.4073C193.944 51.1925 193.623 51.1239 194.767 50.5687C195.472 50.2263 196.483 50.4667 197.153 50.7384C199.076 51.5189 199.035 51.9019 201.209 51.0108C202.816 50.3518 204.256 49.4949 205.71 48.5553C206.948 47.7556 207.143 47.6193 207.619 46.2212C207.982 45.1515 207.924 43.729 208.06 42.6193C206.592 43.4999 205.732 45.1994 204.121 46.0735C202.487 46.9603 200.517 47.5148 198.738 46.6985C195.037 44.9997 196.08 40.3017 197.171 37.321C195.479 37.0308 193.708 36.024 192.626 34.6977C191.897 33.8044 191.37 32.691 190.592 31.6706C188.815 29.3444 184.222 28.7874 183.351 32.3398C182.908 34.1484 183.96 34.7941 185.619 35.0241C187.594 35.2976 188.075 34.8117 187.356 37.1454C186.564 37.5531 186.317 38.1883 186.618 39.0507C186.569 39.3376 186.519 39.6244 186.47 39.9116C186.29 40.6343 185.905 41.1931 185.694 41.8877C185.097 43.8563 184.994 44.3957 182.768 44.9957C178.862 46.0485 174.327 46.5977 170.301 46.9427C168.962 47.0574 167.542 47.0431 167.986 45.2247C168.352 43.7234 170.846 43.2152 172.11 42.7519C173.575 42.215 176.281 41.9649 177.535 41.19C178.873 40.3641 178.745 38.8637 178.445 37.2685C178.071 35.2775 177.69 33.7629 177.751 31.6234C177.818 29.2804 178.66 28.4303 180.056 26.5754C176.377 27.5967 172.268 30.2679 168.448 30.2627C163.365 30.2556 164.307 25.0293 165.321 21.5924C163.463 21.9062 160.58 22.6817 159.67 20.3563C158.605 17.6375 161.262 14.4986 162.892 12.686C160.755 12.478 158.717 12.9942 157.938 10.4166C157.396 8.62225 158.062 6.50429 159.295 5.15043C162.525 1.60474 167.547 0.895971 171.972 0.395846C174.419 0.11951 176.914 -0.110769 179.369 0.11982C181.749 0.343299 183.613 1.34602 185.785 2.35307C188.056 3.40618 189.598 4.87471 191.115 6.88449C191.827 7.82879 192.421 8.74434 192.82 9.86638C193.015 10.4138 193.198 13.1203 193.627 13.43C194.262 13.8893 198.152 12.2913 199.26 12.3361C200.485 12.3856 201.245 12.767 201.969 13.7947C202.361 14.352 202.76 16.4116 203.494 16.6363C203.848 16.7448 206.06 15.8333 206.579 15.7538C207.335 15.6382 208.065 15.4722 208.84 15.3977C211.245 15.1659 213.745 15.101 216.078 15.8391C220.735 17.3114 223.388 21.5362 222.17 26.5133C221.943 27.4409 221.308 28.1182 221.03 28.9975C220.657 30.1799 220.793 31.4172 220.512 32.6397C219.921 35.2151 218.824 36.7445 216.601 38.0832C223.748 43.7716 215.997 56.6994 208.613 50.1768C206.516 53.1182 201.948 55.2229 198.521 56.0414C193.903 57.1446 189.616 56.4979 187.146 52.2379C186.866 52.9686 186.411 53.7559 186.273 54.5175C186.165 54.8006 186.056 55.0835 185.948 55.3663C185.625 55.7953 185.78 56.0432 186.413 56.1094C186.845 57.3291 187.162 57.453 186.525 58.929C191.245 57.2948 196.218 61.5443 199.477 64.694C201.672 66.816 202.839 69.929 204.214 72.5851C205.826 75.7008 207.054 78.9566 208.543 82.123C209.881 84.9689 210.707 88.0605 212.168 90.8433C213.55 93.4765 215.785 95.3757 218.105 97.063C220.256 98.628 222.414 100.192 225.167 100.843C228.304 101.585 231.805 100.535 234.871 99.7485Z" fill="#24243B"/>
</svg>
