<svg width="288" height="233" viewBox="0 0 288 233" fill="none" xmlns="http://www.w3.org/2000/svg">
<path fill-rule="evenodd" clip-rule="evenodd" d="M119.857 1.45103C122.684 2.71073 124.175 6.19605 125.659 8.71646C127.44 11.7411 129.054 14.9087 129.963 18.3145C130.896 21.8042 131.025 25.6306 130.612 29.2112C130.43 30.7866 130.004 32.2204 129.553 33.7276C129.072 35.3386 129.822 36.26 130.964 37.396C133.337 39.7556 136.326 41.5662 138.087 44.4732C139.579 46.9364 141.314 47.3923 144.128 47.4978C151.114 47.7601 157.961 47.5438 164.883 48.8802C166.641 49.2196 168.387 49.635 170.116 50.0988C170.684 50.251 171.278 50.517 171.863 50.5705C172.707 50.6472 172.851 50.3117 173.482 49.9871C176.255 48.5594 179.776 49.9308 182.548 50.7141C189.546 52.6915 196.15 55.3833 202.493 58.9499C209.343 62.8013 216.645 65.791 223.431 69.7569C229.987 73.588 235.877 78.4098 241.992 82.8823C248.211 87.4313 254.109 92.3535 259.86 97.4787C265.419 102.432 271.165 107.294 276.137 112.852C280.67 117.919 284.251 123.918 286.653 130.293C287.455 132.42 286.961 133.761 284.455 133.059C284.233 135.211 282.629 136.11 280.595 135.65C281.219 137.456 282.646 139.902 281.83 141.845C280.744 144.429 277.635 142.548 276.11 141.541C276.276 143.618 277.159 146.99 275.444 148.666C272.785 151.263 268.299 147.953 266.416 146.013C261.619 141.067 258.551 134.947 254.291 129.611C249.012 122.998 243.066 116.764 237.097 110.777C236.626 110.305 231.314 104.605 230.553 105.38C232.871 109.218 234.723 113.442 237.963 116.631C239.502 114.47 240.616 115.535 240.905 117.704C241.252 120.312 241.639 123.058 241.158 125.672C240.212 130.816 236.965 135.709 233.553 139.562C229.983 143.591 225.551 146.659 220.796 149.129C218.105 150.527 215.405 151.837 212.509 152.755C211.213 153.166 209.914 153.643 208.582 153.929C207.301 154.203 205.917 154.184 204.731 154.805C215.349 159.874 227.095 162.01 237.738 166.948C240.307 168.14 245.465 171.238 242.859 174.72C240.842 177.414 236.26 177.51 233.253 178.047C235.465 180.136 235.136 182.075 232.227 183.212C231.059 183.668 229.841 183.88 228.595 183.913C227.749 183.935 226.287 183.634 225.603 184.299C228.24 185.507 231.835 185.434 234.003 187.556C236.214 189.722 233.573 191.464 231.597 192.3C228.998 193.398 225.423 194.557 222.779 193.232C220.689 192.185 218.76 192.412 216.449 192.137C214.066 191.853 211.71 191.343 209.412 190.657C200.659 188.046 192.599 183.212 184.87 178.458C177.148 173.708 169.946 168.312 163.285 162.154C161.643 160.635 160.274 158.827 158.595 157.356C156.828 155.808 154.977 155.67 152.716 155.695C147.577 155.754 142.447 154.839 137.309 155.442C144.693 161.007 152.496 165.909 160.263 170.907C163.218 172.809 166.325 175.345 169.8 176.174C171.324 176.538 174.595 176.78 175.101 178.659C175.471 180.031 174.298 180.261 173.596 181.005C172.578 182.083 174.011 182.443 175.061 182.89C176.385 183.452 177.593 183.633 179.035 183.485C181.241 183.257 182.973 183.332 185.029 184.278C188.26 185.763 191.729 186.562 194.969 188.014C196.311 188.616 196.663 190.409 197.311 191.626C198.329 193.539 199.505 195.36 200.66 197.192C202.836 200.646 204.714 204.199 207.802 206.954C210.508 209.368 213.522 211.507 216.461 213.63C221.051 216.946 226.891 221.046 225.416 227.551C223.957 233.982 217.292 233.29 212.213 232.142C210.076 231.659 207.155 230.307 205 230.942C203.14 231.491 201.859 231.572 199.93 231.135C197.693 230.627 195.442 230.296 193.176 229.946C188.426 229.211 183.636 228 179.097 226.411C176.919 225.649 175.101 224.632 173.386 223.075C172.877 222.613 172.506 221.958 171.829 221.963C171.253 221.968 170.362 222.99 169.916 223.345C168.51 224.465 166.954 225.4 165.348 224.068C164.323 223.217 163.411 221.366 164.893 220.49C166.03 219.818 168.105 220.588 168.92 219.318C169.773 217.988 167.866 216.058 167.269 214.977C165.466 216.201 162.814 218.675 160.724 216.627C159.049 214.987 160.912 213.991 162.456 213.467C164.365 212.817 166.574 212.901 165.601 210.348C165.048 208.899 164.164 207.6 164.022 206.018C163.914 204.815 164.261 203.657 164.269 202.464C164.284 200.331 161.991 198.494 159.993 197.989C158.774 197.68 158.411 198.723 157.662 199.522C156.561 200.696 155.154 201.575 153.752 202.341C151.451 203.598 149.036 204.595 146.625 205.609C145.028 206.281 142.204 207.161 143.344 209.197C145.014 212.178 141.101 210.751 139.69 210.075C136.409 208.502 133.095 207 129.854 205.34C123.208 201.936 117.093 197.733 111.223 193.132C105.46 188.615 99.8333 183.817 94.5974 178.695C92.0613 176.214 89.6368 173.604 87.4774 170.785C85.1578 167.758 83.2047 164.475 80.8413 161.478C78.3891 158.367 75.9653 155.349 74.3855 151.68C72.9218 148.28 71.2604 144.485 71.234 140.75C71.2049 136.623 71.2213 132.917 72.5859 128.958C73.1553 127.307 73.8391 125.587 74.8314 124.143C75.1166 123.728 76.6138 122.308 76.307 121.742C76.3242 121.774 72.9054 122.296 72.5478 122.33C70.2783 122.547 67.9951 122.158 65.7342 121.947C59.0487 121.323 52.3002 121.557 45.6395 120.639C43.1283 120.293 40.4036 120.657 37.9524 120.019C36.7945 119.718 36.5093 119.055 35.6586 118.512C35.2702 118.264 34.8548 118.346 34.4935 118.002C34.0705 117.599 33.979 117.017 33.7918 116.491C32.792 113.684 31.1072 111.177 30.1173 108.364C29.0043 105.201 29.0547 101.922 29.1356 98.6149C27.4824 98.7466 25.7459 98.7575 24.1949 98.0885C22.9431 102.022 17.5516 101.952 14.2373 101.653C10.0983 101.28 5.24532 100.891 3.14754 96.7366C0.682318 91.8544 0.845133 85.9275 0.54692 80.5995C0.196606 74.3421 0.0968585 67.9912 0.404326 61.7301C0.665862 56.4048 1.87928 50.8769 5.32244 46.6505C8.36044 42.9215 13.6162 40.739 17.7504 44.2189C20.8576 46.8349 22.2143 51.5463 22.4176 55.4701C22.5211 57.4667 22.4279 59.2601 24.8859 58.7065C25.8309 58.4937 26.6899 58.1495 27.3868 59.1189C28.0014 59.9727 27.7193 61.2071 26.9412 61.8456C26.2361 62.4249 24.8643 62.3269 24.3813 63.1879C23.9028 64.0418 24.6597 65.4095 25.5666 65.5833C26.5994 65.781 27.3946 64.4542 28.4346 65.0698C29.3875 65.6343 28.8898 66.689 28.2512 67.3067C27.4958 68.0382 26.7681 68.1907 27.3083 69.3483C27.7223 70.2364 28.5512 70.8277 28.9231 71.7693C29.841 74.0923 30.144 77.4302 29.1233 79.7665C30.8947 79.9636 35.1777 82.059 36.571 80.364C37.0766 79.749 37.137 78.8458 37.6833 78.2186C38.326 77.4802 39.2244 77.1662 40.1756 77.0473C42.2093 76.793 44.29 77.4117 46.2654 77.8103C49.5402 78.4719 52.8349 79.0512 56.1242 79.6356C62.7428 80.8116 69.4228 81.6302 76.0249 82.8936C82.6131 84.1547 89.1333 85.7493 95.6487 87.3374C99.0655 88.17 102.466 89.1057 105.909 89.8269C109.126 90.5005 112.478 90.9972 115.472 92.4221C114.88 88.7606 113.228 85.3959 112.199 81.8564C111.139 78.2158 110.842 74.5817 111.44 70.8328C111.988 67.3979 112.799 64.0596 114.552 61.024C115.261 59.7965 116.04 58.5739 117.061 57.5839C117.787 56.8799 118.809 56.2944 119.382 55.455C119.948 54.6265 119.828 54.4342 118.809 54.0527C118.242 53.8402 117.728 53.7761 117.191 53.4785C116.697 53.205 116.272 52.7083 115.691 52.6137C114.351 52.395 112.393 53.6935 111.166 54.1555C109.491 54.7859 107.76 55.3535 105.972 55.5455C100.104 56.1755 93.1455 52.7718 89.1227 48.6482C87.78 47.272 84.6988 44.1075 85.951 42.0087C86.6119 40.9008 87.7934 41.1641 88.7854 40.6609C90.3388 39.8728 89.3544 38.5655 88.6102 37.5279C86.5831 34.7014 85.2236 31.4667 83.7723 28.3217C82.295 25.1209 80.2699 22.2594 78.6095 19.1611C77.4176 16.9379 76.0363 14.4511 75.4885 11.9769C74.8194 8.95537 76.8644 8.52828 79.3646 8.09535C87.2724 6.72563 95.0585 4.88528 102.895 3.17176C106.019 2.48895 109.158 1.79484 112.303 1.21246C114.753 0.758633 117.504 0.402834 119.857 1.45103ZM189.266 189.948C185.188 190.157 181.085 191.063 180.954 195.821C181.449 204.851 187.321 211.6 193.525 217.589C195.09 219.1 196.622 220.702 198.321 222.063C199.322 222.864 200.412 223.231 201.494 223.866C201.759 224.021 202.218 224.543 202.464 224.622C203.049 224.811 203.1 224.599 203.67 224.538C204.914 224.407 205.143 225.274 206.089 225.983C207.882 227.327 211.102 227.131 213.208 227.551C215.153 227.94 222.897 230.745 222.548 226.705C222.208 222.757 217.998 220.839 215.031 219.076C210.896 216.619 206.634 213.96 203.152 210.611C199.843 207.427 197.682 203.071 195.459 199.105C194.073 196.634 193.69 194.539 193.29 191.778C193.12 190.61 193.103 190.227 191.961 190.03C191.077 189.878 190.158 189.902 189.266 189.948ZM175.078 189.292C172.722 190.055 170.943 191.944 169.77 194.081C169.17 195.175 168.826 196.278 168.627 197.501C168.375 199.058 167.793 200.72 168.228 202.285C169.017 205.125 171.088 208.226 172.714 210.662C174.543 213.403 176.918 216.479 179.804 218.159C182.581 219.776 185.936 220.207 188.512 222.203C188.281 221.105 187.252 220.295 186.444 219.611C185.266 218.613 184.236 217.622 183.235 216.434C181.022 213.807 179.183 210.962 178.004 207.721C176.862 204.581 176.208 201.046 176.354 197.698C176.423 196.105 176.697 194.412 177.385 192.959C177.844 191.987 178.659 191.161 179.011 190.14C179.816 187.798 176.253 188.911 175.078 189.292ZM123.418 111.671C120.129 112.044 116.868 112.676 113.555 112.982C106.858 113.601 99.906 113.966 93.8368 117.166C85.006 121.821 74.8359 132.152 77.8985 143.035C81.5165 155.89 89.2512 167.514 98.9352 176.611C105.118 182.418 111.888 187.651 118.68 192.721C125.249 197.625 132.849 200.841 139.622 205.426C140.081 198.67 144.326 192.475 149.345 188.177C152.043 185.868 154.873 183.655 157.898 181.79C159.384 180.873 160.923 180.099 162.49 179.334C163.679 178.753 164.994 177.889 166.353 177.824C166.331 176.828 163.833 176.46 163.143 176.225C160.764 175.417 158.481 174.178 156.278 172.977C151.481 170.364 147.049 167.175 142.61 164.006C140.44 162.458 138.236 160.955 136.089 159.374C134.157 157.95 132.443 156.097 130.366 154.885C128.23 153.638 125.704 153.377 123.32 152.918C120.457 152.365 117.639 151.709 114.762 151.225C109.957 150.415 105.422 147.586 100.993 145.658C99.5039 145.009 97.2317 144.446 96.095 143.219C95.065 142.106 95.3341 140.389 96.6544 139.626C98.9253 138.316 102.71 140.025 104.857 140.871C108.829 142.436 112.774 143.836 116.989 144.638C122.762 145.736 128.249 147.792 134.031 148.868C140.265 150.028 146.515 151.298 152.854 151.725C151.3 148.648 148.725 146.09 146.72 143.306C144.419 140.113 142.121 136.917 139.84 133.709C135.82 128.054 131.336 122.371 128.28 116.12C127.233 113.977 126.201 111.354 123.418 111.671ZM153.274 194.076C152.359 194.222 151.668 195.137 151.046 195.742C149.12 197.614 147.235 199.468 145.667 201.663C148.093 200.638 150.072 198.852 152.411 197.678C153.254 197.255 156.231 196.312 155.631 195.132C155.293 194.47 153.948 193.968 153.274 194.076ZM164.41 186.535C162.034 188.156 159.561 189.606 157.056 191.015C158.813 191.683 160.567 192.604 162.009 193.815C162.669 194.368 164.024 195.989 164.978 195.581C165.865 195.203 166.346 193.01 166.775 192.218C167.874 190.192 169.411 188.278 171.063 186.68C168.581 185.018 166.917 184.824 164.41 186.535ZM144.357 98.2756C142.455 98.8048 140.569 99.3831 138.669 99.9165C134.875 100.981 130.999 101.872 127.037 101.872C126.498 102.864 128.042 104.482 128.517 105.238C129.762 107.224 130.825 109.355 131.954 111.411C134.348 115.77 136.959 119.959 139.777 124.056C142.623 128.194 145.194 132.529 148.109 136.618C150.931 140.575 154.034 144.42 157.09 148.199C168.997 162.921 185.593 173.074 201.904 182.195C206.476 184.751 211.239 187.004 216.302 188.4C218.393 188.976 220.525 189.464 222.652 189.894C224.081 190.182 226.459 190.828 227.775 189.904C223.643 188.267 218.229 187.635 214.892 184.468C212.826 182.507 215.092 181.044 217.198 180.679C221.274 179.974 225.499 181.75 229.499 180.598C228.43 178.636 225.356 178.729 223.486 178.226C221.122 177.589 221.035 176.394 223.286 175.582C226.056 174.582 229.249 175.124 232.137 174.94C233.546 174.85 239.452 174.615 237.668 171.908C236.264 169.778 232.846 169.181 230.609 168.395C227.471 167.293 224.422 165.573 221.226 164.719C218.099 163.884 214.914 163.371 211.788 162.489C208.525 161.569 205.312 160.546 202.211 159.165C196.233 156.502 190.691 152.887 185.643 148.738C180.441 144.461 175.88 139.561 171.684 134.305C169.477 131.54 167.376 128.695 165.228 125.885C163.154 123.171 160.808 120.584 159.148 117.587C157.311 114.274 154.931 111.249 153.03 107.946C151.999 106.157 150.89 104.401 149.93 102.573C149.247 101.274 148.782 99.3677 147.858 98.2382C146.99 97.1767 145.472 97.9654 144.357 98.2756ZM56.5305 140.271C57.1678 140.853 57.0618 141.093 56.9391 141.833C56.6879 143.349 56.4106 144.836 56.294 146.374C55.8943 151.634 56.6361 157.09 57.4557 162.285C58.2739 167.469 60.2407 172.258 63.2719 176.545C66.2087 180.7 69.7537 184.009 74.424 186.048C75.2257 186.397 78.4008 187.682 78.1955 188.866C78.0413 189.757 76.3929 189.253 75.8002 189.126C67.4054 187.327 60.2908 179.736 56.0482 172.669C54.2919 169.744 53.1621 166.77 52.192 163.536C52.0501 163.064 50.0172 156.374 50.7037 156.29C50.1111 151.657 49.9339 146.025 52.1231 141.737C52.941 140.136 54.8575 138.743 56.5305 140.271ZM41.884 141.267C41.1179 144.76 41.3712 148.323 41.5402 151.86C41.571 152.504 41.9392 154.491 40.8735 154.452C40.1204 154.426 39.5202 152.503 39.3355 152.01C38.2163 149.016 37.8187 145.645 38.3778 142.49C38.5543 141.492 38.821 140.28 39.9192 139.933C40.8745 139.631 41.9687 140.17 41.884 141.267ZM238.06 125.145C237.588 125.373 237.38 125.806 237.239 126.283C233.546 129.431 229.201 132.478 224.883 134.699C221.026 136.683 216.559 137.52 212.348 138.417C202.719 140.47 193.132 141.299 183.528 138.642C187.453 142.263 191.011 147.075 195.959 149.382C198.417 150.528 201.137 149.837 203.616 149.111C206.656 148.22 209.716 147.31 212.658 146.128C218.218 143.897 224.165 141.428 228.841 137.603C230.914 135.907 232.603 133.811 234.09 131.596C234.942 130.328 235.663 128.971 236.525 127.712C237.022 126.986 238.11 126.091 238.06 125.145ZM197.033 60.7505C196.891 62.5415 195.837 64.0459 194.906 65.5164C194.274 66.5163 193.041 67.7222 193.626 68.8564C194.319 70.2025 196.531 71.0625 197.678 71.9832C199.375 73.3464 200.964 74.8357 202.527 76.3491C205.331 79.0649 208.234 81.6974 210.978 84.4711C213.585 87.1063 216.115 89.7913 219.404 91.5881C226.624 95.5331 232.981 101.045 239.29 106.287C245.722 111.63 252.076 117.247 257.658 123.489C260.644 126.83 263.127 130.496 265.256 134.432C266.351 136.457 267.525 138.437 268.621 140.461C269.107 141.356 269.655 142.226 270.096 143.145C270.424 143.827 270.638 144.932 271.244 145.438C272.444 142.776 270.572 139.256 269.487 136.858C268.746 135.219 268.018 133.574 267.286 131.93C266.773 130.777 265.705 129.386 265.647 128.099C265.504 124.971 269.532 127.222 270.636 128.224C273.37 130.706 274.947 134.437 276.882 137.516C277.337 135.064 272.457 131.279 274.477 129.143C276.08 127.448 279.034 131.418 279.93 132.493C280.545 129.462 278.969 126.497 277.322 124.071C275.486 121.367 273.364 118.796 271.19 116.361C266.108 110.67 260.3 105.604 254.553 100.601C248.837 95.6232 242.952 90.848 237.092 86.042C231.401 81.3752 225.624 76.7086 219.263 72.9724C215.697 70.8774 211.956 69.1248 208.315 67.1693C204.502 65.1215 200.887 62.7232 197.033 60.7505ZM147.32 53.8467C147.154 53.8882 146.191 54.0037 146.119 54.0883C145.806 54.4579 146.224 55.6528 146.594 55.8673C145.318 56.8213 143.884 57.6895 142.262 57.8379C143.283 58.8392 145.221 60.5908 144.92 62.2056C144.505 64.4271 141.835 62.8692 140.754 62.197C139.02 61.1176 137.247 59.9727 135.976 58.3453C135.17 57.3125 134.895 56.2173 134.292 55.105C133.964 54.5007 134.155 54.3914 133.429 54.3495C132.599 54.3026 131.18 55.0892 130.411 55.4019C129.224 55.8852 128.066 56.4429 126.949 57.0729C124.889 58.2359 122.961 59.6471 121.271 61.3051C117.773 64.7369 115.403 69.2458 115.103 74.1828C117.586 73.8883 120.015 72.8178 122.107 71.4824C123.597 70.5315 125.117 69.4141 125.38 72.0973C125.482 73.1424 125.189 75.5761 124.562 76.3847C123.976 77.1399 123.723 76.5277 123.115 76.9805C122.412 77.5049 122.783 78.2597 122.783 78.996C122.444 78.7115 122.106 78.4273 121.767 78.1428C121.155 78.9435 121.848 78.5147 122.079 78.9991C122.214 79.2815 121.291 80.0946 121.107 80.2385C120.725 80.5367 120.514 80.2899 120.078 80.7184C119.797 80.994 119.495 81.6124 119.191 81.9565C117.619 83.7348 119.7 86.5216 120.523 88.4072C121.133 89.8036 121.797 91.1723 122.431 92.5568C122.895 93.57 123.146 94.7728 123.762 95.7065C124.985 97.5599 127.788 96.5473 129.617 96.3204C132.098 96.0123 134.535 95.6969 137.019 95.4635C138.475 95.3267 140.121 94.4794 138.251 93.3829C136.395 92.2949 129.984 92.0889 129.943 89.2901C129.899 86.3149 134.032 85.8202 136.106 86.076C139.138 86.4496 141.098 87.215 143.172 89.5037C142.707 85.1392 139.611 81.5294 138.92 77.1505C138.732 75.9611 138.155 68.6298 141.013 71.797C142.544 73.4934 143.757 76.0608 144.888 78.0225C146.601 80.9923 148.093 84.0783 149.665 87.1224C151.165 90.0278 153.363 92.8193 154.413 95.9101C155.005 97.6487 155.83 101.303 157.706 102.19C158.908 102.758 160.938 102.014 162.179 101.833C162.946 101.721 163.695 101.611 164.353 101.168C164.694 100.939 165.03 100.345 165.46 100.278C166.7 100.086 167.02 101.98 166.935 102.852C166.805 104.196 166.188 104.545 164.934 104.701C167.047 105.736 163.791 108.976 163.22 110.267C163.19 110.201 162.819 109.293 162.543 109.294C161.996 109.296 164.222 113.678 164.39 113.983C165.557 116.098 167.023 118 168.441 119.95C169.256 121.07 170.429 123.721 172.087 123.47C173.005 123.332 174.913 121.441 175.635 122.738C176.286 123.907 174.275 125.161 173.972 126.091C173.465 127.65 175.375 129.289 176.5 130.107C179.483 132.274 183.35 132.785 186.88 133.439C186.206 132.53 184.737 132.034 184.707 130.732C184.688 129.847 185.313 129.363 184.89 128.4C184.542 127.606 183.669 127.145 183.409 126.295C183.123 125.357 183.575 124.292 184.09 123.517C186.275 120.233 191.154 121.6 194.016 123.092C193.805 123.185 193.629 123.319 193.49 123.495L193.456 123.539L193.464 123.534C193.831 123.309 195.423 124.014 195.621 124.157C196.248 124.609 197.094 125.662 197.527 126.314C198.921 128.414 199.12 130.974 198.396 133.355C207.122 133.355 215.342 131.029 223.152 127.322C224.935 126.476 226.687 125.934 228.376 124.868C230.112 123.775 231.761 122.56 233.466 121.421C235.067 120.352 234.922 119.709 233.85 118.188C232.544 116.337 231.394 114.364 229.944 112.618C229.721 113.102 229.634 114.07 229.159 114.367C228.633 114.695 228.15 114.043 227.796 114.29C227.827 114.268 226.707 116.008 226.527 115.575C226.994 116.696 225.125 115.98 224.794 115.772C224.871 116.823 223.997 117.727 223.507 116.323C222.175 117.542 219.015 116.426 220.719 114.546C221.56 113.617 222.476 113.124 223.005 111.913C223.597 110.556 223.803 109.022 223.878 107.556C224.053 104.099 222.183 102.486 219.839 100.245C218.53 98.993 217.163 97.8053 215.816 96.5953C214.632 95.532 213.608 94.2151 212.365 93.2293C211.473 92.5215 210.761 92.3179 209.895 92.9325C209.539 93.1858 209.422 93.5076 208.964 93.7517C208.377 94.0646 207.505 94.2583 206.85 94.3399C203.555 94.7502 199.742 93.6207 196.723 92.4039C195.896 92.0707 195.5 91.5285 194.784 91.1161C194.332 90.8552 193.946 91.0133 193.466 90.7017C192.211 89.8876 192.274 88.5809 193.186 87.5636C195.324 85.1796 198.395 87.324 200.58 85.399C203.302 83.0002 198.764 79.6836 196.93 78.2155C195.463 77.0401 194.202 76.7858 192.409 76.4773C192.033 76.4125 189.542 75.6934 190.413 76.7272C188.478 76.6771 187.526 76.685 185.967 77.8933C185.559 78.21 185.015 78.5096 184.902 79.0501C184.843 79.3353 185.431 79.3926 185.432 79.3898C185.353 79.5814 184.762 79.9293 184.676 79.9904C185.673 80.1086 185.414 82.0654 185.157 82.0763L185.142 82.0745L185.171 82.0998C185.607 82.5119 184.624 83.1467 184.291 83.2532C183.346 83.5559 182.448 82.8981 181.816 82.241C180.4 80.7702 179.372 78.2679 179.463 76.2291C179.59 73.3676 181.469 71.7086 183.019 69.5635C184.18 67.9587 182.456 67.1052 181.256 66.0981C179.788 64.8665 177.791 63.3521 177.308 61.3901C176.868 59.6029 178.087 58.9914 179.649 59.5288C181.761 60.2548 183.47 62.1233 185.341 63.2925C187.002 64.3301 189.098 66.4488 191.127 66.5698C190.755 65.2449 188.911 65.3855 188.198 64.4014C187.256 63.1012 188.719 62.5216 189.826 62.6707C190.686 62.7862 193.138 64.6057 193.074 62.5079C193.04 61.3839 191.165 61.0076 190.349 60.6826C186.202 59.0318 181.954 57.9058 177.555 57.1411C176.13 56.8936 175.765 57.067 175.076 58.3542C174.842 58.7912 174.002 60.8019 173.541 59.4689C172.939 60.5613 172.763 61.7253 171.453 62.1648C169.786 62.7235 167.642 61.8964 166.106 61.2551C164.788 60.7046 163.535 59.9326 162.689 58.7555C162.268 58.1704 161.962 57.5209 161.763 56.8285C161.594 56.2406 161.674 55.2771 161.369 54.743C160.859 53.8501 159.644 54.0428 158.706 53.9536C156.612 53.7545 154.544 53.5745 152.438 53.5498C150.689 53.5296 149.019 53.4234 147.32 53.8467ZM192.853 132.304C192.184 132.544 193.373 133.346 193.767 133.251C193.605 132.991 193.338 132.131 192.853 132.304ZM193.456 123.539L193.438 123.553C193.415 123.574 193.399 123.601 193.393 123.634C193.408 123.61 193.423 123.586 193.44 123.563L193.456 123.539ZM206.854 102.482C207.461 102.991 207.216 104.171 207.631 104.895C208.742 106.836 210.744 108.749 212.631 109.921C214.663 111.183 215.624 112.82 216.122 115.106C216.225 115.578 216.536 116.234 216.384 116.723C216.242 117.18 215.729 117.332 215.572 117.739C215.499 117.925 215.802 119.366 215.765 119.37C215.59 119.392 215.078 118.667 215.081 118.671C214.879 119.173 214.949 119.744 214.403 120.013L214.337 120.043L214.345 120.049C214.481 120.155 215.102 120.67 214.954 120.783C214.747 120.941 214.242 120.833 213.984 120.925C213.578 121.07 213.284 121.433 212.893 121.601C211.843 122.053 210.632 121.914 209.524 121.754C207.19 121.419 204.563 120.584 202.876 118.855C200.832 116.76 201.317 114.59 201.132 112.24C200.925 109.604 202.827 105.608 204.354 103.565C204.875 102.867 205.919 101.698 206.854 102.482ZM38.9454 81.9733C38.8135 82.2852 38.9451 82.772 38.8676 83.1144C38.7113 83.8082 38.3089 84.4156 37.9216 84.9979C37.1966 86.088 36.4672 87.0868 35.9726 88.3167C34.7581 91.3355 33.6318 94.5891 33.0501 97.7899C31.8024 104.662 35.9681 110.33 36.195 117.023C38.108 115.008 41.0172 114.912 43.6092 114.906C47.0585 114.899 50.476 115.044 53.9123 115.346C60.486 115.924 67.2061 116.158 73.4363 118.561C74.1222 118.826 74.6367 118.94 75.3253 119.084C76.0818 119.243 75.6811 118.889 76.2344 119.337C76.3831 119.457 76.4424 119.892 76.5981 120.045C77.4029 120.832 77.8848 120.297 78.5666 119.452C80.4423 117.127 82.3138 115.015 84.7269 113.208C89.8675 109.358 95.6254 107.581 101.962 107.008C105.594 106.68 109.141 106.491 112.788 106.526C116.271 106.56 119.949 106.624 123.248 107.87C122.428 105.521 121.026 103.417 119.896 101.213C119.347 100.143 118.838 99.0187 118.14 98.0343C117.527 97.1688 116.601 96.4617 116.176 95.4734C116.101 95.6719 116.025 95.8704 115.949 96.0685C109.249 94.1493 102.339 93.1155 95.4698 92.0179C88.5694 90.9152 81.7547 89.3872 74.8691 88.2118C71.4119 87.6215 67.942 87.2668 64.4598 86.8712C61.1078 86.4907 57.8761 85.7466 54.5711 85.1141C51.2239 84.4735 47.9662 83.6975 44.6749 82.8152C43.2949 82.4453 41.9886 81.9349 40.6456 81.4896C39.5744 81.1349 39.331 81.0588 38.9454 81.9733ZM187.112 94.1567C187.312 94.9784 186.672 96.0382 186.467 96.8184C186.235 97.7031 185.731 98.0575 185.468 98.862C185.239 99.5609 185.651 103.266 183.864 102.16C183.919 102.426 184.213 102.791 184.243 103.028C184.282 103.323 183.994 103.775 184.078 104.029C184.153 104.259 184.938 104.93 185.128 105.313C185.878 106.817 186.409 108.548 186.778 110.187C187.164 111.895 187.632 114.261 186.217 115.441C185.877 115.724 185.581 115.8 185.232 116.14C185.191 116.455 185.048 116.715 184.801 116.92C184.666 116.958 184.558 116.925 184.476 116.82C184.045 117.053 184.189 116.071 183.682 117.026C183.56 117.256 183.781 118.046 183.671 117.965C183.472 117.818 182.873 117.193 182.679 117.181C182.244 117.773 182.253 117.17 181.794 117.255C181.776 117.5 181.643 117.635 181.395 117.659C181.201 117.615 181.008 117.57 180.815 117.526C179.645 117.533 177.917 117.042 176.793 116.731C174.649 116.139 173.12 114.664 172.654 112.429C171.686 107.773 175.602 101.952 178.402 98.5665C179.358 97.41 186.075 89.9029 187.112 94.1567ZM205.81 109.157C205.78 109.548 205.901 110.133 205.461 110.176C205.481 109.735 205.296 109.17 205.81 109.157ZM175.303 108.494C175.503 109.622 175.549 108.978 175.095 109.753C174.942 109.297 175.012 108.877 175.303 108.494ZM207.767 107.041C207.941 107.257 208.608 107.842 208.034 107.992C207.531 108.122 207.746 107.308 207.767 107.041ZM183.612 99.2253C183.384 100.438 184.072 100.148 185.018 99.9277C184.549 99.6936 184.08 99.4594 183.612 99.2253ZM8.19728 50.2877C3.66376 54.1778 3.52699 60.9801 3.66993 66.4556C3.86428 73.8955 4.31572 81.356 5.03485 88.763C5.3598 92.1098 6.31443 93.8141 9.61808 94.9356C13.197 96.1504 17.0518 95.9153 20.764 95.6997C20.0542 90.1807 18.6649 82.9197 24.201 79.2465C24.7076 78.9106 25.1711 78.6625 25.7877 78.6306C26.1949 78.6097 26.779 78.9788 27.1657 78.79C27.9475 78.4078 27.5002 77.3253 27.2442 76.7128C26.4657 74.8508 24.9802 73.3608 23.775 71.7809C22.2613 69.7976 20.9608 69.8511 18.7005 70.0959C17.7994 70.1939 14.2544 70.5977 14.9523 68.6737C15.4593 67.2748 18.2443 67.6252 19.3727 67.3012C20.2279 67.0555 20.4024 66.9471 20.3657 66.0731C20.3078 64.7071 19.5246 64.3362 18.3094 64.3736C16.7464 64.4212 14.0402 65.2521 12.7387 64.0229C10.8802 62.2673 13.6364 61.0381 15.0339 60.7995C16.4969 60.55 18.4534 60.7772 18.791 58.9664C19.1126 57.2391 18.2015 55.1489 17.4895 53.628C16.8006 52.1568 15.859 50.2818 14.4214 49.3985C12.3928 48.1525 9.89024 48.8347 8.19728 50.2877ZM25.7932 82.7888C23.9518 83.2018 22.8923 85.5995 22.6784 87.276C22.4717 88.8977 22.6126 91.2121 23.8017 92.4584C25.3623 94.0938 28.0829 93.9837 29.7625 95.5187C30.5067 91.825 31.8826 88.2704 33.69 84.9698C32.2627 84.5767 30.8717 84.0683 29.4643 83.6121C28.4346 83.2786 26.899 82.5406 25.7932 82.7888ZM143.992 90.7462C144.406 91.0993 144.536 91.2066 144.643 91.7609C143.662 91.8229 143.958 91.5079 143.992 90.7462ZM153.716 64.4728C155.248 64.5126 155.964 65.0086 157.194 65.7428C158.07 66.2662 159.133 65.703 159.133 67.0326C161.634 65.0668 166.299 70.1426 168.052 71.4722C169.902 72.8745 171.723 74.5253 171.927 77.0279C171.988 77.769 171.834 78.5286 171.946 79.2666C172.03 79.8225 172.382 80.3782 172.322 80.9547C172.251 81.6231 171.686 82.0139 171.556 82.6422C171.504 82.8911 171.681 83.3908 171.571 83.592C170.45 85.6476 169.013 87.3341 166.553 87.5373C164.41 87.7145 162.043 86.9498 160.481 85.4546C159.096 84.1285 158.27 82.1411 157.911 80.2825C157.849 79.961 157.967 79.2244 157.861 78.9526C157.707 78.5563 157.475 78.5495 157.284 78.229C156.778 77.3789 156.051 75.7768 156.709 74.8427C155.089 75.2085 153.857 71.7375 153.253 70.7253C152.799 69.9675 151.706 69.3741 151.403 68.6368C150.987 67.6256 152.482 67.1917 151.964 66.4873C151.687 66.1102 150.199 66.367 150.345 65.4223C150.48 64.5486 153.131 64.4574 153.716 64.4728ZM185.097 82.0412C185.112 82.0599 185.127 82.0708 185.142 82.0747L185.142 82.0745L185.137 82.0701L185.097 82.0412ZM180.82 74.4727C180.961 74.3521 181.714 73.5901 181.802 74.1615C181.874 74.6297 181.046 74.4727 180.82 74.4727ZM110.577 15.1154C108.943 15.2151 107.487 16.9787 106.27 17.9045C104.453 19.2866 102.306 20.3012 100.165 21.0683C97.6721 21.9605 95.1099 22.7547 92.5507 23.4317C89.9549 24.1186 87.2511 24.2592 84.6635 24.9728C85.9438 27.316 87.2244 29.6596 88.505 32.0031C89.0665 31.2302 88.8745 30.3575 89.7986 29.8018C90.4399 29.4162 91.3682 29.3634 92.0931 29.2208C94.1114 28.8235 96.3261 28.4719 98.3748 28.8828C99.6965 29.1482 101.167 30.1658 99.9156 31.587C99.1255 32.4837 97.425 32.2533 97.2862 33.6776C97.1532 35.0421 98.5465 36.2144 98.224 37.6493C97.7705 39.6662 95.7553 39.0622 94.8593 37.7583C94.0603 36.5956 94.3633 34.528 93.1297 33.6896C92.3938 33.1895 90.4266 33.0092 89.6341 33.4373C91.0905 36.1253 93.9212 39.4396 92.2608 42.6531C91.7504 43.6403 90.6357 44.0166 91.3829 44.9867C92.2446 46.1055 94.7311 47.0272 96.0549 46.6848C97.2944 46.3643 98.7145 44.9678 100.109 45.6589C101.425 46.3112 100.492 47.4187 100.608 48.4432C100.959 51.5292 107.288 49.7691 109.006 49.3594C110.73 48.9488 112.528 47.9551 114.308 47.9143C115.986 47.8756 117.544 48.6845 118.874 49.6319C119.869 50.3415 121.526 52.4173 122.79 52.4866C124.057 52.5561 125.854 50.6798 126.972 50.1118C128.979 49.0924 131.172 48.7976 133.299 48.1183C133.636 48.0106 135.111 47.7073 135.138 47.2147C135.163 46.7413 133.42 45.7058 133.123 45.4796C130.418 43.4137 128.436 40.5656 125.622 38.631C124.367 37.7682 123.011 37.1601 121.545 36.7718C120.732 36.5565 118.516 36.2662 118.458 35.1059C122.361 34.4519 122.459 29.5814 120.812 26.8197C119.765 25.0633 118.141 24.228 116.089 24.6057C113.116 25.1535 112.572 27.3297 111.891 29.9122C109.462 28.5905 106.813 25.3537 106.669 22.5014C106.509 19.3304 109.914 17.9669 110.577 15.1154ZM183.106 36.4263C187.202 37.1863 191.209 38.1992 195.153 39.5452C197.583 40.3744 201.118 41.0874 203.219 42.6429C203.832 43.0974 204.605 44.0969 204.045 44.8956C203.563 45.5842 202.382 45.3988 201.684 45.2915C198.513 44.8037 195.406 43.4765 192.269 42.7608C183.93 40.8591 175.375 39.9655 166.856 39.3567C164.507 39.1891 162.156 39.0441 159.806 38.8789C157.85 38.7418 155.699 38.8038 153.784 38.3609C152.273 38.0117 151.896 36.9014 153.028 35.6513C154.131 34.4331 155.981 34.623 157.459 34.4005C166.057 33.8391 174.661 34.8595 183.106 36.4263ZM168.856 26.476C171.643 27.4364 168.385 27.8944 167.166 27.7936C166.753 27.7597 161.301 27.2188 161.301 27.3864C160.212 27.3864 157.333 28.2187 156.552 27.1184C155.712 25.9368 159.306 25.5221 160.032 25.4696C162.825 25.2684 166.172 25.5515 168.856 26.476Z" fill="#24243B"/>
</svg>
