<svg width="255" height="242" viewBox="0 0 255 242" fill="none" xmlns="http://www.w3.org/2000/svg">
<path fill-rule="evenodd" clip-rule="evenodd" d="M221.679 75.9795C223.423 75.8904 225.16 76.2799 226.904 76.1101C225.389 74.7911 223.875 73.4725 222.361 72.1539C221.692 73.3286 221.643 74.6648 221.679 75.9795ZM180.3 48.8668C175.786 48.8866 170.279 51.1541 167.143 54.4657C165.482 56.2208 164.109 58.5775 162.704 60.5493C161.761 61.8723 160.841 63.149 159.697 64.3117C158.029 66.006 158.506 66.3934 160.386 67.6694C160.981 66.5546 164.135 60.5946 165.457 60.8626C167.466 61.2703 163.586 67.5659 163.162 68.3502C161.907 70.6707 159.881 73.912 160.791 76.3592C161.993 79.5898 160.251 81.4311 158.738 84.1837C160.327 84.2299 160.483 83.6102 161.031 82.2554C161.734 80.5141 162.501 79.0593 163.988 77.8553C165.139 76.9233 167.023 76.5307 167.564 75.4051C168.233 74.0137 167.813 71.2662 167.867 69.7184C167.95 67.3664 167.956 61.8063 170.547 60.7614C173.263 59.6664 178.145 60.6984 180.8 61.5094C180.468 59.4367 179.423 58.0828 179.437 55.7795C179.452 53.3686 180.116 51.2174 180.3 48.8668ZM145.62 87.3316C147.981 86.5839 150.22 85.7962 152.65 85.2869C155.192 84.7534 155.362 84.1432 156.795 81.9628C157.882 80.3102 159.2 79.0218 158.892 76.9978C158.695 75.6995 157.984 75.0669 158.198 73.6069C158.33 72.702 158.752 71.7139 159.058 70.8534C159.432 69.7976 160.207 68.6001 158.404 68.548C157.408 68.5191 157.36 69.0444 156.686 69.9265C155.442 71.5558 154.011 73.0351 152.688 74.5976C150.389 77.3106 147.952 80.1978 145.386 82.7087C142.561 85.4718 140.124 88.8044 138.298 92.3418C137.961 92.9951 135.911 96.8427 136.785 97.5973C137.588 98.2902 142.056 96.6742 142.87 96.4851C146.386 95.6689 150.377 95.3776 153.699 93.8953C155.392 93.1399 159.127 92.2384 160.463 91.0698C161.706 89.9834 161.65 87.3518 160.929 85.8204C158.911 87.0761 144.319 91.8135 145.62 87.3316ZM189.55 65.738C191.906 63.6097 194.692 61.9024 197.601 60.6372C200.203 59.5057 203.436 58.2444 206.331 58.4409C209.939 58.6852 208.431 61.5909 208.418 64.0652C208.401 67.3483 206.962 72.078 210.883 73.7815C212.162 69.2353 214.86 58.4853 221.322 64.4422C222.973 60.071 228.863 58.5917 233.01 57.7889C232.259 55.5805 229.975 53.5814 228.393 51.9237C226.413 49.8501 224.85 47.4198 222.866 45.3854C218.948 41.368 211.849 42.6582 206.888 43.6596C205.232 43.9936 200.432 44.4133 199.63 45.6293C199.127 46.3921 199.408 48.2553 199.035 49.1878C198.521 50.4728 197.643 51.6639 196.939 52.8506C194.369 57.1809 191.755 61.5391 187.358 64.0186L189.55 65.738ZM203.93 89.0664C201.604 89.9593 199.892 91.452 197.829 92.709C195.327 94.2331 192.393 95.6607 190.147 97.5434C189.326 98.232 188.864 99.4213 187.73 99.4985C186.743 99.5657 185.24 98.4199 184.366 98.0191C182.899 97.3456 181.497 96.3252 180.023 95.7249C178.811 95.2315 178.275 95.3324 177.226 94.3732C176.638 97.8731 165.941 94.6015 163.696 94.5481C161.62 94.499 158.772 94.745 156.84 95.5793C154.999 96.3743 153.559 98.1243 151.983 99.3166C149.823 100.952 147.762 102.605 146.171 104.868C143.989 107.971 147.281 107.093 149.476 106.905C154.488 106.477 159.362 107.671 164.193 108.823C168.512 109.852 172.776 111.087 176.91 112.756C179.235 113.695 181.682 114.559 183.868 115.779C185.021 116.423 186.89 117.998 188.213 117.544C189.426 117.128 190.635 113.651 191.37 112.262C192.798 109.566 194.301 106.915 195.775 104.246C198.561 99.2033 201.32 94.203 203.93 89.0664ZM175.301 155.805C176.735 154.982 179.072 155.204 180.657 154.859C182.449 154.469 184.25 153.833 185.959 153.171C187.689 152.501 189.323 151.815 190.904 150.976C191.627 150.592 192.591 150.214 193.259 149.682C193.797 149.253 193.993 148.456 194.49 148.066C195.785 147.051 196.165 147.688 196.339 145.729C196.528 143.6 195.334 142.395 193.847 140.803C192.516 139.377 190.788 138.145 189.116 137.142C188.376 136.699 187.586 136.2 186.831 135.777C185.689 135.136 184.159 134.07 183.559 135.446C184.807 135.764 185.082 137.358 183.956 137.931C183.337 138.246 182.401 137.784 181.704 138.118C180.627 138.634 179.591 140.075 178.669 140.85C175.644 143.398 172.75 144.352 168.791 144.557C160.516 144.984 151.852 144.04 143.737 142.814C141.648 142.498 139.563 142.84 137.455 142.765C135.404 142.691 133.265 142.243 131.249 141.896C127.365 141.229 123.272 140.68 119.449 139.699C114.825 138.511 110.185 136.976 105.844 134.987C101.68 133.079 96.9733 129.926 92.2961 129.683C94.292 131.637 97.2828 132.39 99.6835 133.677C101.646 134.729 104.714 135.404 105.954 137.137C106.761 138.264 107.166 140.336 107.775 141.658C108.45 143.122 109.072 144.608 109.696 146.094C110.323 147.588 110.976 149.083 111.485 150.623C111.8 151.578 111.936 153.557 112.68 154.21C113.868 155.252 117.843 155.715 119.443 156.061C122.432 156.709 125.84 156.623 128.888 156.668C130.148 156.686 131.418 156.858 132.621 156.881C134.311 156.914 134.15 156.621 134.126 155.154C134.112 154.273 134.13 152.67 135.308 153.396C136.112 153.89 135.559 156.081 135.41 156.859C142.138 157.529 149.158 157.866 155.854 157.642C162.439 157.421 168.796 156.572 175.301 155.805ZM205.685 140.361C206.872 131.836 208.319 123.17 209.938 114.755C211.574 106.252 213.542 97.8265 215.755 89.3556C214.293 89.0057 212.831 88.6566 211.369 88.3072C211.315 90.092 210.711 91.6425 210.454 93.4191C210.099 95.8714 209.42 98.2527 209.013 100.697C208.241 105.343 206.811 109.889 205.55 114.42C204.266 119.039 203.836 123.797 202.656 128.44C201.683 132.264 201.186 136.477 200.643 140.408C199.325 149.947 197.447 159.503 196.018 169.046C194.678 177.994 194.543 187.122 194.62 196.153C194.668 201.667 195.509 207.164 195.465 212.685C195.454 214.05 195.569 215.41 195.64 216.773C195.69 217.734 195.174 220.399 195.612 221.204C195.889 221.714 197.08 222.184 197.501 222.892C198.168 224.012 198.309 225.351 199.38 226.199C200.248 222.697 199.838 218.075 199.648 214.501C199.465 211.057 199.821 207.498 199.891 204.002C200.028 197.143 200.392 190.385 200.744 183.522C201.129 175.997 202.225 168.288 203.296 160.819C204.27 154.028 204.919 147.116 205.685 140.361ZM173.91 33.4538C173.439 33.4099 172.968 33.3663 172.497 33.3224C172.568 34.3144 172.358 35.9208 173.057 36.4383C173.587 36.8305 174.66 36.7016 175.302 36.827C177.408 37.2386 179.848 37.5828 181.938 36.8331C182.75 36.5418 182.228 36.0854 183.346 36.275C184.694 36.5038 184.202 36.7171 184.591 37.5574C184.89 38.206 185.044 39.3095 185.385 40.0882C185.84 41.1301 186.762 42.9947 186.368 44.1978C185.985 45.3673 184.554 45.7207 183.947 47.0453C183.494 48.03 183.601 49.4615 183.366 50.5461C183.053 51.9927 182.657 53.4336 182.482 54.9069C182.261 56.7629 182.337 58.9407 184.637 59.2286C186.771 59.4962 188.297 58.8102 189.728 57.2559C192.462 54.2886 195.583 50.0996 197.188 46.3671C197.376 45.931 197.838 45.2032 197.773 44.7365C197.646 43.813 197.591 44.7477 197.298 44.1065C197.019 43.4933 196.58 42.937 196.322 42.2566C195.395 39.812 194.738 37.2498 194.366 34.6621C194.198 33.49 194.141 32.3321 194.17 31.1484C194.18 30.7442 194.422 29.5308 194.277 29.2541C194.13 28.9736 193.361 28.8443 193.121 28.5659C192.677 28.0501 191.913 26.5937 191.421 26.2076C190.815 25.7331 189.46 26.1089 189.214 25.1652C188.821 23.6548 198.135 21.1947 193.783 19.1793C190.535 17.6746 185.552 25.2811 184.416 19.2957C184.219 18.2589 184.594 16.8515 184.139 15.9014C183.637 14.8512 182.268 14.4586 181.313 13.9476C180.093 13.296 178.861 12.6264 177.676 11.9128C176.863 11.4237 175.692 10.1249 174.827 10.006C175.167 11.7689 174.514 13.5162 174.503 15.2757C176.378 14.7685 177.667 14.7577 179.517 15.6596C180.398 16.0888 183.718 18.5248 182.036 19.6964C180.673 18.891 179.216 18.1925 177.697 17.719C177.098 17.5319 176.35 17.2777 175.713 17.2648C174.234 17.235 174.442 17.3897 173.887 18.5049C173.351 19.5792 173.466 22.381 172.291 23.067C171.076 23.7763 172.013 22.7835 170.976 23.0127C170.384 23.1437 169.739 23.5837 169.197 23.8323C169.939 24.6382 171.438 25.3737 171.93 26.2687C172.648 27.5736 172.399 30.2724 172.512 31.7C173.452 31.3634 174.442 31.3497 175.395 31.0997C176.291 30.8645 177.533 29.8462 177.626 31.3432C177.731 33.0113 175.094 33.4538 173.91 33.4538ZM186.147 77.3718C186.22 75.9304 186.3 74.4894 186.461 73.0541C186.569 72.0901 187.484 69.2943 186.967 68.4476C186.404 67.5267 184.519 67.4681 183.611 67.247C181.872 66.823 180.203 66.4757 178.436 66.1956C176.81 65.9384 175.277 65.8841 173.639 65.8095C171.855 65.7289 171.412 65.2554 171.018 67.2216C170.708 68.7678 170.292 70.3781 170.234 71.9613C170.18 73.4471 170.629 74.7368 169.156 75.7382C172.39 75.7382 176.601 72.8593 179.552 75.4336C183.772 79.1149 176.427 80.1754 174.49 80.9881C176.1 81.7706 178.491 82.3851 179.249 84.1725C180.099 86.1759 178.865 87.0278 176.976 87.1881C177.154 87.9603 177.834 88.4619 178.036 89.3905C178.333 90.7517 177.371 90.301 178.598 91.3542C180.215 92.7404 183.543 93.6673 185.526 94.5503C185.99 94.758 186.46 94.9527 186.935 95.135C187.678 95.796 188.226 95.6702 188.58 94.7571C189.597 94.1133 190.502 92.6771 191.405 91.8415C193.412 89.9826 195.627 88.3511 198.012 87.0088C197.023 86.5995 195.841 87.5246 194.892 87.0743C194.125 86.7102 194.414 86.0479 193.955 85.5519C194.139 84.9051 193.945 84.6685 193.372 84.8422C193.085 84.8728 192.819 84.8241 192.572 84.697C192.093 84.1023 191.877 83.9075 191.845 82.9893C191.812 82.0149 192.376 81.6711 192.592 80.8911C193.296 80.4115 193.28 79.9401 192.544 79.4782C192.242 78.9835 192.077 78.447 192.05 77.8682C191.909 75.7193 193.871 74.8531 195.367 73.7164C192.688 73.4221 192.791 70.2807 194.644 68.9074C196.565 67.4836 200.632 68.0667 202.955 68.3877C203.438 68.454 204.743 69.0772 205.231 68.6798C205.531 68.4364 205.319 66.3779 205.333 66.0146C205.364 65.1899 205.565 64.2065 205.433 63.3861C205.158 61.668 205.741 62.5333 204.504 62.4854C201.561 62.3712 197.813 64.9408 195.223 66.1521C192.325 67.5082 190.462 67.7168 190.432 71.0788C190.403 74.2624 189.51 77.4343 189.12 80.5671C188.95 81.9352 188.829 89.0432 186.324 86.4202C185.354 85.4028 185.976 83.8382 186.048 82.5833C186.146 80.8566 186.088 79.1033 186.147 77.3718ZM24.2232 183.938C25.6561 184.192 27.99 183.37 29.5531 183.283C32.2865 183.133 35.1015 182.873 37.7794 182.304C39.8744 181.859 42.2618 181.467 43.3916 179.439C44.4016 177.627 44.7586 175.357 45.3026 173.379C45.5914 172.329 46.3368 170.806 46.3368 169.72C46.3368 168.307 46.1462 168.586 44.6732 167.813C42.8088 166.835 40.9948 165.472 38.9838 164.917C38.3756 164.798 37.7669 164.681 37.1578 164.567C36.3697 164.11 35.9249 164.335 35.8218 165.241C35.0528 166.052 34.6019 167.546 33.9566 168.495C32.4853 170.657 30.7381 172.131 28.4555 173.378C24.3482 175.621 20.521 177.353 16.1219 178.82C13.6975 179.628 11.4619 180.762 9.09222 181.653C7.19374 182.367 4.57363 182.585 3.11528 184.174C1.46984 185.967 3.999 186.619 5.40475 187.831C6.5566 188.824 6.57902 189.052 8.15462 188.57C9.32845 188.211 10.3691 187.524 11.4964 187.058C15.3576 185.463 20.0309 184.402 24.2232 183.938ZM112.468 212.378C111.029 212.067 109.589 211.756 108.15 211.445C109.566 214.087 112.542 217.953 110.406 221.011C109.607 222.153 108.279 222.479 107.093 223.058C105.657 223.76 104.331 224.658 102.974 225.494C97.3764 228.941 91.6878 232.436 85.7898 235.393C87.6361 235.989 90.4752 236.402 92.3767 235.882C94.5911 235.277 96.6414 233.889 98.9149 233.282C102.993 232.193 107.286 231.266 111.43 230.708C114.817 230.251 123.295 231.283 122.883 226.189C122.492 221.353 119.604 216.739 118.744 211.958C116.635 212.426 114.623 212.344 112.468 212.378ZM198.243 134.973C199.883 126.923 200.863 118.736 202.798 110.743C203.763 106.756 204.443 102.714 205.386 98.7258C205.825 96.8703 206.156 94.9967 206.583 93.1446C207.016 91.2697 207.947 89.5392 208.16 87.6009C206.593 87.9887 206.23 91.5787 205.755 92.9292C204.884 95.4069 203.933 97.7877 202.813 100.16C201.033 103.93 199.144 107.568 197.135 111.224C195.018 115.079 192.781 118.788 190.136 122.309C189.266 123.466 188.087 124.372 187.527 125.641C186.646 127.638 186.275 130.017 185.434 132.095C186.026 132.395 187.557 132.47 188.284 132.614C189.636 132.881 190.583 133.118 191.881 133.761C194.169 134.893 196.09 136.235 197.619 138.273C198.003 137.227 198.103 136.08 198.243 134.973ZM134.488 196.395C134.461 188.642 134.351 180.823 134.478 173.127C134.513 170.99 134.687 168.685 134.997 166.564C135.192 165.232 136.337 162.398 135.584 161.759C134.941 161.213 131.546 161.573 130.712 161.553C129.096 161.516 127.485 161.444 125.866 161.322C125.866 164.196 126.989 167.459 127.51 170.301C127.996 172.952 128.396 175.618 128.797 178.282C129.666 184.05 129.913 189.897 130.856 195.68C131.711 200.924 132.838 206.146 133.46 211.389C133.801 214.267 134.491 216.982 135.027 219.859C135.307 221.359 136.328 227.536 137.615 228.144C137.887 225.928 136.776 223.252 136.577 221.011C136.372 218.697 136.212 216.368 135.837 214.043C135.397 211.312 135.174 208.514 135.005 205.751C134.902 204.059 134.871 202.373 134.725 200.683C134.619 199.457 134.155 197.598 134.488 196.395ZM174.893 92.7197C174.946 91.8756 172.761 91.9096 172.354 90.9392C171.528 88.9686 173.41 89.3233 174.567 89.1194C174.154 88.0236 166.43 88.4227 168.23 85.4644C169.478 83.412 174.212 86.5533 175.477 84.603C176.309 83.3219 174.046 83.1457 173.148 83.0173C171.798 82.8238 168.616 83.449 168.721 81.6965C168.853 79.4945 175.038 77.9747 176.773 77.3279C176.581 75.8201 169.136 77.9635 168.059 78.5745C165.62 79.9582 163.752 82.4403 163.394 85.199C162.977 88.4089 164.605 90.9366 167.811 91.7243C169.148 92.0527 170.136 92.0893 171.373 92.5831C172.187 92.9076 174.821 93.7173 175.378 92.8981C175.216 92.8387 175.055 92.7792 174.893 92.7197ZM218.596 72.755C218.72 71.3843 219.874 68.8039 218.544 67.9033C216.684 66.6429 215.913 68.7199 215.491 69.9674C214.976 71.4907 212.809 75.2194 214.704 76.1687C215.144 76.3894 217.233 76.1325 217.602 75.9869C218.628 76.2545 218.959 75.8701 218.596 74.8329V72.755ZM173.193 183.449C173.076 179.703 174.754 175.199 175.704 171.529C176.782 167.372 177.35 163.132 178.491 159.02C177.221 159.173 175.94 159.298 174.685 159.553C172.973 159.9 172.942 159.846 173.065 161.525C173.249 164.047 173.008 166.519 172.878 169.04C172.617 174.087 173.253 179.218 172.83 184.233C173.207 184.329 173.328 184.067 173.193 183.449ZM220.591 85.2645C224.703 85.894 228.645 87.198 232.388 88.9501C234.451 89.9158 236.723 90.9534 239.029 91.3391C241.59 91.7679 244.306 91.5666 246.922 91.7321C247.844 91.7903 250.268 92.2384 251.168 91.6959C252.058 91.1585 251.988 90.248 252.03 89.1625C252.138 86.3706 250.874 83.6369 249.738 81.132C248.763 78.983 248.026 77.3421 246.514 75.4935C244.571 73.1191 242.88 70.5569 241.06 68.0787C239.689 66.2107 238.303 64.3694 236.905 62.5035C235.905 61.1677 235.952 60.7079 234.445 60.8574C232.96 61.0048 231.466 61.8822 230.068 62.3471C227.993 63.0374 225.48 63.4162 223.587 64.5198C222.364 65.2334 222.309 65.3648 222.324 66.6102C222.337 67.7702 222.711 69.1849 223.405 70.0924C224.846 71.9764 227.236 72.9735 229.286 73.9133C230.473 74.4567 231.498 75.2276 232.554 75.9774C233.692 76.7858 235.987 77.262 236.858 78.1833C239.393 80.8666 234.778 80.3361 233.489 80.2551C230.707 80.0801 227.94 80.1069 225.137 80.1047C222.077 80.1025 219.043 79.9603 216.026 80.0599C214.26 80.1181 212.233 79.2222 211.088 77.7286C210.534 77.0051 210.318 76.3213 209.594 75.5706C208.644 74.5877 207.818 73.5522 206.663 72.7916C204.772 71.5472 201.338 70.843 199.087 71.3076C199.893 71.42 203.683 72.7102 202.014 74.3317C201.811 74.5291 199.374 74.6584 198.844 74.9018C197.888 75.3409 196.682 75.9791 196.122 76.9065C197.754 76.6328 203.811 76.3161 200.721 79.4493C199.963 80.2185 197.786 80.9859 199.638 81.8038C200.064 81.9917 200.916 81.7258 201.463 81.8952C202.278 82.1472 202.943 82.8216 203.706 83.181C205.87 84.2018 208.853 84.8314 211.112 84.6078C214.234 84.2979 217.488 84.8555 220.591 85.2645ZM137.776 179.673C137.883 184.174 137.72 188.701 137.817 193.223C137.919 198.052 138.539 202.784 138.834 207.564C139.099 211.848 139.677 216.051 140.147 220.315C140.418 222.771 140.729 225.119 141.145 227.557C141.534 229.837 141.601 231.847 138.874 232.46C133.661 233.633 132.851 226.134 131.843 222.974C130.339 218.258 129.375 213.307 128.63 208.418C127.243 199.314 125.398 190.335 124.678 181.153C124.235 175.499 123.592 169.903 123.227 164.254C123.156 163.147 123.438 161.442 122.466 160.949C121.881 160.653 120.271 160.65 119.533 160.435C117.477 159.837 115.58 158.957 113.574 158.043C114.998 165.488 115.468 172.896 116.536 180.407C117.103 184.392 118.187 188.521 119.127 192.444C120.101 196.508 120.317 200.885 121.441 204.861C121.935 206.613 122.354 207.327 121.636 209.126C120.755 211.334 121.34 211.862 122.445 214.031C124.477 218.02 126.028 222.728 125.684 227.226C125.403 230.899 122.627 232.821 119.189 233.813C114.889 235.052 110.386 234.905 106.06 236.313C102.29 237.539 98.4605 238.444 94.8002 240.063C93.3242 240.715 91.9219 241.49 90.2829 241.61C88.0352 241.773 86.5196 240.469 84.3965 240.197C83.0696 240.027 81.1267 240.66 80.3624 239.269C79.7563 238.167 80.4422 235.76 81.203 234.873C83.3399 232.378 87.6193 230.205 90.501 228.733C93.8225 227.036 97.0362 224.912 100.114 222.723C101.979 221.395 103.881 220.122 105.745 218.792C106.978 217.911 107.447 217.906 107.321 216.507C107.221 215.392 106.718 214.311 106.63 213.169C106.563 212.294 106.869 211.102 106.456 210.531C106.152 210.11 105.01 209.813 104.562 209.494C102.92 208.33 102.548 206.891 101.802 205.121C100.109 201.102 98.1644 197.195 96.5297 193.143C93.0198 184.443 90.8782 175.296 87.9684 166.418C84.9957 157.349 82.3377 147.828 80.7004 138.418C78.5097 139.085 76.4422 142.035 74.6976 143.494C72.3404 145.467 69.9255 147.375 67.6141 149.401C63.8253 152.724 59.9891 155.955 56.8582 159.933C55.3498 161.85 54.1148 163.912 52.7491 165.925C51.9602 167.088 51.2248 168.405 50.3704 169.511C50.2333 169.689 50.2294 170.054 50.0816 170.205C49.7561 170.537 49.1349 170.094 48.9263 170.313C47.6391 171.66 47.6559 175.482 47.2545 177.258C46.7019 179.706 46.0811 182.521 44.1697 184.208C41.2173 186.814 35.7723 187.217 32.0357 187.353C27.2403 187.526 22.5885 188.863 18.0389 190.298C15.9167 190.967 13.8501 191.75 11.7201 192.4C10.495 192.774 9.09739 193.52 7.78906 193.377C6.21131 193.204 4.96548 191.876 3.80975 190.89C1.96084 189.311 0.249022 187.755 0.308642 185.165C0.375329 182.424 1.8604 180.355 4.19988 178.993C8.72278 176.36 13.7815 174.672 18.6566 172.853C20.5249 172.156 22.1242 171.384 23.9106 170.445C26.4346 169.118 29.3401 168.034 31.5796 166.282C32.24 165.765 34.6665 164.181 34.8735 163.364C34.9006 163.258 34.2941 162.01 34.2915 161.812C34.2855 161.303 34.5868 160.752 34.7722 160.317C35.9387 157.574 37.8953 154.934 39.3912 152.348C42.1307 147.611 44.8806 142.849 48.0568 138.395C54.3902 129.513 61.5048 120.817 69.1836 113.064C72.9272 109.284 76.162 104.997 79.9581 101.27C81.4621 99.7932 83.0498 98.591 84.903 97.6326C86.9688 96.5644 89.2875 96.3549 91.6555 96.0287C97.3936 95.2389 102.185 96.9362 107.573 98.4134C112.666 99.8096 117.764 100.987 122.885 102.442C128.509 104.039 134.076 105.57 139.683 107.311C142.678 108.241 145.76 108.812 148.77 109.704C150.219 110.133 155.698 112.824 156.907 111.94C153.1 110.154 149.201 108.526 145.128 107.448C143.929 107.131 143.163 107.482 143.207 106.105C143.232 105.354 144.076 104.34 144.38 103.721C145.107 102.241 145.931 100.795 146.643 99.3102C144.062 100.043 137.122 102.58 135.177 99.9574C133.141 97.212 134.84 91.8295 136.116 89.1414C139.447 82.1244 145.113 76.2687 150.633 70.9792C151.827 69.8356 154.401 68.342 155.037 66.8855C155.23 66.4425 154.809 65.7918 155.246 65.2166C155.505 64.8744 156.548 64.6404 156.965 64.2716C158.483 62.928 159.694 60.1008 160.743 58.3392C161.841 56.4944 162.831 54.4967 164.211 52.8416C166.469 50.135 168.8 47.2659 172.456 46.6329C174.248 46.3227 176.153 46.4881 177.871 45.8689C179.95 45.12 181.924 43.9401 184.023 43.1645C183.502 42.0941 183.08 40.392 182.07 40.2752C181.097 40.1623 179.671 40.9983 178.558 40.9923C176.932 40.9832 175.545 40.7234 173.976 40.4135C172.24 40.0701 171.668 40.1326 171.035 38.249C170.371 36.2759 170.538 33.9843 170.544 31.9348C170.546 30.9334 170.745 29.6902 170.66 28.7073C170.532 27.2262 170.244 27.1694 169.083 26.2274C167.632 25.0505 165.844 23.4932 167.621 21.4485C168.581 20.3437 170.554 21.2029 171.405 20.0157C172.271 18.8066 172.229 15.7691 172.493 14.3488C169.823 15.6613 170.802 10.7545 170.801 9.57379C170.801 7.85573 169.649 4.76607 171.307 3.33672C172.077 2.67312 172.649 3.2221 173.53 2.84074C174.535 2.40552 175.168 1.26402 176.237 0.821472C178.361 -0.0584564 180.531 1.00116 182.713 0.826213C185.215 0.625837 187.673 0.238875 190.189 0.640488C191.382 0.830091 191.884 1.28298 192.892 1.7906C193.862 2.27883 194.846 2.41241 195.9 2.72655C196.838 3.00621 197.66 3.14755 198.293 3.96457C198.794 4.61094 198.59 5.69814 199.096 6.25531C199.594 6.8043 200.581 6.72458 201.176 7.37655C201.746 8.00224 202.088 9.03644 202.384 9.8151C202.785 10.864 202.832 11.2578 203.538 12.0972C204.153 12.8298 205.039 13.4188 205.552 14.2544C206.762 16.2241 206.793 19.0725 206.407 21.2882C206.276 22.0428 205.182 23.9931 205.353 24.6351C205.516 25.2462 206.542 25.0854 207.006 25.472C207.407 25.8059 207.76 27.2939 208.077 27.3848C208.76 27.5809 209.604 26.2308 210.122 26.0283C211.022 25.6762 211.399 25.3151 211.897 26.6419C212.267 27.6266 211.752 28.9628 211.481 29.9026C211.136 31.0989 210.755 32.5394 209.841 33.4439C208.767 34.5074 207.907 33.9261 206.721 34.4988C204.945 35.3572 205.469 38.0409 203.283 38.8079C201.2 39.5388 198.905 37.2394 197.329 36.1824C197.656 38.7485 198.884 41.2211 198.295 43.8509C203.086 41.9739 207.824 39.31 213.045 38.7231C215.708 38.4236 218.397 38.0689 220.91 39.1742C223.852 40.4678 225.654 43.3213 227.646 45.6922C231.388 50.1483 235.227 54.4795 238.819 59.0791C242.114 63.2981 244.891 68.1869 248.517 72.1375C252.194 76.1437 254.969 82.6437 254.566 88.1913C254.53 88.692 254.142 89.8296 254.203 90.3695C254.25 90.7832 254.626 91.3076 254.62 91.6412C254.6 92.7637 254.229 93.4101 253.159 94.0327C251.304 95.113 248.54 95.6599 246.443 95.9279C243.658 96.2843 240.247 96.3226 237.46 95.9421C234.586 95.5491 232.06 93.9405 229.417 92.9684C227.099 92.1152 224.771 91.5826 222.335 91.0383C220.991 90.738 219.503 89.9067 218.673 90.7112C217.911 91.4507 217.752 95.2445 217.575 96.2532C215.647 107.187 213.357 117.751 211.328 128.629C209.029 140.959 207.457 153.285 205.858 165.72C204.405 177.023 203.93 188.454 203.605 199.747C203.45 205.134 203.427 210.463 203.46 215.855C203.479 218.874 204.988 228.952 200.513 229.338C197.883 229.565 195.778 225.794 195.074 223.738C194.015 220.648 193.463 217.321 193.294 214.075C192.953 207.505 192.505 200.929 192.24 194.356C191.953 187.235 192.318 179.982 192.904 172.884C193.493 165.739 194.977 158.698 195.433 151.541C194.067 153.491 193.629 153.857 191.354 154.706C188.973 155.595 186.683 156.646 184.281 157.475C183.463 157.757 182.188 157.934 181.518 158.395C180.281 159.247 181.094 158.28 180.699 159.938C180.277 161.708 180.198 163.834 180.086 165.653C179.559 174.192 177.194 182.67 176.103 191.163C175.84 193.214 176.215 201.919 172.686 199.176C169.968 197.063 170.022 190.426 169.635 187.318C169.121 183.174 169.407 178.914 169.489 174.745C169.582 169.997 169.661 165.017 170.794 160.382C168.767 160.035 165.948 160.98 163.908 161.139C162.141 161.276 160.381 161.364 158.624 161.46C154.435 161.69 150.12 161.874 145.86 161.792C145.084 161.776 140.018 161.067 139.37 161.639C139.16 161.825 139.096 164.379 139.056 164.691C138.907 165.865 138.705 167.038 138.554 168.205C138.073 171.936 137.638 175.943 137.776 179.673Z" fill="#24243B"/>
</svg>
